<?xml version="1.0" encoding="utf-8"?>
<!-- Generator: Adobe Illustrator 27.2.0, SVG Export Plug-In . SVG Version: 6.00 Build 0)  -->
<svg version="1.1" id="Layer_1" xmlns="http://www.w3.org/2000/svg" xmlns:xlink="http://www.w3.org/1999/xlink" x="0px" y="0px"
	 viewBox="0 0 840 480" style="enable-background:new 0 0 840 480;" xml:space="preserve">
<style type="text/css">
	.st0{fill:#ECECEC;}
	.st1{fill:#F5F5F5;}
	.st2{fill:#F0F0F0;}
	.st3{fill:#E7E7E7;}
	.st4{fill:#3F85EA;}
	.st5{opacity:0.3;}
	.st6{fill:#007CFF;}
	.st7{opacity:0.7;fill:#FFFFFF;}
	.st8{opacity:0.2;fill:#007CFF;}
	.st9{opacity:0.3;fill:#FFFFFF;}
	.st10{opacity:0.4;fill:#007CFF;}
	.st11{opacity:0.2;}
	.st12{opacity:0.2;fill:#FFFFFF;}
	.st13{opacity:0.3;fill:#007CFF;}
	.st14{opacity:0.8;fill:#FFFFFF;}
	.st15{fill:#1A2E35;}
	.st16{fill:#FFFFFF;}
	.st17{opacity:0.5;fill:#FFFFFF;}
	.st18{opacity:0.6;fill:#007CFF;}
	.st19{opacity:0.5;fill:#007CFF;}
	.st20{opacity:0.6;fill:#FFFFFF;}
</style>
<g>
	<g>
		<path class="st0" d="M405.9,476.8H172c-3.8,0-6.9-3.1-6.9-6.9V11.1c0-3.8,3.1-6.9,6.9-6.9h233.9c3.8,0,6.9,3.1,6.9,6.9v458.8
			C412.9,473.7,409.8,476.8,405.9,476.8z M172,4.5c-3.6,0-6.6,3-6.6,6.6v458.8c0,3.6,3,6.6,6.6,6.6h233.9c3.6,0,6.6-3,6.6-6.6V11.1
			c0-3.6-3-6.6-6.6-6.6H172z"/>
		<path class="st0" d="M668,476.8H434.1c-3.8,0-6.9-3.1-6.9-6.9V11.1c0-3.8,3.1-6.9,6.9-6.9H668c3.8,0,6.9,3.1,6.9,6.9v458.8
			C674.9,473.7,671.8,476.8,668,476.8z M434.1,4.5c-3.6,0-6.6,3-6.6,6.6v458.8c0,3.6,3,6.6,6.6,6.6H668c3.6,0,6.6-3,6.6-6.6V11.1
			c0-3.6-3-6.6-6.6-6.6H434.1z"/>
	</g>
	<g>
		<g>
			<polygon class="st0" points="254.1,141.5 256.1,145.4 260.4,146.1 257.3,149.2 258,153.5 254.1,151.5 250.2,153.5 250.9,149.2 
				247.8,146.1 252.1,145.4 			"/>
			<polygon class="st1" points="646.2,328.3 648.1,332.3 652.5,332.9 649.4,336 650.1,340.4 646.2,338.3 642.3,340.4 643,336 
				639.8,332.9 644.2,332.3 			"/>
			<polygon class="st1" points="568.5,443.5 570.5,447.5 574.9,448.1 571.7,451.2 572.4,455.6 568.5,453.5 564.6,455.6 565.4,451.2 
				562.2,448.1 566.6,447.5 			"/>
			<path class="st0" d="M390.9,71.1l0.7,1.5l1.6,0.2c0.4,0.1,0.6,0.6,0.3,0.8l-1.2,1.1l0.3,1.6c0.1,0.4-0.4,0.7-0.7,0.5l-1.5-0.8
				l-1.5,0.8c-0.4,0.2-0.8-0.1-0.7-0.5l0.3-1.6l-1.2-1.1c-0.3-0.3-0.1-0.8,0.3-0.8l1.6-0.2l0.7-1.5
				C390.2,70.7,390.7,70.7,390.9,71.1z"/>
			<path class="st1" d="M190.8,424.7l0.7,1.5l1.6,0.2c0.4,0.1,0.6,0.6,0.3,0.8l-1.2,1.1l0.3,1.6c0.1,0.4-0.4,0.7-0.7,0.5l-1.5-0.8
				l-1.5,0.8c-0.4,0.2-0.8-0.1-0.7-0.5l0.3-1.6l-1.2-1.1c-0.3-0.3-0.1-0.8,0.3-0.8l1.6-0.2l0.7-1.5
				C190.1,424.3,190.6,424.3,190.8,424.7z"/>
			<path class="st0" d="M223.4,55.5l0.7,1.5l1.6,0.2c0.4,0.1,0.6,0.6,0.3,0.8l-1.2,1.1l0.3,1.6c0.1,0.4-0.4,0.7-0.7,0.5l-1.5-0.8
				l-1.5,0.8c-0.4,0.2-0.8-0.1-0.7-0.5l0.3-1.6l-1.2-1.1c-0.3-0.3-0.1-0.8,0.3-0.8l1.6-0.2l0.7-1.5
				C222.7,55.1,223.3,55.1,223.4,55.5z"/>
			<path class="st0" d="M221.5,347.5c0,0.9-0.7,1.6-1.6,1.6c-0.9,0-1.6-0.7-1.6-1.6c0-0.9,0.7-1.6,1.6-1.6
				C220.8,345.9,221.5,346.6,221.5,347.5z"/>
			<path class="st0" d="M451.1,145.9c0,0.9-0.7,1.6-1.6,1.6c-0.9,0-1.6-0.7-1.6-1.6c0-0.9,0.7-1.6,1.6-1.6
				C450.4,144.3,451.1,145,451.1,145.9z"/>
			<path class="st1" d="M367.6,56.8c0,0.9-0.7,1.6-1.6,1.6c-0.9,0-1.6-0.7-1.6-1.6c0-0.9,0.7-1.6,1.6-1.6
				C366.8,55.2,367.6,56,367.6,56.8z"/>
		</g>
		<g>
			
				<ellipse transform="matrix(0.9732 -0.2298 0.2298 0.9732 -91.4394 96.3599)" class="st2" cx="368.1" cy="440.8" rx="8.9" ry="8.9"/>
		</g>
		<path class="st3" d="M365,435.7c-1.9,0-3.6,0.6-5.1,1.6c-0.5,1.1-0.7,2.3-0.7,3.5c0,4.9,4,8.9,8.9,8.9c1.7,0,3.2-0.5,4.6-1.3
			c0,0,0,0,0,0c0.7-1.2,1-2.6,1-4.1C373.7,439.5,369.8,435.7,365,435.7z"/>
	</g>
	<g>
		<path class="st4" d="M296,286.1h-73.7v-33.3l73.7-87.6h35.3v89.5h18.3v31.4h-18.3v27.2H296V286.1z M296,254.7v-45.8l-39,45.8H296z
			"/>
		<path class="st4" d="M362.2,239.9c0-27.7,5-47.1,15-58.1c10-11.1,25.2-16.6,45.6-16.6c9.8,0,17.9,1.2,24.1,3.6
			c6.3,2.4,11.4,5.6,15.4,9.4c4,3.9,7.1,7.9,9.4,12.2c2.3,4.3,4.1,9.3,5.5,15c2.7,10.9,4.1,22.2,4.1,34c0,26.4-4.5,45.8-13.4,58
			c-8.9,12.3-24.3,18.4-46.2,18.4c-12.3,0-22.2-2-29.7-5.9c-7.6-3.9-13.7-9.6-18.6-17.2c-3.5-5.4-6.2-12.7-8.2-22
			C363.2,261.4,362.2,251.2,362.2,239.9z M402.4,240c0,18.5,1.6,31.2,4.9,38c3.3,6.8,8,10.2,14.3,10.2c4.1,0,7.7-1.4,10.7-4.3
			c3-2.9,5.2-7.4,6.7-13.7c1.4-6.2,2.1-15.9,2.1-29.1c0-19.3-1.6-32.3-4.9-39c-3.3-6.7-8.2-10-14.8-10c-6.7,0-11.5,3.4-14.5,10.2
			C403.8,209.1,402.4,221.7,402.4,240z"/>
		<path class="st4" d="M567.5,286.1h-73.7v-33.3l73.7-87.6h35.3v89.5H621v31.4h-18.3v27.2h-35.3V286.1z M567.5,254.7v-45.8l-39,45.8
			H567.5z"/>
	</g>
	<g>
		<g class="st5">
			<path class="st6" d="M360.6,114c0,1.2-1,2.3-2.3,2.3c-1.2,0-2.3-1-2.3-2.3c0-1.2,1-2.3,2.3-2.3
				C359.6,111.8,360.6,112.8,360.6,114z"/>
			<circle class="st6" cx="205.5" cy="199.5" r="1.6"/>
			<circle class="st6" cx="469.7" cy="432.3" r="2.3"/>
			<circle class="st6" cx="524.8" cy="339.8" r="1.6"/>
			<path class="st6" d="M631,53.5c0,0.9-0.7,1.6-1.6,1.6c-0.9,0-1.6-0.7-1.6-1.6c0-0.9,0.7-1.6,1.6-1.6
				C630.3,51.9,631,52.6,631,53.5z"/>
			<path class="st6" d="M326.4,21.2c0,0.9-0.7,1.6-1.6,1.6c-0.9,0-1.6-0.7-1.6-1.6s0.7-1.6,1.6-1.6
				C325.7,19.6,326.4,20.3,326.4,21.2z"/>
			<circle class="st6" cx="453.6" cy="103.5" r="1.6"/>
		</g>
		<g>
			<g>
				<circle class="st6" cx="288.2" cy="78.6" r="26.5"/>
				<circle class="st7" cx="288.2" cy="78.6" r="26.5"/>
			</g>
			<path class="st8" d="M279.1,58.6c-3.7,0-7.3,0.8-10.5,2.1c-4.3,4.7-6.9,11-6.9,17.9c0,14.7,11.9,26.5,26.5,26.5
				c3.7,0,7.3-0.8,10.5-2.2c0,0,0,0,0,0c4.3-4.7,6.9-11,6.9-17.8C305.6,70.5,293.8,58.6,279.1,58.6z"/>
			<path class="st8" d="M276.4,65.6c0,1.3-1.1,2.4-2.4,2.4s-2.4-1.1-2.4-2.4c0-1.3,1.1-2.4,2.4-2.4S276.4,64.3,276.4,65.6z"/>
			<path class="st8" d="M305,63.2c0,1.3-1.1,2.4-2.4,2.4c-1.3,0-2.4-1.1-2.4-2.4c0-1.3,1.1-2.4,2.4-2.4
				C303.9,60.7,305,61.8,305,63.2z"/>
			<path class="st8" d="M300.1,80.5c0,2.2-1.8,4-4,4s-4-1.8-4-4s1.8-4,4-4S300.1,78.3,300.1,80.5z"/>
			<path class="st8" d="M287.5,91.8c0,2.9-2.4,5.3-5.3,5.3c-2.9,0-5.3-2.4-5.3-5.3c0-2.9,2.4-5.3,5.3-5.3
				C285.1,86.5,287.5,88.9,287.5,91.8z"/>
		</g>
		<g>
			<g>
				
					<ellipse transform="matrix(0.2298 -0.9732 0.9732 0.2298 63.9388 867.684)" class="st6" cx="580.2" cy="393.4" rx="23.3" ry="23.3"/>
				
					<ellipse transform="matrix(0.2298 -0.9732 0.9732 0.2298 63.9388 867.684)" class="st9" cx="580.2" cy="393.4" rx="23.3" ry="23.3"/>
			</g>
			<path class="st10" d="M594.9,375.4c-2.1-0.6-4.4-1-6.7-1c-12.9,0-23.3,10.4-23.3,23.3c0,7.3,3.3,13.8,8.6,18.1
				c2.1,0.6,4.4,1,6.7,1c12.9,0,23.3-10.4,23.3-23.3C603.4,386.2,600.1,379.6,594.9,375.4z"/>
			<path class="st4" d="M557.9,400.4c-24.9,11.7-6.3,20.7,28.7,8.1c32.4-11.7,44.8-26.4,15.8-21.8
				C603.9,392.9,563.3,408.7,557.9,400.4z"/>
		</g>
	</g>
	<g>
		<path class="st11" d="M594.6,165.2c-32.6,22-74.7,51-86.4,120.9h-2.5c11.3-69,52-98.8,84.5-120.9H594.6z"/>
		<g>
			<path class="st6" d="M426.1,383.8c-20.6,0-41-9.3-50.9-24.5c-6.1-9.4-13.2-29,7.9-55.2l1.9,1.5c-15,18.5-17.7,37.1-7.8,52.4
				c12.1,18.5,40.7,27.9,65.1,21.2c25-6.8,40.2-28.5,41.6-59.6c5-106.4,61.5-139.1,102.8-163.1c25.6-14.9,44.2-25.6,40.1-48.3
				c-0.6-3.1-1.8-5.3-3.8-6.6c-5.3-3.5-15.6-1.1-27.5,1.7c-23.4,5.4-55.4,12.9-74.5-19.5l2.1-1.2c18.2,30.9,47.9,24,71.9,18.4
				c12.5-2.9,23.2-5.4,29.4-1.4c2.6,1.7,4.2,4.4,4.9,8.2c4.4,24.3-15.8,36-41.3,50.8c-40.8,23.6-96.6,56-101.6,161.1
				c-1.5,32.2-17.3,54.8-43.4,61.9C437.5,383.1,431.8,383.8,426.1,383.8z"/>
			<path class="st12" d="M426.1,383.8c-20.6,0-41-9.3-50.9-24.5c-6.1-9.4-13.2-29,7.9-55.2l1.9,1.5c-15,18.5-17.7,37.1-7.8,52.4
				c12.1,18.5,40.7,27.9,65.1,21.2c25-6.8,40.2-28.5,41.6-59.6c5-106.4,61.5-139.1,102.8-163.1c25.6-14.9,44.2-25.6,40.1-48.3
				c-0.6-3.1-1.8-5.3-3.8-6.6c-5.3-3.5-15.6-1.1-27.5,1.7c-23.4,5.4-55.4,12.9-74.5-19.5l2.1-1.2c18.2,30.9,47.9,24,71.9,18.4
				c12.5-2.9,23.2-5.4,29.4-1.4c2.6,1.7,4.2,4.4,4.9,8.2c4.4,24.3-15.8,36-41.3,50.8c-40.8,23.6-96.6,56-101.6,161.1
				c-1.5,32.2-17.3,54.8-43.4,61.9C437.5,383.1,431.8,383.8,426.1,383.8z"/>
		</g>
		<g>
			<g>
				<path class="st6" d="M496,55.1c8.3-0.2,16.5,2.6,16.5,2.6s13.3,22.7,14.9,27.9c-0.6,5.1-9.2,13.6-9.2,13.6L496,55.1z"/>
				<path class="st9" d="M496,55.1c8.3-0.2,16.5,2.6,16.5,2.6s13.3,22.7,14.9,27.9c-0.6,5.1-9.2,13.6-9.2,13.6L496,55.1z"/>
			</g>
			<g>
				<g>
					<path class="st6" d="M535.5,165.5c-5-6.4-9.9-12.8-14-19.8c-1-1.8-2-3.5-2.9-5.3c-0.5-1-1-2.1-1.5-3.1
						c-0.4-0.9-1.4-2.3-1.5-3.3c-1.5-15.4,3.8-26.7-1.2-39l-20,7.8c0,0,1.7,22,5.6,35.1c2.4,8.1,7.8,15.2,13.1,21.7
						c1.6,2,3.2,4.1,4.9,6.2c1.5,1.9,3.3,3.7,4.8,5.6c2.4,2.9,3.1,5.7,1.4,9.2c-0.1,0.2-0.2,0.4-0.3,0.5c-0.5,0.9,1.9,1.9,3.4,0
						c2.5-3.1,2.1-2.9,4.2-5.6c1.3-1.6,2.8-3.4,4-4.9C536.7,169.2,536.7,167.1,535.5,165.5z"/>
					<path class="st7" d="M535.5,165.5c-5-6.4-9.9-12.8-14-19.8c-1-1.8-2-3.5-2.9-5.3c-0.5-1-1-2.1-1.5-3.1
						c-0.4-0.9-1.4-2.3-1.5-3.3c-1.5-15.4,3.8-26.7-1.2-39l-20,7.8c0,0,1.7,22,5.6,35.1c2.4,8.1,7.8,15.2,13.1,21.7
						c1.6,2,3.2,4.1,4.9,6.2c1.5,1.9,3.3,3.7,4.8,5.6c2.4,2.9,3.1,5.7,1.4,9.2c-0.1,0.2-0.2,0.4-0.3,0.5c-0.5,0.9,1.9,1.9,3.4,0
						c2.5-3.1,2.1-2.9,4.2-5.6c1.3-1.6,2.8-3.4,4-4.9C536.7,169.2,536.7,167.1,535.5,165.5z"/>
				</g>
				<path class="st13" d="M530.6,159.2c-2.7,3.2-8.1,7.4-10.5,9.1c0.5,0.6,1,1.2,1.6,1.8c4.9-3.2,8.8-7.4,10.3-9.1
					C531.5,160.4,531.1,159.8,530.6,159.2z"/>
				<path class="st13" d="M535.5,165.6c0-0.1-0.1-0.1-0.1-0.2c-0.8,0.9-1.4,2.3-1.5,3.8c-0.1,1.1,0.1,2.1,0.5,2.8
					c0.4-0.5,0.8-0.9,1.2-1.4C536.7,169.2,536.7,167.1,535.5,165.6z"/>
			</g>
			<g>
				<g>
					<path class="st6" d="M491.3,69.6c-2.1,3-4.5,6-7.7,8.7c-1.6,1.4-3.4,2.6-5.4,3.6c-1,0.5-2,0.9-3.1,1.3l-0.8,0.3l-0.3,0.1
						c-0.2,0.1-0.4,0.1-0.6,0.2c-0.4,0.1-0.7,0.1-1.1,0.2c-1.3,0.1-2.3-0.1-3-0.3c-1.5-0.4-2.6-1-3.6-1.5c-1-0.6-1.8-1.1-2.6-1.7
						c-1.6-1.2-3-2.4-4.3-3.7c-2.7-2.6-5.1-5.2-7.3-8.2c-1-1.3-0.7-3.3,0.6-4.3c1-0.8,2.4-0.8,3.4-0.1l0.1,0.1
						c2.9,1.8,5.7,3.7,8.6,5.4c1.4,0.8,2.8,1.7,4.2,2.3c0.7,0.3,1.3,0.6,1.9,0.9c0.6,0.2,1.2,0.4,1.3,0.3c0.1,0,0-0.1-0.5-0.1
						c-0.1,0-0.3,0-0.4,0.1c-0.1,0-0.2,0-0.3,0.1c-0.1,0,0,0,0,0L471,73c0.5-0.3,1-0.6,1.6-1c1-0.7,2-1.6,3-2.6c2-2,3.9-4.4,5.9-7
						l0,0c2.1-2.6,5.9-3.1,8.5-1C492.6,63.4,493.1,67,491.3,69.6z"/>
					<path class="st7" d="M491.3,69.6c-2.1,3-4.5,6-7.7,8.7c-1.6,1.4-3.4,2.6-5.4,3.6c-1,0.5-2,0.9-3.1,1.3l-0.8,0.3l-0.3,0.1
						c-0.2,0.1-0.4,0.1-0.6,0.2c-0.4,0.1-0.7,0.1-1.1,0.2c-1.3,0.1-2.3-0.1-3-0.3c-1.5-0.4-2.6-1-3.6-1.5c-1-0.6-1.8-1.1-2.6-1.7
						c-1.6-1.2-3-2.4-4.3-3.7c-2.7-2.6-5.1-5.2-7.3-8.2c-1-1.3-0.7-3.3,0.6-4.3c1-0.8,2.4-0.8,3.4-0.1l0.1,0.1
						c2.9,1.8,5.7,3.7,8.6,5.4c1.4,0.8,2.8,1.7,4.2,2.3c0.7,0.3,1.3,0.6,1.9,0.9c0.6,0.2,1.2,0.4,1.3,0.3c0.1,0,0-0.1-0.5-0.1
						c-0.1,0-0.3,0-0.4,0.1c-0.1,0-0.2,0-0.3,0.1c-0.1,0,0,0,0,0L471,73c0.5-0.3,1-0.6,1.6-1c1-0.7,2-1.6,3-2.6c2-2,3.9-4.4,5.9-7
						l0,0c2.1-2.6,5.9-3.1,8.5-1C492.6,63.4,493.1,67,491.3,69.6z"/>
				</g>
				<g>
					<path class="st6" d="M447,61.7l1.4,2.4c0,0,1.1,3.2,3.3,3.8l5.9-1.9l-0.3-0.5c0,0,0,0,0,0c-0.8-1.1-0.7-3.4-0.4-5.2
						c0.3-1.8-0.7-1.9-1.4-1.4c-0.4,0.3-0.7,1.1-1,2c-0.3-0.4-0.6-0.8-0.9-1.1l-1.8-1.8c-0.8-0.8-2-0.8-2.8-0.1l-1.5,1.3
						C446.7,59.8,446.5,60.9,447,61.7z"/>
					<path class="st7" d="M447,61.7l1.4,2.4c0,0,1.1,3.2,3.3,3.8l5.9-1.9l-0.3-0.5c0,0,0,0,0,0c-0.8-1.1-0.7-3.4-0.4-5.2
						c0.3-1.8-0.7-1.9-1.4-1.4c-0.4,0.3-0.7,1.1-1,2c-0.3-0.4-0.6-0.8-0.9-1.1l-1.8-1.8c-0.8-0.8-2-0.8-2.8-0.1l-1.5,1.3
						C446.7,59.8,446.5,60.9,447,61.7z"/>
				</g>
			</g>
			<g>
				<path class="st6" d="M502,53c-5.6,1.4-13.4,4.6-18.6,7.8c-1.9,1.2-2.8,3.3-2.3,5.5c2.3,11.4,7.6,26.8,13.4,36.5l26.8-11.1
					c0.2-4.7-6.3-20-12.9-34.8C507.1,54.3,504.8,52.3,502,53z"/>
				<path class="st14" d="M502,53c-5.6,1.4-13.4,4.6-18.6,7.8c-1.9,1.2-2.8,3.3-2.3,5.5c2.3,11.4,7.6,26.8,13.4,36.5l26.8-11.1
					c0.2-4.7-6.3-20-12.9-34.8C507.1,54.3,504.8,52.3,502,53z"/>
			</g>
			<path class="st13" d="M512.4,66.3l-5.3-1.8c1.2,3.1,5.5,7.1,8.5,9.4C514.6,71.5,513.6,68.9,512.4,66.3z"/>
			<g>
				<path class="st6" d="M500.2,41c-2.2-4.2-7-6.3-12.7-5.9c-4.8,0.4-9.1,5.3-8.6,8c0.5,2.7,4.6,3.8,5.3,4.7l-3.4,2.4
					c-1.7,1.2-2,3.6-0.7,5.2c1.4,1.8,3.3,3.7,4.4,5c9.3-0.2,16.2-3.8,18.6-7.2C502.2,49,502.4,45.2,500.2,41z"/>
				<path class="st14" d="M500.2,41c-2.2-4.2-7-6.3-12.7-5.9c-4.8,0.4-9.1,5.3-8.6,8c0.5,2.7,4.6,3.8,5.3,4.7l-3.4,2.4
					c-1.7,1.2-2,3.6-0.7,5.2c1.4,1.8,3.3,3.7,4.4,5c9.3-0.2,16.2-3.8,18.6-7.2C502.2,49,502.4,45.2,500.2,41z"/>
			</g>
			<path class="st15" d="M495.7,43.6c1.8,4.7-0.5,10-5.2,11.9c-4.7,1.8-10-0.5-11.9-5.2c-1.8-4.7,0.5-10,5.2-11.9
				C488.5,36.6,493.8,38.9,495.7,43.6z"/>
			<g>
				<g>
					<path class="st6" d="M574.3,152.8c-0.1-4-0.3-3.6-0.4-7c-0.1-2.1-0.1-4.3-0.1-6.3c0-1.9-1.4-3.6-3.3-4c-1.6-0.3-3.2-0.6-4.8-1
						c-2.1-0.4-4.2-0.9-6.2-1.5c-1.6-0.5-3.2-1-4.7-1.5c-1.7-0.6-3.3-1.3-5-2c-1.9-0.8-3.8-1.7-5.7-2.6c-2.1-1-4.2-2-6.2-3.1
						c-8-13.2-8.1-21.9-16.7-32.1l-18.4,8.3c0,0,13.5,23.9,22.7,34.1c5.3,5.8,13.6,8.5,21,10.4c5.3,1.4,10.8,2.4,16.2,3.4
						c2.1,0.4,4.4,0.5,6.2,1.8c1.4,1,2.2,2.5,2.6,4.2c0.1,0.3,0.2,0.7,0.2,1C571.9,156,574.4,155.2,574.3,152.8z"/>
					<path class="st14" d="M574.3,152.8c-0.1-4-0.3-3.6-0.4-7c-0.1-2.1-0.1-4.3-0.1-6.3c0-1.9-1.4-3.6-3.3-4c-1.6-0.3-3.2-0.6-4.8-1
						c-2.1-0.4-4.2-0.9-6.2-1.5c-1.6-0.5-3.2-1-4.7-1.5c-1.7-0.6-3.3-1.3-5-2c-1.9-0.8-3.8-1.7-5.7-2.6c-2.1-1-4.2-2-6.2-3.1
						c-8-13.2-8.1-21.9-16.7-32.1l-18.4,8.3c0,0,13.5,23.9,22.7,34.1c5.3,5.8,13.6,8.5,21,10.4c5.3,1.4,10.8,2.4,16.2,3.4
						c2.1,0.4,4.4,0.5,6.2,1.8c1.4,1,2.2,2.5,2.6,4.2c0.1,0.3,0.2,0.7,0.2,1C571.9,156,574.4,155.2,574.3,152.8z"/>
				</g>
				<path class="st13" d="M565,134.4c-0.7-0.2-1.5-0.3-2.2-0.5c0.1,4.2-1.9,11.4-2.6,13.6c0.8,0.1,1.5,0.3,2.3,0.4
					C564.6,142.2,565,136.1,565,134.4z"/>
				<path class="st13" d="M573.8,139.5c0-1.9-1.4-3.6-3.3-4c-0.4-0.1-0.8-0.2-1.2-0.2c0.1,1.1,0.8,2.5,2,3.5
					c0.8,0.7,1.7,1.2,2.5,1.4C573.8,139.9,573.8,139.7,573.8,139.5z"/>
			</g>
			<path class="st16" d="M494,43.7c0.5,1.8-1.6,3.8-3.2,2.2c-1.3-1.3-3.3-3.4-5-4.5c-1.7-1.1,0.6-2.9,3.2-2.2
				C491.4,39.9,493.5,41.8,494,43.7z"/>
			<g>
				<path class="st6" d="M494.1,102.2c-0.9,0.3,0.7,1.8,0.7,1.8s16.9-5.8,27.3-11.8c0.1-1.2-0.8-1.9-0.8-1.9S508.7,96.9,494.1,102.2
					z"/>
				<path class="st17" d="M494.1,102.2c-0.9,0.3,0.7,1.8,0.7,1.8s16.9-5.8,27.3-11.8c0.1-1.2-0.8-1.9-0.8-1.9
					S508.7,96.9,494.1,102.2z"/>
			</g>
			<g>
				<g>
					<path class="st6" d="M506.6,52.2c3.3,1.7,6.5,3.5,9.6,5.5c1.6,1,3.1,2,4.7,3.1c1.5,1.1,3.1,2.2,4.6,3.5l0.6,0.5l0.7,0.6
						c0.5,0.4,0.9,0.9,1.3,1.3c0.4,0.4,0.7,0.8,1,1.2c0.3,0.4,0.6,0.8,0.9,1.2c1.2,1.6,2.2,3.2,3.1,4.9c1.9,3.3,3.5,6.6,4.8,10.1
						c0.6,1.6-0.2,3.3-1.8,3.9c-1.2,0.4-2.5,0.1-3.3-0.8l-0.1-0.1c-2.4-2.6-4.8-5.3-7.1-7.8c-2.3-2.5-4.7-5.1-6.7-6.2
						c-2.8-1.7-5.8-3.4-8.9-5.1l-9.2-5.1l0,0c-2.9-1.6-4-5.3-2.4-8.2C500.1,51.8,503.7,50.7,506.6,52.2z"/>
					<path class="st14" d="M506.6,52.2c3.3,1.7,6.5,3.5,9.6,5.5c1.6,1,3.1,2,4.7,3.1c1.5,1.1,3.1,2.2,4.6,3.5l0.6,0.5l0.7,0.6
						c0.5,0.4,0.9,0.9,1.3,1.3c0.4,0.4,0.7,0.8,1,1.2c0.3,0.4,0.6,0.8,0.9,1.2c1.2,1.6,2.2,3.2,3.1,4.9c1.9,3.3,3.5,6.6,4.8,10.1
						c0.6,1.6-0.2,3.3-1.8,3.9c-1.2,0.4-2.5,0.1-3.3-0.8l-0.1-0.1c-2.4-2.6-4.8-5.3-7.1-7.8c-2.3-2.5-4.7-5.1-6.7-6.2
						c-2.8-1.7-5.8-3.4-8.9-5.1l-9.2-5.1l0,0c-2.9-1.6-4-5.3-2.4-8.2C500.1,51.8,503.7,50.7,506.6,52.2z"/>
				</g>
				<g>
					<path class="st6" d="M540.8,90l-1-2.6c0,0-0.6-3.3-2.6-4.2l-6.1,1l0.2,0.5c0,0,0,0,0,0c0.6,1.3,0.1,3.4-0.4,5.2
						c-0.5,1.8,0.4,2,1.2,1.6c0.4-0.2,0.9-1,1.3-1.8c0.2,0.4,0.5,0.9,0.8,1.3l1.5,2c0.6,0.9,1.9,1.1,2.8,0.5l1.6-1.1
						C540.9,91.9,541.2,90.9,540.8,90z"/>
					<path class="st14" d="M540.8,90l-1-2.6c0,0-0.6-3.3-2.6-4.2l-6.1,1l0.2,0.5c0,0,0,0,0,0c0.6,1.3,0.1,3.4-0.4,5.2
						c-0.5,1.8,0.4,2,1.2,1.6c0.4-0.2,0.9-1,1.3-1.8c0.2,0.4,0.5,0.9,0.8,1.3l1.5,2c0.6,0.9,1.9,1.1,2.8,0.5l1.6-1.1
						C540.9,91.9,541.2,90.9,540.8,90z"/>
				</g>
			</g>
			<g>
				<g>
					<path class="st13" d="M501.5,66.1l-1.5,0.1l-9.1,21.9c0.5,0,1,0,1.5-0.1c0,0,11.8-4.4,15.4-6C505.4,77,501.5,66.1,501.5,66.1z"
						/>
					<path class="st16" d="M484.9,71.9c0.5,3.9,3.5,12.3,6,16.3c4.4-1.5,11.8-4.4,15.4-6c-2.4-5-4.9-11.9-6.3-15.9
						C496.2,66.5,487.8,69.6,484.9,71.9z"/>
				</g>
				<path class="st13" d="M493.9,76.6c-0.5,1.7-2.2,2.6-3.9,2.1c-1.7-0.5-2.6-2.2-2.1-3.9c0.5-1.7,2.2-2.6,3.9-2.1
					C493.5,73.2,494.4,75,493.9,76.6z"/>
				<path class="st18" d="M496.2,72.4c-0.2,0.5-0.7,0.8-1.3,0.7c-0.5-0.2-0.8-0.7-0.7-1.3c0.2-0.5,0.7-0.8,1.3-0.7
					C496.1,71.3,496.4,71.9,496.2,72.4z"/>
				<path class="st18" d="M498.9,71.4c-0.2,0.5-0.7,0.8-1.3,0.7c-0.5-0.2-0.8-0.7-0.7-1.3c0.2-0.5,0.7-0.8,1.3-0.7
					C498.8,70.3,499.1,70.8,498.9,71.4z"/>
				<polygon class="st19" points="502.7,80.8 491.5,85.2 490.9,83 502.1,78.6 				"/>
			</g>
		</g>
	</g>
	<g>
		<path class="st11" d="M440.9,249.2c-0.2,9.1-0.9,16.1-2,21c-1.4,6.2-3.6,10.8-6.7,13.7c-3,2.9-6.6,4.3-10.7,4.3
			c-6.2,0-11-3.4-14.3-10.2c-0.5-1.1-1-2.4-1.5-3.8c-6.9,5.9-13.4,12.4-19.3,19.4l-6.4,7.6c3.5,3.5,7.4,6.4,11.8,8.7
			c7.5,3.9,17.4,5.9,29.7,5.9c2.2,0,4.2-0.1,6.3-0.2c7.4-11,13.6-22.8,18.3-35.2l18-46.9L440.9,249.2z"/>
		<g>
			<g>
				<path class="st15" d="M278.7,313.1c6.8,6.8,21.2,21.2,21.2,21.2l59.4-55.9C338.9,270.6,299,292.8,278.7,313.1z"/>
				<path class="st15" d="M352.7,387.1c-6.8-6.8-21.2-21.2-21.2-21.2l55.9-59.4C395.2,326.9,373,366.8,352.7,387.1z"/>
				<g>
					<path class="st6" d="M433.8,253.5l23.1-44.6L412.3,232c-14.3,7.4-27.6,16.8-39.3,27.9l-76,71.6l37.3,37.3l71.6-76
						C417,281,426.4,267.8,433.8,253.5z"/>
					<path class="st20" d="M433.8,253.5l23.1-44.6L412.3,232c-14.3,7.4-27.6,16.8-39.3,27.9l-76,71.6l37.3,37.3l71.6-76
						C417,281,426.4,267.8,433.8,253.5z"/>
				</g>
				<circle class="st16" cx="386.3" cy="279.5" r="15.6"/>
				<circle class="st4" cx="386.3" cy="279.5" r="10"/>
				<polygon class="st13" points="347,355.4 310.4,318.8 340.4,290.6 375.2,325.4 				"/>
				<g>
					<path class="st6" d="M287,346.6c-27.4,2.2-36.5,19.8-39.6,43.1c-1.6,11.9-2.3,23.9-12.3,30.9c-2.8,1.9-1.4,6.2,2,6.1
						c36.8-1.1,53.9-19.1,56.1-26.7c-0.7,4.8-1.8,8.5-3,11.5c-1.2,3,2.1,5.8,4.9,4.1c10.3-6.5,23.3-18.4,24.1-37.6
						C311.6,367.2,287,346.6,287,346.6z"/>
					<path class="st12" d="M287,346.6c-27.4,2.2-36.5,19.8-39.6,43.1c-1.6,11.9-2.3,23.9-12.3,30.9c-2.8,1.9-1.4,6.2,2,6.1
						c36.8-1.1,53.9-19.1,56.1-26.7c-0.7,4.8-1.8,8.5-3,11.5c-1.2,3,2.1,5.8,4.9,4.1c10.3-6.5,23.3-18.4,24.1-37.6
						C311.6,367.2,287,346.6,287,346.6z"/>
				</g>
				<polygon class="st4" points="323.4,386.2 279.6,342.4 302.9,337.3 328.5,362.9 				"/>
			</g>
		</g>
	</g>
</g>
</svg>
