<svg width="840" height="480" xmlns="http://www.w3.org/2000/svg" version="1.1" xml:space="preserve">
 <defs>
  <linearGradient id="SVGID_1_" x1="0.49017" y1="0.01185" x2="0.50013" y2="1.01718">
   <stop offset="0" stop-color="#91B3FF"/>
   <stop offset="0.4022" stop-color="#6791F2"/>
   <stop offset="0.7939" stop-color="#3B6CE4"/>
  </linearGradient>
  <linearGradient id="SVGID_2_" x1="0.49431" y1="-0.02806" x2="0.51422" y2="1.29336">
   <stop offset="0" stop-color="#91B3FF"/>
   <stop offset="0.2484" stop-color="#6795EC"/>
   <stop offset="0.7939" stop-color="#004CBF"/>
  </linearGradient>
  <linearGradient id="SVGID_3_" x1="0.77621" y1="0.88009" x2="0.18402" y2="0.3038">
   <stop offset="0" stop-color="#EFBB81"/>
   <stop offset="0.5011" stop-color="#F79E57"/>
   <stop offset="1" stop-color="#FF7F2A"/>
  </linearGradient>
  <linearGradient id="SVGID_4_" x1="0.77152" y1="0.8808" x2="0.1793" y2="0.30446">
   <stop offset="0" stop-color="#EFBB81"/>
   <stop offset="0.5011" stop-color="#F79E57"/>
   <stop offset="1" stop-color="#FF7F2A"/>
  </linearGradient>
 </defs>
 <g>
  <title>Layer 1</title>
  <g id="svg_1">
   <g id="svg_2">
    <path class="st0" d="m517,323.8l-195,0c-3.3,0 -6,-2.7 -6,-6l0,0c0,-3.3 2.7,-6 6,-6l195,0c3.3,0 6,2.7 6,6l0,0c0,3.3 -2.7,6 -6,6z" fill="#274DA0" id="svg_3"/>
    <rect x="144.2" y="704.6" transform="matrix(-1.83697e-16 1 -1 -1.83697e-16 1058.6 178.658)" class="st0" width="46" height="12" fill="#274DA0" id="svg_4"/>
    <rect x="286.2" y="704.6" transform="matrix(-1.83697e-16 1 -1 -1.83697e-16 1200.6 36.6584)" class="st0" width="46" height="12" fill="#274DA0" id="svg_5"/>
   </g>
   <g id="svg_6">
    <g id="svg_7">
     <polygon class="st1" points="70.50000061889648,444.29998779296875 70.50000061889648,238.4999542236328 152.89999451538085,238.4999542236328 152.89999451538085,90.30000305175781 293.5000006188965,90.30000305175781 293.5000006188965,444.29998779296875 " fill="#CCDAFE" id="svg_8"/>
     <g id="svg_9">
      <rect x="166.9" y="114.8" class="st2" width="28.8" height="23" fill="#A8BEEF" id="svg_10"/>
      <rect x="210.1" y="114.8" class="st2" width="28.8" height="23" fill="#A8BEEF" id="svg_11"/>
      <rect x="253.3" y="114.8" class="st2" width="28.8" height="23" fill="#A8BEEF" id="svg_12"/>
      <rect x="166.9" y="150.8" class="st2" width="28.8" height="23" fill="#A8BEEF" id="svg_13"/>
      <rect x="210.1" y="150.8" class="st2" width="28.8" height="23" fill="#A8BEEF" id="svg_14"/>
      <rect x="253.3" y="150.8" class="st2" width="28.8" height="23" fill="#A8BEEF" id="svg_15"/>
      <rect x="166.9" y="186.7" class="st2" width="28.8" height="23" fill="#A8BEEF" id="svg_16"/>
      <rect x="210.1" y="186.7" class="st2" width="28.8" height="23" fill="#A8BEEF" id="svg_17"/>
      <rect x="253.3" y="186.7" class="st2" width="28.8" height="23" fill="#A8BEEF" id="svg_18"/>
      <rect x="166.9" y="222.7" class="st2" width="28.8" height="23" fill="#A8BEEF" id="svg_19"/>
      <rect x="210.1" y="222.7" class="st2" width="28.8" height="23" fill="#A8BEEF" id="svg_20"/>
      <rect x="253.3" y="222.7" class="st2" width="28.8" height="23" fill="#A8BEEF" id="svg_21"/>
      <rect x="166.9" y="258.7" class="st2" width="28.8" height="23" fill="#A8BEEF" id="svg_22"/>
      <rect x="123.7" y="258.7" class="st2" width="28.8" height="23" fill="#A8BEEF" id="svg_23"/>
      <rect x="80.6" y="258.7" class="st2" width="28.8" height="23" fill="#A8BEEF" id="svg_24"/>
      <rect x="210.1" y="258.7" class="st2" width="28.8" height="23" fill="#A8BEEF" id="svg_25"/>
      <rect x="253.3" y="258.7" class="st2" width="28.8" height="23" fill="#A8BEEF" id="svg_26"/>
      <rect x="166.9" y="294.7" class="st2" width="28.8" height="23" fill="#A8BEEF" id="svg_27"/>
      <rect x="123.7" y="294.7" class="st2" width="28.8" height="23" fill="#A8BEEF" id="svg_28"/>
      <rect x="80.6" y="294.7" class="st2" width="28.8" height="23" fill="#A8BEEF" id="svg_29"/>
      <rect x="210.1" y="294.7" class="st2" width="28.8" height="23" fill="#A8BEEF" id="svg_30"/>
      <rect x="253.3" y="294.7" class="st2" width="28.8" height="23" fill="#A8BEEF" id="svg_31"/>
      <rect x="166.9" y="330.6" class="st2" width="28.8" height="23" fill="#A8BEEF" id="svg_32"/>
      <rect x="123.7" y="330.6" class="st2" width="28.8" height="23" fill="#A8BEEF" id="svg_33"/>
      <rect x="80.6" y="330.6" class="st2" width="28.8" height="23" fill="#A8BEEF" id="svg_34"/>
      <rect x="210.1" y="330.6" class="st2" width="28.8" height="23" fill="#A8BEEF" id="svg_35"/>
      <rect x="253.3" y="330.6" class="st2" width="28.8" height="23" fill="#A8BEEF" id="svg_36"/>
      <rect x="166.9" y="366.6" class="st2" width="28.8" height="23" fill="#A8BEEF" id="svg_37"/>
      <rect x="123.7" y="366.6" class="st2" width="28.8" height="23" fill="#A8BEEF" id="svg_38"/>
      <rect x="80.6" y="366.6" class="st2" width="28.8" height="23" fill="#A8BEEF" id="svg_39"/>
      <rect x="210.1" y="366.6" class="st2" width="28.8" height="23" fill="#A8BEEF" id="svg_40"/>
      <rect x="253.3" y="366.6" class="st2" width="28.8" height="23" fill="#A8BEEF" id="svg_41"/>
     </g>
    </g>
    <g id="svg_42">
     <polygon class="st1" points="542.5000006188965,441.49993896484375 542.5000006188965,311.9000244140625 605.799927376709,311.9000244140625 605.799927376709,162.30001831054688 702.2999884118652,162.30001831054688 702.2999884118652,232.8000030517578 758.400025032959,232.8000030517578 758.400025032959,441.49993896484375 " fill="#CCDAFE" id="svg_43"/>
     <g id="svg_44">
      <rect x="620.2" y="181" class="st2" width="28.8" height="23" fill="#A8BEEF" id="svg_45"/>
      <rect x="660.5" y="181" class="st2" width="28.8" height="23" fill="#A8BEEF" id="svg_46"/>
      <rect x="620.2" y="324.9" class="st2" width="28.8" height="23" fill="#A8BEEF" id="svg_47"/>
      <rect x="579.9" y="324.9" class="st2" width="28.8" height="23" fill="#A8BEEF" id="svg_48"/>
      <rect x="579.9" y="360.9" class="st2" width="28.8" height="23" fill="#A8BEEF" id="svg_49"/>
      <rect x="660.5" y="324.9" class="st2" width="28.8" height="23" fill="#A8BEEF" id="svg_50"/>
      <rect x="620.2" y="217" class="st2" width="28.8" height="23" fill="#A8BEEF" id="svg_51"/>
      <rect x="660.5" y="217" class="st2" width="28.8" height="23" fill="#A8BEEF" id="svg_52"/>
      <rect x="620.2" y="252.9" class="st2" width="28.8" height="23" fill="#A8BEEF" id="svg_53"/>
      <rect x="660.5" y="252.9" class="st2" width="28.8" height="23" fill="#A8BEEF" id="svg_54"/>
      <rect x="700.8" y="252.9" class="st2" width="28.8" height="23" fill="#A8BEEF" id="svg_55"/>
      <rect x="700.8" y="288.9" class="st2" width="28.8" height="23" fill="#A8BEEF" id="svg_56"/>
      <rect x="700.8" y="324.9" class="st2" width="28.8" height="23" fill="#A8BEEF" id="svg_57"/>
      <rect x="700.8" y="360.9" class="st2" width="28.8" height="23" fill="#A8BEEF" id="svg_58"/>
      <rect x="620.2" y="288.9" class="st2" width="28.8" height="23" fill="#A8BEEF" id="svg_59"/>
      <rect x="660.5" y="288.9" class="st2" width="28.8" height="23" fill="#A8BEEF" id="svg_60"/>
      <rect x="620.2" y="360.9" class="st2" width="28.8" height="23" fill="#A8BEEF" id="svg_61"/>
      <rect x="660.5" y="360.9" class="st2" width="28.8" height="23" fill="#A8BEEF" id="svg_62"/>
     </g>
    </g>
    <g id="svg_63">
     <g id="svg_64">
      <path class="st3" d="m0,478.9c0,0 164.1,-131 411.6,-131c233.1,0 427.4,131 427.4,131s-65.5,-24.7 -204.4,-27.3c-76.3,-1.4 -132.4,24.5 -225.9,24.5c-87.8,0 -149.8,-12.1 -243.2,-15.8c-86.6,-3.6 -165.5,18.6 -165.5,18.6z" fill="url(#SVGID_1_)" id="svg_65"/>
      <path class="st4" d="m336.7,351.9c-5.5,3.8 -8.6,8.1 -8.6,12.5c0,17.1 44.8,30.9 100,30.9s100,-13.9 100,-30.9c0,-2.2 -0.8,-4.4 -2.3,-6.6c-36.5,-6.2 -74.8,-10 -114.3,-10c-25.9,0.1 -50.9,1.6 -74.8,4.1z" fill="url(#SVGID_2_)" id="svg_66"/>
      <ellipse transform="matrix(0.9596 -0.2814 0.2814 0.9596 -180.68 124.049)" class="st5" cx="330.18293" cy="403.53754" rx="46.8" ry="15.8" fill="#3B6CE4" id="svg_67"/>
      <ellipse transform="matrix(0.2923 -0.9563 0.9563 0.2923 -285.924 1037.84)" class="st5" cx="792.19897" cy="544.3724" rx="12.2" ry="30.2" fill="#3B6CE4" id="svg_68"/>
     </g>
     <g id="svg_69">
      <g id="svg_70">
       <path class="st6" d="m657.2,355.9c4.9,-5.1 7.4,-11.8 6.4,-18.6c-1.2,-8.2 -7.1,-14.6 -15.2,-17.8c0.2,-1.8 0.2,-3.7 -0.2,-5.6c-1.9,-9.1 -10.8,-15 -19.8,-13.1c-9,1.9 -14.8,10.8 -12.9,19.9c0.2,1.2 0.6,2.3 1.1,3.3c-6.9,5.4 -10.9,13.4 -9.7,21.6c0.6,3.8 2.1,7.2 4.5,10.1c-5.2,3.4 -8.4,8 -8.4,13c0,10.5 14,19 31.2,19c17.2,0 31.2,-8.5 31.2,-19c0,-4.9 -3.1,-9.4 -8.2,-12.8z" fill="url(#SVGID_3_)" id="svg_71"/>
       <g id="svg_72">
        <g id="svg_73">
         <path class="st7" d="m633.5,414.2l0,0c-0.9,-0.5 -1.5,-2.5 -1.2,-4.3c4.4,-35.6 1.3,-54.8 -0.2,-61.3c-0.4,-1.6 -0.1,-3.4 0.6,-4.4l0,0c0.9,-1.3 2.1,-0.7 2.6,1.4c1.8,8 5.1,28.9 0.4,66.1c-0.2,1.9 -1.2,3.1 -2.2,2.5z" fill="#FF7F2A" id="svg_74"/>
        </g>
       </g>
      </g>
      <g id="svg_75">
       <path class="st8" d="m713.1,402.6c2.8,-2.9 4.2,-6.7 3.7,-10.6c-0.7,-4.7 -4.1,-8.3 -8.7,-10.2c0.1,-1 0.1,-2.1 -0.1,-3.2c-1.1,-5.2 -6.2,-8.5 -11.3,-7.5c-5.2,1.1 -8.4,6.2 -7.3,11.4c0.1,0.7 0.3,1.3 0.6,1.9c-4,3.1 -6.2,7.6 -5.5,12.3c0.3,2.2 1.2,4.1 2.6,5.8c-3,1.9 -4.8,4.5 -4.8,7.4c0,6 8,10.8 17.8,10.8s17.8,-4.9 17.8,-10.8c-0.2,-2.8 -1.9,-5.4 -4.8,-7.3z" fill="url(#SVGID_4_)" id="svg_76"/>
       <g id="svg_77">
        <g id="svg_78">
         <path class="st7" d="m699.6,435.9l0,0c-0.5,-0.3 -0.8,-1.4 -0.7,-2.5c2.5,-20.3 0.8,-31.2 -0.1,-35c-0.2,-0.9 -0.1,-1.9 0.3,-2.5l0,0c0.5,-0.8 1.2,-0.4 1.5,0.8c1,4.5 2.9,16.5 0.2,37.7c-0.1,1.1 -0.7,1.8 -1.2,1.5z" fill="#FF7F2A" id="svg_79"/>
        </g>
       </g>
      </g>
     </g>
    </g>
   </g>
   <g id="svg_80">
    <path class="st5" d="m624.4,280l-409.8,0c-5.6,0 -10.1,-4.5 -10.1,-10.1l0,-259.8c0,-5.6 4.5,-10.1 10.1,-10.1l409.8,0c5.6,0 10.1,4.5 10.1,10.1l0,259.8c0,5.6 -4.6,10.1 -10.1,10.1z" fill="#3B6CE4" id="svg_81"/>
    <path class="st9" d="m634.5,50l-430,0l0,-40c0,-5.5 4.5,-10 10,-10l410,0c5.5,0 10,4.5 10,10l0,40z" fill="#5D94FA" id="svg_82"/>
    <path class="st10" d="m246.5,34l-14,0c-4.4,0 -8,-3.6 -8,-8l0,0c0,-4.4 3.6,-8 8,-8l14,0c4.4,0 8,3.6 8,8l0,0c0,4.4 -3.6,8 -8,8z" fill="#FFFFFF" id="svg_83"/>
    <path class="st10" d="m542.5,34l-270,0c-4.4,0 -8,-3.6 -8,-8l0,0c0,-4.4 3.6,-8 8,-8l270.1,0c4.4,0 8,3.6 8,8l0,0c-0.1,4.4 -3.6,8 -8.1,8z" fill="#FFFFFF" id="svg_84"/>
    <g id="svg_85">
     <circle class="st10" cx="592.4" cy="9" r="5" fill="#FFFFFF" id="svg_86"/>
     <circle class="st10" cx="608.4" cy="9" r="5" fill="#FFFFFF" id="svg_87"/>
     <circle class="st10" cx="624.4" cy="9" r="5" fill="#FFFFFF" id="svg_88"/>
    </g>
    <g id="svg_89">
     <path class="st11" d="m369.9,193.4l-13.7,0l0,29.8l-21.3,0l0,-29.8l-49,0l0,-15.5l42.9,-69.6l27.4,0l0,67.8l13.7,0l0,17.3zm-35,-17.4l0,-23.5c0,-6.7 0.6,-17.1 0.9,-23.8l-0.6,0c-2.8,6.1 -5.9,12.4 -9.2,18.7l-17.9,28.6l26.8,0z" fill="#285BBF" id="svg_90"/>
     <path class="st11" d="m381.1,165.3c0,-39.8 15.5,-59.2 39,-59.2c23.3,0 38.9,19.6 38.9,59.2c0,39.6 -15.5,60.1 -38.9,60.1c-23.5,0 -39,-20.5 -39,-60.1zm56.2,0c0,-32.2 -7.5,-41.5 -17.3,-41.5c-9.9,0 -17.4,9.3 -17.4,41.5c0,32.3 7.5,42.3 17.4,42.3c9.9,-0.1 17.3,-10 17.3,-42.3z" fill="#285BBF" id="svg_91"/>
     <path class="st11" d="m553,193.4l-13.7,0l0,29.8l-21.3,0l0,-29.8l-49,0l0,-15.5l42.9,-69.6l27.4,0l0,67.8l13.7,0l0,17.3zm-35,-17.4l0,-23.5c0,-6.7 0.6,-17.1 0.9,-23.8l-0.6,0c-2.8,6.1 -5.9,12.4 -9.2,18.7l-17.9,28.6l26.8,0z" fill="#285BBF" id="svg_92"/>
    </g>
    <g id="svg_93">
     <path class="st10" d="m369.7,187l-13.7,0l0,29.8l-21.3,0l0,-29.8l-49,0l0,-15.5l42.9,-69.6l27.4,0l0,67.8l13.7,0l0,17.3zm-35,-17.4l0,-23.5c0,-6.7 0.6,-17.1 0.9,-23.8l-0.6,0c-2.8,6.1 -5.9,12.4 -9.2,18.7l-17.8,28.6l26.7,0z" fill="#FFFFFF" id="svg_94"/>
     <path class="st10" d="m380.9,158.8c0,-39.8 15.5,-59.2 39,-59.2c23.3,0 38.9,19.6 38.9,59.2c0,39.6 -15.5,60.1 -38.9,60.1c-23.5,0.1 -39,-20.4 -39,-60.1zm56.2,0c0,-32.2 -7.5,-41.5 -17.3,-41.5c-9.9,0 -17.4,9.3 -17.4,41.5c0,32.3 7.5,42.3 17.4,42.3c9.9,0 17.3,-9.9 17.3,-42.3z" fill="#FFFFFF" id="svg_95"/>
     <path class="st10" d="m552.8,187l-13.7,0l0,29.8l-21.3,0l0,-29.8l-49,0l0,-15.5l42.9,-69.6l27.4,0l0,67.8l13.7,0l0,17.3zm-35,-17.4l0,-23.5c0,-6.7 0.6,-17.1 0.9,-23.8l-0.6,0c-2.8,6.1 -5.9,12.4 -9.2,18.7l-17.9,28.6l26.8,0z" fill="#FFFFFF" id="svg_96"/>
    </g>
    <g id="svg_97">
     <path class="st11" d="m544.7,92.2c-1.1,-0.4 -2.2,0.2 -2.6,1.3c-0.4,1.1 0.1,2.2 1.1,2.6c1.1,0.4 2.2,-0.2 2.6,-1.3c0.5,-1.1 0,-2.2 -1.1,-2.6z" fill="#285BBF" id="svg_98"/>
     <path class="st11" d="m552.2,85.6c0.9,-2.6 -0.4,-4.5 -2.8,-5.4c-1.8,-0.6 -3.5,-0.3 -5,0.5l1.1,2.1c0.9,-0.4 1.8,-0.6 2.7,-0.3c1.1,0.4 1.5,1.3 1.1,2.3c-0.7,1.9 -4.6,2 -5.3,5.4l2.6,0.9c0.7,-2.9 4.6,-2.6 5.6,-5.5z" fill="#285BBF" id="svg_99"/>
     <path class="st11" d="m565.3,93.6c-1,-1.6 -2.6,-2.4 -4.3,-2.6l-0.4,2.3c1,0.2 1.8,0.5 2.3,1.3c0.6,0.9 0.4,1.9 -0.5,2.5c-1.7,1.1 -4.9,-1.2 -7.5,1.2l1.5,2.3c2.4,-1.9 5.3,0.6 7.9,-1c2.3,-1.5 2.4,-3.8 1,-6z" fill="#285BBF" id="svg_100"/>
     <path class="st11" d="m551.5,99.9c-1,0.6 -1.3,1.8 -0.7,2.8c0.6,1 1.8,1.2 2.8,0.5c1,-0.6 1.3,-1.8 0.6,-2.8c-0.5,-0.9 -1.7,-1.1 -2.7,-0.5z" fill="#285BBF" id="svg_101"/>
     <path class="st11" d="m530.1,91.3c-1.1,0.2 -1.7,1.3 -1.5,2.5c0.3,1.1 1.3,1.8 2.4,1.6c1.1,-0.2 1.7,-1.3 1.5,-2.5c-0.3,-1.1 -1.3,-1.8 -2.4,-1.6z" fill="#285BBF" id="svg_102"/>
     <path class="st11" d="m527.6,78.7c-1.8,0.4 -3.1,1.6 -4,3.1l2.1,1.2c0.5,-0.8 1.2,-1.5 2.1,-1.7c1.1,-0.2 1.9,0.3 2.2,1.3c0.5,2 -2.8,4.2 -1.6,7.5l2.7,-0.6c-1,-2.9 2.5,-4.7 1.8,-7.7c-0.6,-2.8 -2.8,-3.7 -5.3,-3.1z" fill="#285BBF" id="svg_103"/>
    </g>
    <g id="svg_104">
     <path class="st12" d="m544.7,90.9c-1.1,-0.4 -2.2,0.2 -2.6,1.3c-0.4,1.1 0.1,2.2 1.1,2.6c1.1,0.4 2.2,-0.2 2.6,-1.3c0.5,-1 0,-2.2 -1.1,-2.6z" fill="#EFBB81" id="svg_105"/>
     <path class="st12" d="m552.2,84.4c0.9,-2.6 -0.4,-4.5 -2.8,-5.4c-1.8,-0.6 -3.5,-0.3 -5,0.5l1.1,2.1c0.9,-0.4 1.8,-0.6 2.7,-0.3c1.1,0.4 1.5,1.3 1.1,2.3c-0.7,1.9 -4.6,2 -5.3,5.4l2.6,0.9c0.7,-3 4.6,-2.7 5.6,-5.5z" fill="#EFBB81" id="svg_106"/>
     <path class="st12" d="m565.3,92.4c-1,-1.6 -2.6,-2.4 -4.3,-2.6l-0.4,2.3c1,0.2 1.8,0.5 2.3,1.3c0.6,0.9 0.4,1.9 -0.5,2.5c-1.7,1.1 -4.9,-1.2 -7.5,1.2l1.5,2.3c2.4,-1.9 5.3,0.6 7.9,-1c2.3,-1.6 2.4,-3.9 1,-6z" fill="#EFBB81" id="svg_107"/>
     <path class="st12" d="m551.5,98.6c-1,0.6 -1.3,1.8 -0.7,2.8c0.6,1 1.8,1.2 2.8,0.5c1,-0.6 1.3,-1.8 0.6,-2.8c-0.5,-0.9 -1.7,-1.1 -2.7,-0.5z" fill="#EFBB81" id="svg_108"/>
     <path class="st12" d="m530.1,90c-1.1,0.2 -1.7,1.3 -1.5,2.5c0.3,1.1 1.3,1.8 2.4,1.6c1.1,-0.2 1.7,-1.3 1.5,-2.5c-0.3,-1.1 -1.3,-1.8 -2.4,-1.6z" fill="#EFBB81" id="svg_109"/>
     <path class="st12" d="m527.6,77.4c-1.8,0.4 -3.1,1.6 -4,3.1l2.1,1.2c0.5,-0.8 1.2,-1.5 2.1,-1.7c1.1,-0.2 1.9,0.3 2.2,1.3c0.5,2 -2.8,4.2 -1.6,7.5l2.7,-0.6c-1,-2.9 2.5,-4.7 1.8,-7.7c-0.6,-2.8 -2.8,-3.7 -5.3,-3.1z" fill="#EFBB81" id="svg_110"/>
    </g>
   </g>
   <g id="svg_111">
    <path class="st13" d="m457.5,303.6l-76.1,0c-1.1,0 -2,-0.9 -2,-2l0,-42.1c0,-1.1 0.9,-2 2,-2l76.1,0c1.1,0 2,0.9 2,2l0,42.1c0,1.1 -0.9,2 -2,2z" fill="#353535" id="svg_112"/>
    <rect x="381.5" y="260.6" class="st10" width="76" height="40" fill="#FFFFFF" id="svg_113"/>
   </g>
   <g id="svg_114">
    <polygon class="st14" points="416.70001282592773,287.10003662109375 425.70001282592773,287.10003662109375 425.70001282592773,302.49993896484375 415.89999451538085,302.49993896484375 " fill="#FDCACA" id="svg_115"/>
    <path class="st14" d="m409.6,277.7c0,0 -2.4,-0.3 -2.6,1.3c-0.3,1.6 0.5,5 1.1,5.5c1,1.1 3.2,-1 3.2,-1l-1.7,-5.8z" fill="#FDCACA" id="svg_116"/>
    <path class="st14" d="m428.5,283.6c0,0 2.6,1.6 3.7,0.8s1.8,-3.4 1.8,-4.5c0,-1.1 0.3,-2.1 -1.1,-2.1s-2.1,-0.3 -2.4,0s-2,5.8 -2,5.8z" fill="#FDCACA" id="svg_117"/>
    <path class="st0" d="m398.7,345c0,0 -12.2,-6.1 -16.9,-2.6c-4.8,3.4 -5.8,4.5 -6.3,6.6c-0.5,2.1 5.3,17.2 7.4,19.8c2.1,2.6 7.4,8.5 8.5,12.2c1.1,3.7 4.8,15.6 10.6,16.4s29.8,4.2 35.1,1.3c5.3,-2.9 8.2,-7.1 9,-8.7c0.8,-1.6 1.3,-5.5 3.7,-9c2.4,-3.4 7.1,-9.8 8.5,-12.9c1.3,-3.2 3.7,-11.6 3.7,-13.7s-4,-7.9 -5.5,-9c-1.6,-1.1 -9,2.6 -10,4.2s-47.8,1.6 -47.8,1.6l0,-6.2z" fill="#274DA0" id="svg_118"/>
    <path class="st15" d="m434.4,254.1c-4.4,-7.2 -13.1,0.4 -13.7,1c-0.6,0.6 -3.6,-2.4 -10.4,1.3c-4.6,2.5 -4.5,4.1 -5.1,12.3c-0.6,8.2 3.1,9.6 3.1,9.6s0.5,0 1.3,0.1c0,1.7 0,3.6 0.1,4.9c0,0 0.4,4.7 3.8,7.3c2.5,1.8 4,2.3 6.2,2.5c3,0.2 6.6,-0.7 9.1,-4.6c0.7,-1.1 0.9,-3.7 0.9,-3.7l1.4,-7.2c3.3,-1.2 7.7,-16.4 3.3,-23.5z" fill="#63393F" id="svg_119"/>
    <path class="st16" d="m463.2,341.1c-1.3,-4.5 -4.8,-14.7 -4.8,-14.7l0,0c-1.2,-4.7 -4.4,-11 -4.8,-11.5c-0.5,-0.8 -2.7,-8 -5.9,-9.3c-6.1,-2.5 -11.8,-4.7 -13.4,-6.8c-1.6,-2.1 -5.2,-4 -5.2,-4s-5.4,1 -9.9,0.7c-4.3,-0.3 -5.8,-1.3 -6.8,-0.9c-0.3,0.1 -1.5,2.6 -3.6,3.7c-2.1,1.1 -4.2,-0.5 -18,8.7c0,0 -3.4,1.3 -6.1,9.2c-0.7,2.2 -1.1,3.8 -1.4,4.9l0,0c0,0 -4.5,14.7 -5.8,19.1c-0.7,2.3 0.1,3.7 1,4.5c0.8,-0.7 1.9,-1.5 3.2,-2.4c3.4,-2.4 10.4,-0.1 14.3,1.5c0,3.9 1.3,8.7 -2.1,15.7c-3.4,7.1 -1.1,24 2.1,28.3c3.2,4.2 7.7,7.9 8.7,7.9c0,0 21.1,2.6 27.7,1.1c6.6,-1.6 11.6,-12.7 12.4,-14.3c0.8,-1.6 5.5,-10.3 3.7,-15.1c-1.8,-4.8 -5,-6.9 -5,-6.9s0.5,-4.9 1,-10.7c0.9,-0.1 1.5,-0.3 1.6,-0.4c1.1,-1.6 8.5,-5.3 10,-4.2c0.5,0.3 1.1,1 1.9,2l2.3,-0.6c0.1,0 4.2,-1 2.9,-5.5zm-69.1,-9.4c0.3,1.2 1.2,4.6 1.6,8l-4,-2.1l2.4,-5.9zm51.5,8.6c0.4,-4.3 0.7,-7.8 0.7,-8.2c0,-0.2 0,-0.3 0.1,-0.3l2.7,6.7l-3.5,1.8z" fill="#DBEEFE" id="svg_120"/>
    <path class="st17" d="m420.3,299.3c0,0 5.8,0.1 8.2,-0.6c2.4,-0.7 3.9,-1.8 3.9,-1.8l-3.2,-2c0,0 -4.6,0.8 -8.2,0.7c-3.6,0 -8.5,-1.4 -8.5,-1.2c0,0.2 -2.7,3.1 -2.7,3.1s7,1.7 10.5,1.8z" fill="#B9D8ED" id="svg_121"/>
    <polygon class="st18" points="391.29998841186523,344.5999755859375 396.29998841186523,350.5999755859375 396.29998841186523,348.99993896484375 396.20001282592773,346.49993896484375 " fill="#173872" id="svg_122"/>
    <polygon class="st18" points="444.400025032959,353.10003662109375 447.400025032959,351.10003662109375 444.20001282592773,355.10003662109375 " fill="#173872" id="svg_123"/>
    <polygon class="st17" points="392.0000006188965,336.79998779296875 387.6000067224121,338.9000244140625 393.29998841186523,338.39996337890625 391.79998841186523,337.5999755859375 " fill="#B9D8ED" id="svg_124"/>
    <polygon class="st17" points="448.400025032959,336.79998779296875 452.400025032959,338.99993896484375 447.900025032959,338.99993896484375 449.0000006188965,338.39996337890625 " fill="#B9D8ED" id="svg_125"/>
    <polygon class="st17" points="393.89999451538085,332.39996337890625 394.1000067224121,331.699951171875 394.29998841186523,332.39996337890625 393.89999451538085,323.5999755859375 " fill="#B9D8ED" id="svg_126"/>
    <polygon class="st17" points="446.20001282592773,332.99993896484375 445.599976204834,320.29998779296875 446.900025032959,333.29998779296875 446.29998841186523,331.79998779296875 " fill="#B9D8ED" id="svg_127"/>
   </g>
  </g>
 </g>
</svg>