<svg xmlns="http://www.w3.org/2000/svg" xmlns:xlink="http://www.w3.org/1999/xlink" viewBox="0 0 1166.58 674.91"><defs><style>.cls-1,.cls-12,.cls-19,.cls-21,.cls-22,.cls-23,.cls-5{fill:none;}.cls-2{clip-path:url(#clip-path);}.cls-3{fill:#fff;}.cls-4{fill:#a0c6f4;}.cls-19,.cls-5{stroke:#2a1e17;}.cls-12,.cls-19,.cls-21,.cls-23,.cls-5{stroke-linecap:round;stroke-linejoin:round;}.cls-12,.cls-21,.cls-22,.cls-23,.cls-5{stroke-width:1.8px;}.cls-6{fill:#2a1e17;}.cls-7{fill:#f9865f;}.cls-8{fill:#2a1e33;}.cls-9{fill:#7595ec;}.cls-10{fill:#ff8a66;}.cls-11{fill:#fff7c9;}.cls-12{stroke:#2a1e33;}.cls-13{fill:#ff6d66;}.cls-14{fill:#fad8b0;}.cls-15{fill:#c6cbcb;}.cls-16{fill:#fff7dc;}.cls-17{fill:#ffe1c0;}.cls-18{fill:#91ba83;}.cls-19{stroke-width:1.21px;}.cls-20{fill:#96bd89;}.cls-21{stroke:#ff6d66;}.cls-22{stroke:#fad8b0;stroke-miterlimit:10;}.cls-23{stroke:#a0c6f4;}</style><clipPath id="clip-path" transform="translate(0 0)"><rect class="cls-1" width="1166.58" height="674.91"/></clipPath></defs><title>Asset 1</title><g id="Layer_2" data-name="Layer 2"><g id="Layer_1-2" data-name="Layer 1"><g id="Artwork_7" data-name="Artwork 7"><g class="cls-2"><g class="cls-2"><path class="cls-3" d="M584.38,184.53c-58.32-54.67-126.64-68.77-144.7-71.65,12.16-32.81,31-81.59,35.64-88.82a70.17,70.17,0,0,1,9.13-.52c13.27,0,41.66,2.76,82.73,21.25,59,26.53,75.12,56.71,78.31,64.08Z" transform="translate(0 0)"/><path class="cls-4" d="M484.44,27.14c13,0,40.8,2.72,81.27,20.93,53.66,24.15,71,51.14,75.57,60.28L584,179.27c-34.48-31.38-71.64-48.72-97.34-57.85A271,271,0,0,0,444.57,110c13.44-36.12,28.07-73.3,33-82.6,1.59-.15,3.9-.29,6.89-.29m0-7.2a60.57,60.57,0,0,0-10.92.76c-4.22,1.41-38.77,95.12-38.77,95.12s82,8.36,150,74l64.87-80.32s-10.83-36.46-80.94-68C527.58,23,498.94,19.94,484.44,19.94" transform="translate(0 0)"/><path class="cls-5" d="M446.79,123.1s80.65,8.14,130.34,53.76" transform="translate(0 0)"/><polygon class="cls-4" points="516.43 119.16 546.51 60.66 577.43 121.67 516.43 119.16"/><polygon class="cls-5" points="522.28 118.33 552.36 59.83 583.28 120.84 522.28 118.33"/><path class="cls-5" d="M494,16.39s90.42,8.14,146.62,74.94" transform="translate(0 0)"/><path class="cls-6" d="M540.24,275.62c-5-3.65-8.23-6.1-8.23-6.1,1.38-1.84,23.14-25,35.74-43.7,0,0-25.48,51.29-27.51,49.8" transform="translate(0 0)"/><path class="cls-5" d="M231.92,106.65c2.43,4,3.5,2.43,10.5,1.89s17,4.57,20.47,13.19,2.42,10,.53,11-15.34,2.69-15.88,5.38" transform="translate(0 0)"/><polygon class="cls-7" points="413.31 544.88 407.04 534.28 384.78 571.37 390.62 575.86 413.31 544.88"/><path class="cls-7" d="M265.54,452.9S254,434.15,259,425l36.78,3.93Z" transform="translate(0 0)"/><path d="M265.54,452.9l2.21,5.07-6.8,26.5a9.07,9.07,0,0,0,2.86,9.12l33.64-49.73a11.57,11.57,0,0,0-1.71-15l-7.51-7Z" transform="translate(0 0)"/><path class="cls-8" d="M247.54,138.15c10.53-.25,23.89-.91,21.21-8.92s-12.68-28-35.37-22c0,0-8,6.67,2,18.69s12.16,12.26,12.16,12.26" transform="translate(0 0)"/><path class="cls-9" d="M300.86,429.35s-18-53.1-2.76-76.41c12.56-19.25,53.59,12.05,59.21,16.27l29.36-53s-6.78-9.51-23.42-18.81-85.38-37.16-117.68,13.8c-11.94,18.84-12.12,99.67,10.77,130.65Z" transform="translate(0 0)"/><path class="cls-5" d="M300.86,429.35s-18-53.1-2.76-76.41c12.56-19.25,53.59,12.05,59.21,16.27" transform="translate(0 0)"/><path class="cls-9" d="M386.67,316.19c-13.35,14.05-52.94,82.52-61.84,115.25-11.91,43.77-7.43,80.08,58,151.16l31.64-46.07s-22.24-33.78-18.09-65.62c6-46.06,38.78-90.72,55.37-119Z" transform="translate(0 0)"/><polygon class="cls-6" points="391.69 322.13 444.32 363.44 460.05 339.53 391.69 322.13"/><path class="cls-10" d="M694,278.71q12.31,2.64,18.76,9.38c4.3,4.49,2.34,6.84.78,8.21s-7.62-.2-12.9-4.89-6.64-12.7-6.64-12.7" transform="translate(0 0)"/><path class="cls-7" d="M532,269.52c1.38-1.84,23.14-25,35.74-43.7,0,0,38.08,42.67,42.2,44.05,1.54.51,10.87.38,22.47.26,19.59-.2,45.63-.39,51.4,2.49,9.17,4.59,14.67,6.88,17,13.3s3.2,10.62-2.3,11c-6.42.46-10.54-7.8-10.54-7.8s-5.25,3.17-18.81,8.26c0,0-48.8,18.94-81.42,9.78-8.9-2.5-55.71-37.65-55.71-37.65" transform="translate(0 0)"/><path class="cls-7" d="M236.23,99.11c-4.19,1.6-6.73,3.5-4.31,7.54s3.5,2.43,10.5,1.89,17,4.57,20.47,13.19,2.42,10,.53,11-15.34,2.69-15.88,5.38,5.45,10.65,17.84,10.11l3-.54s26.05,25.44,29.82,29.21,31.47,22.53,46.73,26.35c11.6,2.9,35.1-.84,49.22-3.6,6.86-1.33,11.5-2.44,11.5-2.44S395,178.15,392.86,148.8c0,0-25.35,4.08-42.2,7.77,0,0-39.31-21.92-58.43-31.61,0,0-16.69-20.46-24.5-23.15s-25.85-4.85-31.5-2.7" transform="translate(0 0)"/><path class="cls-6" d="M394.11,199.68c6.86-1.33,11.5-2.44,11.5-2.44s-12.81-16.16-15-45.51c0,0-5.79,6.25-4,22.87,2.26,20.89,7.46,25.08,7.46,25.08" transform="translate(0 0)"/><path class="cls-11" d="M390,148.45s.35,35.86,10,50.82l3.45-1.38s-45.28,53-59.92,87.59c-2.4,5.66,94,67.24,108.25,66.38,0,0,47-71.69,63-92.94l17.26,13.38s33.87-34.3,35.69-46.48c0,0-32.71-39.8-59.47-51.45s-50.68-31.62-79.42-31.08c-24.88.47-38.84,5.16-38.84,5.16" transform="translate(0 0)"/><polygon class="cls-6" points="532.06 272.3 514.8 258.92 517.55 251.42 532.06 272.3"/><path class="cls-7" d="M558.33,130.49c-3,9.4-11.76,36.6-21.49,40s-19.88-.86-19.88-.86l-10.37,5.3c-1.16,3.48-9.35,6.47-19.92,6.87-7.83.3-12.6-9.75-10.28-17,1.07-3.35,5-19.82,5-19.82s8.39-30.89,16.12-37.27,15-12.7,35.59-4.36c31.57,12.76,25.19,27.2,25.19,27.2" transform="translate(0 0)"/><path class="cls-8" d="M495.75,131.82c-1.39,5.78-7.39,17.32-11.32,15.25s-5.31-7.39-2.54-17.56S487,96.26,494.83,92.1s11.31.69,11.31.69-3.46-16.85,6.7-19.16c0,0,3.46-1.62,2.08,9.93,0,0,3.92-10.63,16.63-9.24s17.08,19.17,17.08,19.17.93-4.85,6.7-4.85,14.55,8.54,12.47,18c0,0,14.78-4.62,22.64,7.16s6.92,24.71-12,29.79c-19.8,5.31-19.63-17.78-22.64-20.78s-6.23-6.47-17.32-2.31-22.63-8.09-22.63-8.09-1.84,14.78-3.69,16.17-5.55,3.23-4.62-3.69,2.08-6.24,1.38-8.09-3.82-7.67-10.39-2.54c-7.39,5.78-2.77,17.55-2.77,17.55" transform="translate(0 0)"/><path class="cls-12" d="M498.89,134.41c-4.4-3.7-7.46-10.22-3.58-16.74s10.22-7.4,12.16-4.93,2.69,6.62.86,11.55" transform="translate(0 0)"/><path d="M390.63,575.86l2.2,5.07-6.8,26.5a9.09,9.09,0,0,0,2.86,9.12l33.65-49.73a11.57,11.57,0,0,0-1.71-15l-7.52-7Z" transform="translate(0 0)"/><path class="cls-12" d="M506.14,92.79s-2.57-8.38-10.29-10.58" transform="translate(0 0)"/><line class="cls-5" x1="342.45" y1="282.95" x2="435.66" y2="152.75"/><path class="cls-5" d="M474.08,161.86c-3.36,4.36-4.89,23.15,10.56,24.37S510,180.66,510,180.66" transform="translate(0 0)"/><path class="cls-5" d="M267.73,101.81s10.66,14.1,12.33,19.12" transform="translate(0 0)"/><path class="cls-5" d="M666.65,290.86s7.12,5.86,21.29-1.73c5.15-2.75,1.48-9.25-5-7.63s-14.24-.81-14.24-.81" transform="translate(0 0)"/><path class="cls-5" d="M696.39,279.52s6.83,8,6.64,12.7" transform="translate(0 0)"/><path class="cls-5" d="M595.89,278.66s6.17-8.23,14.06-8.79" transform="translate(0 0)"/><path class="cls-5" d="M335.51,169.87s3.6-11.23,15.15-13.3" transform="translate(0 0)"/><path class="cls-5" d="M366.81,340.28,353,366.64S307.6,443.53,323,493.2" transform="translate(0 0)"/><path class="cls-5" d="M407.06,428.49l44.7-76.63s58.59-85,64.59-97L537,216.64" transform="translate(0 0)"/><path class="cls-5" d="M348.69,291.11s79.5,58,103.07,60.75" transform="translate(0 0)"/><path class="cls-5" d="M390,148.45s-.07,36.37,9.73,51.28" transform="translate(0 0)"/><path class="cls-5" d="M565.2,220.06c-2.5,15-35.69,46.47-35.69,46.47" transform="translate(0 0)"/><path class="cls-6" d="M322.31,402.05a4.72,4.72,0,1,1-4.72-4.72,4.73,4.73,0,0,1,4.72,4.72" transform="translate(0 0)"/><polygon class="cls-5" points="760.46 503.48 757.85 485.42 773.25 495.66 765.19 497.42 760.46 503.48"/><path class="cls-5" d="M249.73,195.26c-29.19-25.75-77.41,38.46,99,242.82C450.57,556,530.55,566.55,541.39,525.53c19.43-73.58-50.76-92.18-24.64-63.36,38,41.91,146,50.76,226.51,11.65,79.43-38.59,30.61-98.51,25.68-102" transform="translate(0 0)"/><path class="cls-6" d="M749.25,473.46a4.72,4.72,0,1,1-4.72-4.72,4.72,4.72,0,0,1,4.72,4.72" transform="translate(0 0)"/><line class="cls-5" x1="675.84" y1="511.98" x2="815.76" y2="433.12"/><path class="cls-6" d="M257.36,199.07a4.72,4.72,0,1,1-4.72-4.72,4.72,4.72,0,0,1,4.72,4.72" transform="translate(0 0)"/><path class="cls-13" d="M383.12,101.62A10.13,10.13,0,1,1,373,91.49a10.13,10.13,0,0,1,10.12,10.13" transform="translate(0 0)"/><path class="cls-4" d="M189.23,24.38a4.45,4.45,0,1,0,4.46,4.45,4.45,4.45,0,0,0-4.46-4.45" transform="translate(0 0)"/><path class="cls-14" d="M790.2,572.85a4.45,4.45,0,1,1-4.45-4.46,4.45,4.45,0,0,1,4.45,4.46" transform="translate(0 0)"/><path class="cls-8" d="M706.21,371.79l-47.86-22.46a5,5,0,0,1,.11-9l89-39.18a5,5,0,0,1,4,0l61.15,26.24Z" transform="translate(0 0)"/><path class="cls-15" d="M703.24,298c.13,19.8,3,73.81,3,73.81l106.4-44.45-2.38-75.15a6.46,6.46,0,0,0-9.14-5.67l-91.62,41.74a10.64,10.64,0,0,0-6.23,9.72" transform="translate(0 0)"/><path class="cls-5" d="M706.21,371.79l106.4-44.45-2.38-75.15s-.71-8.21-9.14-5.68" transform="translate(0 0)"/><line class="cls-5" x1="757.71" y1="317.78" x2="764.89" y2="300.79"/><line class="cls-5" x1="764.89" y1="317.78" x2="772.08" y2="300.79"/><path class="cls-13" d="M212.88,498.55a4.45,4.45,0,1,1-4.45-4.45,4.45,4.45,0,0,1,4.45,4.45" transform="translate(0 0)"/><path class="cls-13" d="M590,520.61a6.19,6.19,0,1,1-6.19-6.19,6.19,6.19,0,0,1,6.19,6.19" transform="translate(0 0)"/><path class="cls-16" d="M254.56,564.56a132.11,132.11,0,0,0,56.22,12.05,2.53,2.53,0,0,1,2.51,2.86l-3.88,30.82a2.54,2.54,0,0,1-2.05,2.18c-7.88,1.48-39.64,5.84-63.4-14.3a2.55,2.55,0,0,1-.79-2.59L251,566.2a2.53,2.53,0,0,1,3.54-1.64" transform="translate(0 0)"/><path class="cls-5" d="M257.35,573.62s13.73,19.28,18.62,22,31.31-13,31.31-13" transform="translate(0 0)"/><line class="cls-5" x1="288.91" y1="592.97" x2="303.33" y2="607.79"/><line class="cls-5" x1="268.88" y1="590.12" x2="252.02" y2="594.7"/><rect class="cls-17" x="679.9" y="199.88" width="16.11" height="16.11"/><polygon class="cls-4" points="682.08 417.14 686.87 425.43 691.65 433.72 682.08 433.72 672.51 433.72 677.29 425.43 682.08 417.14"/><path class="cls-5" d="M295,49.8l1.25-37.64c-.13-3.52,1.3-4.64,3.46-5.11,10.23-2.27,41.31-9.2,75.12.8,4.37,1.29,4.23,3.6,4.16,5.68l-1.21,35.89c-.09,2.64-2.84,4.54-5.91,4.09-9.87-1.44-23.3-1.89-36.93-1.77-14.09.12-26.64,1.16-35.43,2.86C296.14,55.24,294.88,52.74,295,49.8Z" transform="translate(0 0)"/><path class="cls-5" d="M306.36,44.3l19.67-23,21.79,21.5C340.31,40.31,306.36,44.3,306.36,44.3Z" transform="translate(0 0)"/><polyline class="cls-5" points="338.1 31.93 354.01 19.19 367.41 28.76 367.91 43.72 347.82 42.76"/><path class="cls-5" d="M314.92,19c.21,1.82-1.35,3.38-3.47,3.5a3.88,3.88,0,0,1-4.23-3.07c-.21-1.82,1.35-3.38,3.47-3.5A3.88,3.88,0,0,1,314.92,19Z" transform="translate(0 0)"/><path class="cls-5" d="M675.49,538.86l13.2,24.38c1.39,2.18.9,3.42-.3,4.53-5.65,5.24-22.82,21.2-48,27.42-3.26.8-4-.72-4.76-2.07l-12.57-23.25c-.93-1.7.11-3.94,2.23-4.79,6.81-2.75,15.51-7.46,24.12-12.6a154,154,0,0,0,21.44-15C672.73,535.84,674.46,537,675.49,538.86Z" transform="translate(0 0)"/><path class="cls-5" d="M670.31,546.59l-3.94,21.94L644.55,563C650.22,561.74,670.31,546.59,670.31,546.59Z" transform="translate(0 0)"/><polyline class="cls-5" points="654.75 566.24 649.38 580.24 637.3 579.15 631.42 569.83 644.54 562.98"/><path class="cls-5" d="M674.29,565.86a2.47,2.47,0,0,1,.9-3.51,2.85,2.85,0,0,1,3.83.38,2.47,2.47,0,0,1-.91,3.51A2.84,2.84,0,0,1,674.29,565.86Z" transform="translate(0 0)"/><path class="cls-3" d="M611.23,122.74l53.63,41.05a2.65,2.65,0,0,0,3.74-.53l8.1-11a2.63,2.63,0,0,0-.48-3.64l-52.87-42.31a2.65,2.65,0,0,0-3.8.52l-8.86,12.23a2.66,2.66,0,0,0,.54,3.66" transform="translate(0 0)"/><path class="cls-5" d="M611.23,122.74l53.63,41.05a2.65,2.65,0,0,0,3.74-.53l8.1-11a2.63,2.63,0,0,0-.48-3.64l-52.87-42.31a2.65,2.65,0,0,0-3.8.52l-8.86,12.23A2.66,2.66,0,0,0,611.23,122.74Z" transform="translate(0 0)"/><polygon class="cls-13" points="615.2 120.91 628.21 130.03 635.88 120.87 622.87 110.02 615.2 120.91"/><polygon class="cls-14" points="633.1 133.59 646.13 143.92 653.11 135.34 640 124.7 633.1 133.59"/><polygon class="cls-4" points="650.51 147.89 663.51 157.02 669.71 149.06 657.39 138.75 650.51 147.89"/><path class="cls-3" d="M718.24,65.35l12.22,102.7a4.06,4.06,0,0,0,4.58,3.54l20.69-2.83a4.06,4.06,0,0,0,3.49-4.41l-10-103.22a4.05,4.05,0,0,0-4.62-3.62l-22.89,3.35a4.05,4.05,0,0,0-3.44,4.49" transform="translate(0 0)"/><path class="cls-5" d="M718.24,65.35l12.22,102.7a4.06,4.06,0,0,0,4.58,3.54l20.69-2.83a4.06,4.06,0,0,0,3.49-4.41l-10-103.22a4.05,4.05,0,0,0-4.62-3.62l-22.89,3.35A4.05,4.05,0,0,0,718.24,65.35Z" transform="translate(0 0)"/><polygon class="cls-13" points="724.49 67.75 728.36 91.77 746.61 90.41 744.63 64.55 724.49 67.75"/><polygon class="cls-18" points="729.69 100.95 732.25 126.27 749.13 124.76 746.81 99.02 729.69 100.95"/><polygon class="cls-14" points="732.58 135.32 736.45 159.34 751.8 157.64 749.96 133.11 732.58 135.32"/><path class="cls-3" d="M691.56,87.22l33.85,99.47a3.22,3.22,0,0,0,4.14,2l21.2-7.63a3.22,3.22,0,0,0,2-4L721,76.59a3.23,3.23,0,0,0-4.19-2.06L693.5,83.15a3.24,3.24,0,0,0-1.94,4.07" transform="translate(0 0)"/><path class="cls-5" d="M691.56,87.22l33.85,99.47a3.22,3.22,0,0,0,4.14,2l21.2-7.63a3.22,3.22,0,0,0,2-4L721,76.59a3.23,3.23,0,0,0-4.19-2.06L693.5,83.15A3.24,3.24,0,0,0,691.56,87.22Z" transform="translate(0 0)"/><polygon class="cls-4" points="698.43 89.03 707.22 111.72 724.79 106.6 717.47 81.71 698.43 89.03"/><polygon class="cls-7" points="710.42 120.42 718.2 144.66 734.39 139.67 726.77 114.97 710.42 120.42"/><polygon class="cls-14" points="720.39 153.44 729.18 176.13 743.84 171.28 736.94 147.66 720.39 153.44"/><path class="cls-9" d="M436.51,255.73H265.61a9.87,9.87,0,0,1-9.87-9.88V222.74a9.86,9.86,0,0,1,9.87-9.87h170.9a9.87,9.87,0,0,1,9.87,9.87v23.11a9.87,9.87,0,0,1-9.87,9.88" transform="translate(0 0)"/><path class="cls-3" d="M372.48,232H279.31a3.26,3.26,0,0,1,0-6.52h93.17a3.26,3.26,0,0,1,0,6.52" transform="translate(0 0)"/><line class="cls-5" x1="276.98" y1="240.46" x2="435.36" y2="240.46"/><path class="cls-18" d="M198.64,135.2,196,132.25,187,140.4l2.7,3a3.05,3.05,0,0,0,4.31.19l4.42-4a3.05,3.05,0,0,0,.19-4.32" transform="translate(0 0)"/><rect class="cls-5" x="176.03" y="117.06" width="15.42" height="22.37" rx="1.76" ry="1.76" transform="translate(-38.42 157.48) rotate(-42.41)"/><rect class="cls-13" x="142.44" y="189.72" width="15.97" height="14.58"/><polyline class="cls-5" points="142.44 180.34 142.44 189.72 132.89 189.72"/><rect class="cls-14" x="668.49" y="25.08" width="15.97" height="14.58"/><polyline class="cls-5" points="668.49 15.7 668.49 25.08 658.94 25.08"/><path class="cls-5" d="M236.33,115.2C70.8,46.58-56.64,178.73,255.4,381.1,280,397,317.65,402.63,317.65,402.63" transform="translate(0 0)"/><path class="cls-6" d="M88.81,119.81a4.72,4.72,0,1,1-4.73-4.72,4.72,4.72,0,0,1,4.73,4.72" transform="translate(0 0)"/><polygon class="cls-5" points="54.05 93.9 59.21 88.94 71.09 95.74 77.06 114.16 58.83 106.53 54.05 93.9"/><polygon class="cls-5" points="59.21 88.94 54.05 93.9 51.15 90.39 56.11 85.64 59.21 88.94"/><line class="cls-5" x1="77.06" y1="114.16" x2="65.2" y2="101.13"/><path class="cls-3" d="M105.75,444.6l12.87,66.3a2.64,2.64,0,0,0,3.15,2.09l13.34-2.83a2.65,2.65,0,0,0,2.06-3L125.7,440.38a2.63,2.63,0,0,0-3.18-2.14l-14.74,3.27a2.65,2.65,0,0,0-2,3.09" transform="translate(0 0)"/><path class="cls-5" d="M105.75,444.6l12.87,66.3a2.64,2.64,0,0,0,3.15,2.09l13.34-2.83a2.65,2.65,0,0,0,2.06-3L125.7,440.38a2.63,2.63,0,0,0-3.18-2.14l-14.74,3.27A2.65,2.65,0,0,0,105.75,444.6Z" transform="translate(0 0)"/><polygon class="cls-13" points="109.94 445.87 113.61 461.33 125.42 459.57 122.9 442.82 109.94 445.87"/><polygon class="cls-14" points="114.91 467.24 117.79 483.61 128.71 481.82 125.97 465.16 114.91 467.24"/><polygon class="cls-4" points="118.43 489.49 122.1 504.95 132.02 503.1 129.64 487.21 118.43 489.49"/><polygon class="cls-5" points="474.18 610.77 528.56 596.21 530.63 602.1 475.64 616.38 474.18 610.77"/><line class="cls-5" x1="466.64" y1="603.16" x2="468.21" y2="608.1"/><line class="cls-5" x1="465.11" y1="606.38" x2="469.69" y2="604.81"/><line class="cls-5" x1="464" y1="622.02" x2="466.96" y2="631.33"/><line class="cls-5" x1="461.48" y1="627.92" x2="469.65" y2="625.32"/><line class="cls-5" x1="451.57" y1="606.65" x2="455.43" y2="618.98"/><line class="cls-5" x1="447.74" y1="614.33" x2="459.19" y2="610.67"/><polygon class="cls-19" points="77.71 20.08 43.3 4.54 44.73 0.6 79.33 16.54 77.71 20.08"/><line class="cls-19" x1="78.4" y1="27.23" x2="79.68" y2="24"/><line class="cls-19" x1="80.56" y1="26.21" x2="77.51" y2="25.08"/><line class="cls-19" x1="87.77" y1="18.56" x2="90.19" y2="12.47"/><line class="cls-19" x1="91.59" y1="16.57" x2="86.25" y2="14.44"/><line class="cls-19" x1="87.7" y1="31.82" x2="90.93" y2="23.77"/><line class="cls-19" x1="92.95" y1="29.46" x2="85.45" y2="26.49"/><path class="cls-14" d="M206.3,310.67c-24.25-17.46-48.08-44.6-37.63-72.47,0,0,16.73-11.15,43.21,2.79l26.48,13.93Z" transform="translate(0 0)"/><path class="cls-3" d="M195.31,427c-10.91-5.16-57.51-29.42-65.81-70.87-7.16-35.82,20.23-84.1,33.95-105.43C162.57,279,191,303,204.72,312.86c13.9,10,24.12,14.9,38.22,20.2Z" transform="translate(0 0)"/><path class="cls-14" d="M161.36,259.13c3,18.82,17.34,38.33,41.78,55.92a146.08,146.08,0,0,0,36,19.46L194.1,423.42c-13.74-6.83-54.38-30-61.95-67.81-6.28-31.45,15-73.16,29.21-96.48m7.31-20.93s-51.57,69.68-41.81,118.47,69.68,73.86,69.68,73.86l50.18-98.95c-15.68-5.75-25.87-10.43-40.42-20.91-24.25-17.46-48.08-44.6-37.63-72.47" transform="translate(0 0)"/><path class="cls-5" d="M155.11,278.69s3,28,31,43" transform="translate(0 0)"/><line class="cls-5" x1="201.1" y1="331.68" x2="229.09" y2="346.68"/><path class="cls-5" d="M159.11,318.69s9,20,38,33" transform="translate(0 0)"/><path class="cls-5" d="M136.11,321.69s1,21,15,28" transform="translate(0 0)"/><path class="cls-5" d="M168.11,248.7s-2.6,27,38.19,62" transform="translate(0 0)"/><path class="cls-5" d="M183.1,253.7s13-1,32,13" transform="translate(0 0)"/><path class="cls-5" d="M122,339.79c-.83,13.37.84,61.84,71,92.76" transform="translate(0 0)"/><path class="cls-18" d="M570.24,312.82l-29.78,59.67s20.2,7.44,4.41,30.59c0,0,37.33,15.48,61.75-24.73s-36.38-65.53-36.38-65.53" transform="translate(0 0)"/><path class="cls-3" d="M502.09,495.19c-15.07,0-31-6.15-47.3-18.29l55.7-92.28,33.13,20.86.22.09a51,51,0,0,0,18.09,3.14,49.94,49.94,0,0,0,29.22-9.24l-40.72,69.66c-.09.14-17.62,26.06-48.34,26.06Z" transform="translate(0 0)"/><path class="cls-20" d="M511.38,388.37,542,407.65l.39.24.42.18a54.43,54.43,0,0,0,19.13,3.34,53.17,53.17,0,0,0,21.78-4.57l-35.52,60.78c-1.16,1.69-17.66,24.87-46.1,24.87-13.87,0-28.56-5.48-43.71-16.32l53-87.8m95.24-10C592.82,401.07,574.9,406,561.93,406a48.7,48.7,0,0,1-17.06-2.93l-35.26-22.21-58.38,96.71c19.54,15.07,36.6,20.31,50.86,20.31,32.62,0,50.67-27.4,50.67-27.4Z" transform="translate(0 0)"/><path class="cls-5" d="M540.46,372.5s22.21,7.84,4.41,30.58" transform="translate(0 0)"/><path class="cls-5" d="M508.91,378.8s30.25,27.71,47,27.52,36.38-4.17,48-24.15" transform="translate(0 0)"/><path class="cls-5" d="M512.62,414.65s20.77,18.44,44,12.51" transform="translate(0 0)"/><path class="cls-5" d="M534.43,442.2s10.9,8.16,26.13.44" transform="translate(0 0)"/><path class="cls-5" d="M484.32,453.56s25.14,25,64.7,8.51" transform="translate(0 0)"/><path class="cls-5" d="M498,429.18s10.25,7.33,16.68,9.67" transform="translate(0 0)"/><path class="cls-5" d="M575.35,330.14s22.95,7.51,25.7,37.79" transform="translate(0 0)"/><path class="cls-5" d="M586.89,367.56s10.56,16.35-7.3,32.7" transform="translate(0 0)"/><path class="cls-5" d="M453.35,482.15S511,531.5,552.8,473.79" transform="translate(0 0)"/><line class="cls-21" x1="37.4" y1="294.19" x2="50.83" y2="294.19"/><line class="cls-21" x1="785.75" y1="132.61" x2="799.18" y2="132.61"/><line class="cls-22" x1="425.49" y1="40.44" x2="438.92" y2="40.44"/><line class="cls-22" x1="811.4" y1="202.29" x2="824.62" y2="204.67"/><line class="cls-23" x1="283.69" y1="537.5" x2="297.12" y2="537.5"/><path class="cls-18" d="M844.79,370a4.45,4.45,0,1,1-4.45-4.45,4.46,4.46,0,0,1,4.45,4.45" transform="translate(0 0)"/><path class="cls-18" d="M8.9,156.51a4.45,4.45,0,1,1-4.45-4.45,4.45,4.45,0,0,1,4.45,4.45" transform="translate(0 0)"/><path class="cls-5" d="M1162.14,495.57s37.07-110.36-128.64-45.25C861.23,518,792.43,659.94,820.65,671.14s70.26-14.07,70.26-14.07" transform="translate(0 0)"/></g></g></g></g></g></svg>