<svg width="285" height="48" viewBox="0 0 285 48" fill="none" xmlns="http://www.w3.org/2000/svg"><path d="M29.0238 41.4669C36.8664 32.7747 35.7554 21.0761 26.0174 14.3445L33.9908 6.17511C26.4749 -1.60215 11.9007 -2.38642 4.90771 5.84834C-2.47743 14.6713 -1.49711 25.1935 8.04476 32.84L0.398196 40.8787C8.5676 50.0285 22.3576 48.9174 29.0238 41.4669Z" fill="#4187ED"/><path d="M35.4919 46.4339H79.8028L57.6473 0.0317248L35.4919 46.4339Z" fill="#51B581"/><path d="M104.625 0.685276H85.0189V46.4339H104.625V39.8984C115.409 39.8984 124.232 31.1408 124.232 20.2265C124.232 9.50824 115.409 0.685276 104.625 0.685276Z" fill="#F9A03F"/><path d="M129.44 46.4339H149.047V0.685276H129.44V46.4339Z" fill="#F72586"/><path d="M177.917 47.2624C186.533 47.2624 194.901 42.4571 199.043 34.0893L178.331 23.733H201.198C201.198 10.5598 190.758 0.0378319 177.917 0.0378319C164.744 0.0378319 154.222 10.5598 154.222 23.733C154.222 36.6576 164.744 47.2624 177.917 47.2624Z" fill="#9B51E0"/><path d="M206.291 46.4339H229.166V38.526L245.505 46.4339V0.685276H222.63V8.5279L206.291 0.685276V46.4339Z" fill="#FFC43D"/><path d="M279.73 41.4669C287.573 32.7747 286.462 21.0761 276.724 14.3445L284.697 6.17511C277.181 -1.60215 262.607 -2.38642 255.614 5.84834C248.229 14.6713 249.209 25.1935 258.751 32.84L251.105 40.8787C259.274 50.0285 273.064 48.9174 279.73 41.4669Z" fill="#4187ED"/></svg>
