<?xml version="1.0" encoding="utf-8"?>
<!-- Generator: Adobe Illustrator 27.2.0, SVG Export Plug-In . SVG Version: 6.00 Build 0)  -->
<svg version="1.1" id="Layer_1" xmlns="http://www.w3.org/2000/svg" xmlns:xlink="http://www.w3.org/1999/xlink" x="0px" y="0px"
	 viewBox="0 0 840 480" style="enable-background:new 0 0 840 480;" xml:space="preserve">
<style type="text/css">
	.st0{fill:#CAD6DF;}
	.st1{fill:#442F7D;}
	.st2{fill:#5D44A3;}
	.st3{fill:#F45D8F;}
	.st4{fill:#F2BA9A;}
	.st5{fill:#C78D6C;}
	.st6{fill:#F1E2CD;}
	.st7{fill:#A83F36;}
	.st8{fill:#1A191F;}
	.st9{fill:#D45B51;}
	.st10{opacity:0.2;fill:#C1272D;}
	.st11{fill:#4B4E54;}
	.st12{fill:#BA3A64;}
	.st13{fill:#363440;}
	.st14{fill:#407BFF;}
	.st15{fill:#93A3A6;}
	.st16{fill:#BCC7C9;}
	.st17{fill:#E5F4E9;}
	.st18{fill:#EBF7EE;}
</style>
<g>
	<path class="st0" d="M666.2,384.5c0,9.2-7.4,16.6-16.6,16.6H190.4c-9.2,0-16.6-7.4-16.6-16.6V21.1c0-9.2,7.4-16.6,16.6-16.6h459.3
		c9.2,0,16.6,7.4,16.6,16.6V384.5z"/>
	<g>
		<path class="st1" d="M499.6,113c-5.1,6.7-4,9.4-2.3,18.6c1.6,9.2-8.7,13.3-1.4,26c7.4,12.7,11.9,9.3,21.6,21
			c9.7,11.7,34.6,3.4,39.8,4.9c5.2,1.5,11.2,1.5,16.3-4.1c5.1-5.6,10.7-12.6,18.4-15.6c-18.2-16.1-55.5-53.6-59.3-55.9
			C528.8,105.6,506.6,105.3,499.6,113z"/>
		<path class="st2" d="M502.9,103.2c-15.1,9.4-4.1,22.3-7.2,31.4c-3.1,9-9.6,16.5-1.5,26.5c8.1,10,16,11.7,16,11.7l5.9-0.8
			c-9.8-11.5-17.9-19.5-12.4-33.5c5.5-13.9-3.6-27.2-3.6-27.2L502.9,103.2z"/>
		<g>
			<path class="st1" d="M506.8,166.9c-0.1,0-0.2,0-0.3-0.1c-10.7-6.2-9.5-14.4-8.3-23c0.7-5.3,1.5-10.7-0.4-16.1
				c-3.3-9.2-1.7-15.1,0.5-16.3c0.3-0.2,0.6,0,0.8,0.2c0.2,0.3,0,0.6-0.2,0.8c-1.5,0.8-3.1,6,0.1,14.8c2,5.6,1.2,11.2,0.5,16.7
				c-1.2,8.6-2.3,16,7.7,21.8c0.3,0.2,0.4,0.5,0.2,0.8C507.2,166.8,507,166.9,506.8,166.9z"/>
		</g>
		<path class="st3" d="M515.1,177.7c-8.9-7.3-17.9-14.7-26.8-22c-5-4.1-9.9-8.1-14.9-12.2c-0.4-0.4-2.2-1.4-2.3-2
			c-0.5-2.8-1-5.5-1.5-8.3c-0.2-4.7-7.1-4.8-10.4-4.3c-3.4,0.5-12,2.7-11.3,7.6c0.5,4,0.9,8,1.4,12c0.4,3.6,2.1,6.2,4.7,8.6
			c5.9,5.4,11.8,10.8,17.7,16.2c7.3,6.7,14.6,13.3,21.8,20c1.5,1.4,3,2.7,4.5,4.1c5.2,4.7,13.4,4.5,18.3-0.6
			C521.4,191.3,520.8,182.5,515.1,177.7z"/>
		<path class="st4" d="M467.4,132.7c-0.7-4.4-6.5-41.1-6.5-47.9s5.5-15.7,3.1-17.2c-2.4-1.5-4.7,5.5-4.7,5.5
			c-0.7-12.3,0-16.2-2.4-16.5c-2.4-0.3-2,3.1-2,3.1c-0.4-3.9-1.5-4.9-3-4.1c-0.9,0.4-1.2,3.4-1.2,3.4c-0.7-3.4-5.4-2.8-1.5,15.3
			c0-15.8-2.4-13.4-3.1-11.6c-1.4,3.3,1.5,17.8,1.5,17.8c-0.1,7.5,0.3,38.4,2.7,56.3C451.4,141.4,468.1,137.1,467.4,132.7z"/>
		<g>
			<path class="st5" d="M455.7,71.9c-0.3,0-0.5-0.2-0.6-0.5c0-0.4-1.2-9.4-0.9-12.9c0-0.3,0.3-0.6,0.6-0.5c0.3,0,0.6,0.3,0.5,0.6
				c-0.3,3.3,0.9,12.5,0.9,12.6C456.4,71.5,456.1,71.8,455.7,71.9C455.8,71.9,455.8,71.9,455.7,71.9z"/>
		</g>
		<g>
			<path class="st5" d="M453.5,79.5c-0.1,0-0.1,0-0.2,0c-0.3-0.1-0.5-0.4-0.4-0.7c0.4-1.5,2-4.2,4.9-4.2l1-2.8
				c0.1-0.3,0.4-0.5,0.8-0.4c0.3,0.1,0.5,0.5,0.4,0.8l-1.3,3.7l-0.5-0.1c-3-0.4-4.1,3.2-4.1,3.3C454,79.3,453.7,79.5,453.5,79.5z"/>
		</g>
		<g>
			<path class="st5" d="M448.6,75c-0.2,0-0.3-0.1-0.5-0.2c-0.2-0.3-0.2-0.6,0.1-0.8c2.2-1.8,7-3.2,9.8-3.4c0.3,0,0.6,0.2,0.6,0.6
				c0,0.3-0.2,0.6-0.6,0.6c-2.8,0.1-7.3,1.7-9.1,3.1C448.8,75,448.7,75,448.6,75z"/>
		</g>
		<g>
			<path class="st5" d="M452.1,72.6c-0.3,0-0.5-0.2-0.6-0.4c-0.7-2.7-1.1-8.5-1.3-11.7c0-0.8-0.1-1.4-0.1-1.7c0-0.3,0.2-0.6,0.5-0.6
				c0.3,0,0.6,0.2,0.6,0.5c0,0.4,0.1,1,0.1,1.7c0.2,3.1,0.5,8.9,1.2,11.4c0.1,0.3-0.1,0.6-0.4,0.7C452.2,72.6,452.1,72.6,452.1,72.6
				z"/>
		</g>
		<path class="st3" d="M490.5,157.7c12,6.8,19.6,9.2,24.8,8.8c6.1-0.4-12.8,24.5-12.8,24.5S494.1,172,490.5,157.7z"/>
		<path class="st4" d="M506.1,430.4c0.3,12.5,1.8,28.4,0.9,38c0,4.1-19.4,6.4-19,9.6c0.4,3.2,36.1,3.6,37.1,0.8
			c0.1-8-1.3-26,0.4-47.5L506.1,430.4z"/>
		<path class="st4" d="M642.6,418.3c-9.3-7.6-23.2-17.1-36.4-29.3c-5.5,6.2-9.7,9.2-15.8,14.8c9.1,6.8,22.4,15.7,36.1,22.7
			c4.7,4.7-2.3,21.1-1.3,22.7C626.8,450,645.6,424.1,642.6,418.3z"/>
		<path class="st3" d="M497.3,178c0.3-4.2,21.6-16.9,40.8-14.3c27.6,3.9,26,9.8,30,27.3c2.5,10.6,2.6,23.5,4.2,30.9
			c2.4,11.5,15.7,27.9-3.4,29.8c-16,1.6-56.8,8.1-68.7-2.2c-9.1-7.9,3.6-13.2-3.6-54.3C494.6,184.1,497.3,178,497.3,178z"/>
		<path class="st4" d="M603.7,250.9c0.3,3.4,2.6,27-0.5,34.3c-3.2,7.3-5.7,15.5-4.8,20.5c0.9,5,2.7,3.5,3.4,2.7
			c0.9,4.4,3.3,2.5,3.5,0.8c1.9,1.5,3.4-0.8,3.3-3c2.8,2.7,3.6-0.2,3.6-3.9c0-3.8,0.3-6.2,3.4-13.8c3.7-9.3,1.1-33.6,0.7-38.2
			C616,245.9,603.4,247.5,603.7,250.9z"/>
		<g>
			<path class="st5" d="M609,307.5c-0.2,0-0.3-0.1-0.4-0.2c-1.8-2-0.5-8,1.1-14.4l0.2-0.7c0.1-0.3,0.4-0.5,0.7-0.4
				c0.3,0.1,0.5,0.4,0.4,0.7l-0.2,0.7c-1,4.1-2.9,11.6-1.4,13.3c0.2,0.2,0.2,0.6,0,0.8C609.3,307.4,609.1,307.5,609,307.5z"/>
		</g>
		<g>
			<path class="st5" d="M605.3,309.9c-0.2,0-0.4-0.1-0.5-0.2c-2.3-3,0.4-15.9,1.5-18.4c0.1-0.3,0.5-0.4,0.8-0.3
				c0.3,0.1,0.4,0.5,0.3,0.8c-1.3,3-3.4,14.9-1.6,17.2c0.2,0.3,0.1,0.6-0.1,0.8C605.6,309.9,605.5,309.9,605.3,309.9z"/>
		</g>
		<g>
			<path class="st5" d="M601.9,309.1c-0.2,0-0.4-0.1-0.5-0.4c-1.7-4.1,0.3-12.5,1.4-17l0.2-0.8c0.1-0.3,0.4-0.5,0.7-0.4
				c0.3,0.1,0.5,0.4,0.4,0.7l-0.2,0.8c-1,4.1-3,12.5-1.4,16.3c0.1,0.3,0,0.6-0.3,0.8C602,309.1,602,309.1,601.9,309.1z"/>
		</g>
		<path class="st3" d="M621.3,247.8c-1-10.2-0.1-22.2-7.9-29.8c-14.1-13.9-29.5-26.5-44.4-39.4c-4-3.5-8.5-8.9-13.7-10.6
			c-7.4-2.5-15.5,2.3-16.9,9.9c-1.2,6.1,2.1,10.6,6.6,14.1c6.7,5.3,13.4,10.6,20,16c7.6,6.1,15.1,12.2,22.6,18.3
			c3.1,2.6,6.3,5.1,9.3,7.8c0.8,4.1,1.5,8.1,2,12.2c1.3,9.5,2.2,9.6,9.4,9C618.1,254.6,621.7,252.8,621.3,247.8z"/>
		<path class="st6" d="M523,161.3c-2.7,0.7-8.7,3.2-9.2,5c-1.1,3.6-0.4,14.1,0.8,15.3c1.6,1.6,6.5-2.1,8.9-5.5
			c2.4,9.7,4.8,7.3,8.6,5.5c6-2.9,13.8-12.9,13.2-15.9c-0.7-3.4-7.9-5.2-7.9-5.2L523,161.3z"/>
		<polyline class="st4" points="532.8,144.6 539.1,163.4 518.6,168.6 515.9,150.4 		"/>
		<path class="st4" d="M502.6,140.8c1.6,9.6,10.6,16.1,20.3,14.6l0,0c9.6-1.6,16.1-10.6,14.6-20.3l-3-18.4
			c-1.6-9.6-10.6-16.1-20.3-14.6l0,0c-9.6,1.6-16.1,10.6-14.6,20.3L502.6,140.8z"/>
		<path class="st5" d="M517.3,159.8l-0.7-4.6c1.3,0.1,3.1,0,4.2-0.1c4.8-0.5,8.9-3,11.8-6.4C531.1,152.4,526.3,158.6,517.3,159.8z"
			/>
		<g>
			<path class="st2" d="M523.2,119.4c-0.2,0-0.5-0.1-0.7-0.3c-1.3-1.2-3.9-2.2-6.2-1.6c-0.5,0.1-1-0.2-1.2-0.7
				c-0.1-0.5,0.2-1,0.7-1.2c2.6-0.7,5.9,0.2,7.9,2.1c0.4,0.4,0.4,1,0.1,1.4C523.7,119.3,523.5,119.4,523.2,119.4z"/>
		</g>
		<g>
			<path class="st2" d="M501.5,123.7c-0.1,0-0.1,0-0.2,0c-0.5-0.1-0.8-0.6-0.7-1.2c0.5-2,2.8-4.1,5-4.4c0.5-0.1,1,0.3,1.1,0.8
				c0.1,0.5-0.3,1-0.8,1.1c-1.3,0.2-3.1,1.7-3.3,2.9C502.4,123.4,502,123.7,501.5,123.7z"/>
		</g>
		<g>
			<path class="st5" d="M514.6,136.1c-0.1,0-0.2,0-0.3-0.1l-3.8-2.6c-0.2-0.1-0.3-0.3-0.3-0.5c0-0.2,0.1-0.4,0.2-0.5l3.2-2.3
				c0.3-0.2,0.6-0.1,0.8,0.1c0.2,0.3,0.1,0.6-0.1,0.8l-2.5,1.8l3.1,2.1c0.3,0.2,0.3,0.6,0.2,0.8
				C514.9,136.1,514.7,136.1,514.6,136.1z"/>
		</g>
		<path class="st7" d="M520.1,136.9c2.6,9.8-5.6,10.8-7.7,3.6L520.1,136.9z"/>
		<path class="st8" d="M517.7,129.4c0.5,1.1,1.8,1.5,2.9,0.9c1.1-0.5,1.5-1.8,0.9-2.9c-0.5-1.1-1.8-1.5-2.9-0.9
			C517.6,127,517.2,128.3,517.7,129.4z"/>
		<path class="st8" d="M505.1,131.6c0.5,1.1,1.8,1.5,2.9,0.9c1.1-0.5,1.5-1.8,0.9-2.9c-0.5-1.1-1.8-1.5-2.9-0.9
			C504.9,129.3,504.5,130.6,505.1,131.6z"/>
		<g>
			<path class="st8" d="M505.5,131.2c-0.1,0-0.2,0-0.3-0.1l-2.2-1c-0.3-0.1-0.5-0.5-0.3-0.9c0.1-0.3,0.5-0.5,0.9-0.3l2.2,1
				c0.3,0.1,0.5,0.5,0.3,0.9C506,131.1,505.7,131.2,505.5,131.2z"/>
		</g>
		<g>
			<path class="st8" d="M520.5,128.7c-0.2,0-0.4-0.1-0.5-0.2c-0.2-0.3-0.2-0.7,0.1-0.9l2-1.8c0.3-0.2,0.7-0.2,0.9,0.1
				c0.2,0.3,0.2,0.7-0.1,0.9l-2,1.8C520.8,128.6,520.6,128.7,520.5,128.7z"/>
		</g>
		<path class="st9" d="M520.6,140.1c-2.5,0.5-5.2,1.8-6.4,3.7C516.8,146.5,520.8,145.3,520.6,140.1z"/>
		<path class="st2" d="M588.3,144.6c-7.2-1.6-13.8,3.7-15.7-7.2c-1.9-10.9-16-6-20.5-14.1c-4.3-7.7-15.5-33.6-37-24.9
			c0,0-6.8,0.9-12.3,4.9c-4.8,8.6-3.3,10.1-3.4,13.7c1-4.1,3.1-5.3,3.1-5.3c7.4-4.7,20.4-0.6,25.5,10.6c5.1,11.2,7.8,24.3,19.4,26.9
			c11.6,2.6,14.2-1.8,19.7,6.1c5.5,7.9,5.3,14.2,17.1,13c5.6-4.8,17.2-4.4,20.2-11.6C594.8,155.1,595.5,146.2,588.3,144.6z"/>
		<g>
			<path class="st1" d="M584.6,166.6c0,0-0.1,0-0.1,0c-7.9-1.6-9.3-6.6-10.8-11.9c-1.8-6.4-3.9-13.6-17.9-17.1
				c-19.5-4.8-28.8-16.1-34.7-25.3c-3.8-6-7.8-6.8-10.5-6.5c-3.6,0.4-6.5,3.2-7.4,5.7c-0.1,0.3-0.4,0.5-0.8,0.4
				c-0.3-0.1-0.5-0.4-0.4-0.8c1-2.8,4.2-6,8.3-6.4c3-0.4,7.5,0.6,11.6,7.1c5.8,9.1,15,20.1,34,24.8c14.7,3.6,16.8,11.2,18.7,17.9
				c1.5,5.2,2.7,9.6,9.9,11.1c0.3,0.1,0.5,0.4,0.5,0.7C585.1,166.4,584.8,166.6,584.6,166.6z"/>
		</g>
		<g>
			<path class="st1" d="M598.3,160.8c-0.1,0-0.2,0-0.3-0.1c-5.7-3.8-10.2-4.8-12.9-5.4c-0.8-0.2-1.4-0.3-1.9-0.5
				c-7.8-2.5-9.1-6.3-10.5-10.3c-1.1-3.2-2.3-6.5-7-9.7c-3.5-2.4-6.1-3.3-8.4-4.1c-4.9-1.7-8.8-3.1-16.9-16.2
				c-4.9-8.1-10.5-12.8-16.6-14c-6.4-1.3-11.7,1.6-14.3,3.5c-0.3,0.2-0.6,0.1-0.8-0.1c-0.2-0.3-0.1-0.6,0.1-0.8
				c2.7-2,8.4-5.1,15.2-3.7c6.4,1.3,12.3,6.2,17.4,14.6c7.8,12.8,11.3,14,16.2,15.7c2.4,0.8,5.1,1.8,8.7,4.3c5,3.4,6.3,7.1,7.5,10.3
				c1.4,3.8,2.5,7.2,9.8,9.5c0.5,0.1,1.1,0.3,1.8,0.4c2.8,0.6,7.4,1.6,13.3,5.5c0.3,0.2,0.3,0.5,0.2,0.8
				C598.7,160.7,598.5,160.8,598.3,160.8z"/>
		</g>
		<g>
			<path class="st1" d="M506.8,110.6c-0.1,0-0.2,0-0.3-0.1c-0.3-0.2-0.4-0.5-0.2-0.8c1.3-2.1,5.7-4.2,9.1-2.7
				c0.3,0.1,0.4,0.5,0.3,0.8c-0.1,0.3-0.5,0.4-0.8,0.3c-2.8-1.2-6.5,0.5-7.7,2.3C507.2,110.5,507,110.6,506.8,110.6z"/>
		</g>
		<path class="st4" d="M518.4,168.1c1,6.3,5.3,6.6,9.1,6.1c6.9-0.8,12.8-6,11.6-10.8C537.8,158.6,518.4,168.1,518.4,168.1z"/>
		<g>
			<path class="st1" d="M562.5,142.7c-0.1,0-0.2,0-0.3-0.1c-3.6-2.1-8.2-2.7-12.7-3.3c-7.1-1-13.8-1.9-16.5-8.2
				c-0.1-0.3,0-0.6,0.3-0.8c0.3-0.1,0.6,0,0.8,0.3c2.5,5.7,8.8,6.6,15.6,7.5c4.5,0.6,9.3,1.3,13.1,3.5c0.3,0.2,0.4,0.5,0.2,0.8
				C562.9,142.6,562.7,142.7,562.5,142.7z"/>
		</g>
		<g>
			<path class="st5" d="M449.1,74.3c-0.3,0-0.5-0.2-0.6-0.5c-0.1-0.4-1.2-9.7-1.3-11.5c0-0.3,0.2-0.6,0.6-0.6c0.3,0,0.6,0.2,0.6,0.6
				c0.1,1.7,1.3,11.3,1.3,11.4C449.7,74,449.5,74.3,449.1,74.3C449.1,74.3,449.1,74.3,449.1,74.3z"/>
		</g>
		<path class="st10" d="M528.1,132.2c0.5,1.5-0.7,3.3-2.7,4.1c-2.1,0.7-4.2,0.1-4.7-1.4c-0.5-1.5,0.7-3.3,2.7-4.1
			C525.4,130,527.5,130.7,528.1,132.2z"/>
		<path class="st10" d="M510.1,137c-0.1,1.6-2,2.8-4.1,2.6c-2.2-0.1-3.9-1.6-3.8-3.2c0.1-1.6,2-2.8,4.1-2.6
			C508.6,134,510.3,135.4,510.1,137z"/>
		<path class="st11" d="M582.7,350.5c-7.1-31.2-2.8-45.4-7.1-73.4c-2.4-15.7-5.1-22.7-6.7-27.1c-24,9.2-59-7.2-59.2-3.7
			c-0.2,8,2.8,24.6,2.8,24.6s-11,93.8-8.5,166.6c0.1,1.3,23.3,0.3,23.8-0.9c4-50.8,11.5-126.8,14.3-140.5
			c6.9,50.6,7.5,80.7,50.4,111.4c2.8,1.3,19-15,18.4-16.3C598,379.9,586.3,366.5,582.7,350.5z"/>
		<g>
			<path class="st12" d="M497.7,206.1c-0.3,0-0.6-0.3-0.6-0.6c-0.2-9.2,0.2-16.3,0.4-19.4c0-0.3,0.3-0.6,0.6-0.6
				c0.3,0,0.6,0.3,0.6,0.6c-0.2,3-0.6,10.1-0.4,19.3C498.3,205.8,498,206.1,497.7,206.1C497.7,206.1,497.7,206.1,497.7,206.1z"/>
		</g>
		<g>
			<path class="st12" d="M577.9,218.4c-0.1,0-0.3,0-0.4-0.1c-2.7-2.3-7.8-5.7-12.4-8.6c-4-2.7-7.5-5-8.6-6c-0.2-0.2-0.2-0.6,0-0.8
				c0.2-0.2,0.6-0.2,0.8,0c1,1,4.6,3.3,8.4,5.9c4.5,3,9.7,6.4,12.5,8.7c0.2,0.2,0.3,0.6,0.1,0.8
				C578.3,218.3,578.1,218.4,577.9,218.4z"/>
		</g>
		<g>
			<path class="st12" d="M464.3,149.9c-0.2,0-0.4-0.1-0.5-0.3c-0.2-0.3-0.1-0.6,0.2-0.8c0.1,0,5.3-3.5,5.8-8.6
				c0-0.3,0.3-0.6,0.7-0.5c0.3,0,0.6,0.3,0.5,0.7c-0.6,5.7-6.1,9.4-6.4,9.5C464.5,149.9,464.4,149.9,464.3,149.9z"/>
		</g>
		<g>
			<path class="st12" d="M596.9,234.7c-0.2,0-0.4-0.1-0.5-0.3c-0.2-0.3,0-0.6,0.2-0.8c3.9-2.1,9.1-3.9,9.3-3.9
				c0.3-0.1,0.6,0.1,0.7,0.4c0.1,0.3-0.1,0.6-0.4,0.7c-0.1,0-5.3,1.8-9.1,3.8C597.1,234.6,597,234.7,596.9,234.7z"/>
		</g>
		<g>
			<path class="st12" d="M599.1,234.9c-0.3,0-0.6-0.2-0.6-0.5c0-0.3,0.2-0.6,0.5-0.7l6.7-0.8c0.3,0,0.6,0.2,0.7,0.5
				c0,0.3-0.2,0.6-0.5,0.7L599.1,234.9C599.1,234.9,599.1,234.9,599.1,234.9z"/>
		</g>
		<g>
			<path class="st13" d="M538.8,256.7c-12.6,0-22.5-1.8-27.5-3l-0.3-0.1c-0.3-0.1-0.5-0.4-0.4-0.7c0.1-0.3,0.4-0.5,0.7-0.4l0.3,0.1
				c8.5,1.9,31,5.8,57.1-0.6c0.3-0.1,0.6,0.1,0.7,0.4c0.1,0.3-0.1,0.6-0.4,0.7C558,255.8,547.8,256.7,538.8,256.7z"/>
		</g>
		<g>
			<path class="st13" d="M543,302.4c-0.3,0-0.6-0.2-0.6-0.5l-1.7-17.5l-13.2-3.1c-0.3-0.1-0.5-0.4-0.4-0.7c0.1-0.3,0.4-0.5,0.7-0.4
				l13.6,3.2c0.2,0.1,0.4,0.3,0.5,0.5l1.8,18C543.6,302.1,543.4,302.4,543,302.4C543.1,302.4,543,302.4,543,302.4z"/>
		</g>
		<g>
			<path class="st13" d="M512.8,276.3c-0.3,0-0.5-0.2-0.6-0.5c0-0.3,0.2-0.6,0.5-0.7c0.2,0,4.9-0.7,4.8-6.1
				c-0.1-2.3-0.4-11.7-0.7-14.1c0-0.3,0.2-0.6,0.5-0.7c0.3,0,0.6,0.2,0.7,0.5c0.3,2.5,0.6,12,0.7,14.3
				C518.9,275.4,513,276.2,512.8,276.3C512.9,276.2,512.9,276.3,512.8,276.3z"/>
		</g>
		<g>
			<path class="st13" d="M565.8,276.8c-2.7,0-6.5-0.3-8.4-1.7c-2.3-1.7-3.7-8.5-5-15.8c-0.3-1.4-0.5-2.7-0.7-3.5
				c-0.1-0.3,0.1-0.6,0.4-0.7c0.3-0.1,0.6,0.1,0.7,0.4c0.2,0.9,0.4,2.1,0.7,3.5c0.9,5,2.4,13.4,4.5,15c2.7,2.1,10.6,1.4,10.7,1.4
				c0.3,0,0.6,0.2,0.6,0.5c0,0.3-0.2,0.6-0.5,0.6C568.8,276.7,567.5,276.8,565.8,276.8z"/>
		</g>
		<g>
			<path class="st13" d="M606.9,394.5c-0.1,0-0.2,0-0.3-0.1c-29.7-20.9-31.2-38.8-33.7-68.6c-0.2-2-0.3-4-0.5-6.1
				c-0.4-5-0.8-9.6-1.2-13.9c-2.1-24.8-3.2-38.4-7.5-52.9c-0.1-0.3,0.1-0.6,0.4-0.7c0.3-0.1,0.6,0.1,0.7,0.4
				c4.3,14.5,5.5,28.2,7.6,53.1c0.4,4.3,0.8,8.9,1.2,13.9c0.2,2.1,0.4,4.1,0.5,6.1c2.5,30.4,4,47.1,33.2,67.7
				c0.3,0.2,0.3,0.6,0.1,0.8C607.3,394.4,607.1,394.5,606.9,394.5z"/>
		</g>
		<g>
			<path class="st13" d="M523.3,436.5C523.3,436.5,523.3,436.5,523.3,436.5c-0.3,0-0.6-0.3-0.6-0.6c0.2-28.6,12.7-143.7,13.8-152.6
				c0-0.3,0.3-0.6,0.7-0.5c0.3,0,0.6,0.3,0.5,0.7c-1.1,8.9-13.6,123.9-13.8,152.4C523.9,436.3,523.6,436.5,523.3,436.5z"/>
		</g>
		<g>
			<path class="st13" d="M507,434.2c-0.8,0-1.4,0-1.9,0c-0.3,0-0.6-0.3-0.6-0.6c0-0.3,0.3-0.6,0.6-0.6c3.8,0.2,15.4-0.4,21-1
				c0.3,0,0.6,0.2,0.6,0.5c0,0.3-0.2,0.6-0.5,0.6C521.4,433.7,512,434.2,507,434.2z"/>
		</g>
		<g>
			<path class="st13" d="M591,405.2c-0.2,0-0.4-0.1-0.5-0.4c-0.1-0.3,0-0.6,0.3-0.8c2.6-1.1,11.3-8.6,16.1-15.6
				c0.2-0.3,0.6-0.3,0.8-0.2c0.3,0.2,0.3,0.6,0.2,0.8c-4.7,6.8-13.5,14.7-16.6,16C591.1,405.2,591,405.2,591,405.2z"/>
		</g>
		<g>
			<path class="st13" d="M537.3,278.9C537.3,278.9,537.3,278.9,537.3,278.9c-3.3-0.4-5.4-1.2-5.5-1.2c-0.2-0.1-0.3-0.3-0.4-0.5
				c0-0.2-2.6-16.3-3.2-22.3l-0.7-5c0-0.3,0.2-0.6,0.5-0.7c0.3,0,0.6,0.2,0.7,0.5l0.7,5c0.5,5.5,2.7,19.5,3.1,21.9
				c0.6,0.2,2.1,0.6,4.1,0.9c-1-7.6-3.4-26.3-3.4-26.5c0-0.3,0.2-0.6,0.5-0.7c0.3,0,0.6,0.2,0.7,0.5c0,0.2,2.6,20.2,3.6,27.2
				c0,0.2,0,0.4-0.2,0.5C537.6,278.9,537.5,278.9,537.3,278.9z"/>
		</g>
		<g>
			<path class="st13" d="M522.3,255.8C522.2,255.8,522.2,255.8,522.3,255.8l-2.6-0.4c-0.3,0-0.5-0.2-0.5-0.5
				c-0.1-0.6-0.8-5.9-0.6-7.3c0-0.3,0.4-0.6,0.7-0.5c0.3,0,0.5,0.3,0.5,0.7c-0.1,1,0.3,4.7,0.5,6.6l1.4,0.2l0.2-6.1
				c0-0.3,0.3-0.6,0.6-0.6c0,0,0,0,0,0c0.3,0,0.6,0.3,0.6,0.6l-0.2,6.7c0,0.2-0.1,0.3-0.2,0.4C522.5,255.7,522.4,255.8,522.3,255.8z
				"/>
		</g>
		<g>
			<path class="st13" d="M543.8,256.2c-0.3,0-0.5-0.2-0.6-0.5l-0.7-3.1c-0.1-0.3,0.1-0.6,0.4-0.7c0.3-0.1,0.6,0.1,0.7,0.4l0.7,3.1
				c0.1,0.3-0.1,0.6-0.4,0.7C543.9,256.2,543.9,256.2,543.8,256.2z"/>
		</g>
		<g>
			<path class="st13" d="M546.9,255.7c-0.3,0-0.5-0.2-0.6-0.5l-0.3-2.2c0-0.3,0.2-0.6,0.5-0.7c0.3,0,0.6,0.2,0.7,0.5l0.3,2.2
				C547.5,255.4,547.3,255.7,546.9,255.7C546.9,255.7,546.9,255.7,546.9,255.7z"/>
		</g>
		<circle class="st13" cx="531" cy="252.1" r="1.2"/>
		<g>
			<path class="st12" d="M550,253.4c-11.1,0-19.4-2.4-26.1-4.3c-7.5-2.1-13.4-3.8-19.2-1.2c-0.3,0.1-0.6,0-0.8-0.3
				c-0.1-0.3,0-0.6,0.3-0.8c6.2-2.8,12.3-1.1,20.1,1.1c10.4,3,24.5,7,46.7,1.6c0.3-0.1,0.6,0.1,0.7,0.4c0.1,0.3-0.1,0.6-0.4,0.7
				C563.1,252.7,556.1,253.4,550,253.4z"/>
		</g>
		<path class="st2" d="M501.1,472.3c-5.7,2-13.3,3.6-13.1,5.6c0.4,3.2,36.1,3.6,37.1,0.8c0-1.7,0-3.7-0.1-6.2
			c-4.5,1.9-12.3,3.7-21,4.5C506.7,473.8,504.2,472.6,501.1,472.3z"/>
		<path class="st2" d="M626.9,436c-1.1,5.9-3.6,13.4-1.7,14.1c2.9,1.2,21.2-29.4,19.3-31.7c-1.4-0.8-3.2-1.9-5.4-3
			c-0.1,3.1-3,12.5-6.7,20.5C631,431.9,628.6,433.4,626.9,436z"/>
		<g>
			<path class="st5" d="M635,422.4c-0.3,0-0.6-0.2-0.6-0.6c-0.1-2-0.5-4.7-1.6-6.9c-0.1-0.3,0-0.6,0.3-0.8c0.3-0.1,0.6,0,0.8,0.3
				c1.2,2.3,1.6,5.3,1.7,7.3C635.6,422.1,635.4,422.4,635,422.4C635,422.4,635,422.4,635,422.4z"/>
		</g>
		<g>
			<path class="st5" d="M516.9,473.3c-0.2,0-0.4-0.1-0.5-0.3c-0.2-0.3-0.1-0.6,0.2-0.8c1.6-1,3.2-3.1,4.1-4.7
				c0.2-0.3,0.5-0.4,0.8-0.2c0.3,0.2,0.4,0.5,0.2,0.8c-1,1.7-2.7,4-4.5,5.1C517.2,473.2,517,473.3,516.9,473.3z"/>
		</g>
	</g>
	<g>
		<g>
			<path class="st14" d="M424.5,44.7c-0.4,0-0.8-0.2-1-0.6L417.2,34c-0.3-0.6-0.2-1.3,0.4-1.6c0.6-0.3,1.3-0.2,1.6,0.4l6.2,10.1
				c0.3,0.6,0.2,1.3-0.4,1.6C424.9,44.6,424.7,44.7,424.5,44.7z"/>
		</g>
		<g>
			<path class="st14" d="M441.6,43.6c-0.6,0-1.1-0.5-1.2-1.1l-1-15.4c0-0.7,0.4-1.2,1.1-1.3c0.7,0,1.2,0.4,1.3,1.1l1,15.4
				C442.9,43,442.4,43.6,441.6,43.6C441.7,43.6,441.7,43.6,441.6,43.6z"/>
		</g>
		<g>
			<path class="st14" d="M459.2,44.5c-0.3,0-0.5-0.1-0.7-0.3c-0.5-0.4-0.6-1.1-0.2-1.7l7.3-9.3c0.4-0.5,1.1-0.6,1.7-0.2
				c0.5,0.4,0.6,1.1,0.2,1.7l-7.3,9.3C459.9,44.3,459.6,44.5,459.2,44.5z"/>
		</g>
	</g>
	<g>
		<g>
			<g>
				<path class="st15" d="M243.4,427.2c-8.2,0-14.1-2.1-17.8-6.4c-3.9-4.5-5.2-11.2-4-20.1l25.2-189.6c1.2-8.9,11.8-15.6,24.7-15.6
					c0.7,0,1.4,0,2.1,0.1l71.1,4c6,0.3,11.6,2.3,15.7,5.4c4.6,3.5,6.8,8.3,6.3,13.1l-22.8,189.6c-1.1,8.9-11.2,16.4-23.6,17.5
					c-0.7,0.1-1.4,0.1-2.1,0.1c-0.5,0-55.5,1.7-73.8,2C244.1,427.2,243.7,427.2,243.4,427.2z M271.6,200.2
					c-10.4,0-19.2,5.1-20.1,11.5l-25.2,189.6c-1,7.5-0.1,12.9,2.9,16.3c2.8,3.2,7.4,4.8,14.2,4.8c0.3,0,0.6,0,0.9,0
					c18.2-0.3,73.2-2,73.7-2c0.6,0,1.2,0,1.8-0.1c10-0.9,18.5-6.7,19.3-13.3L362,217.4c0.4-3.1-1.2-6.3-4.4-8.8
					c-3.3-2.6-8-4.1-13.1-4.4l-71.1-4C272.8,200.2,272.2,200.2,271.6,200.2z"/>
			</g>
			<path class="st16" d="M302.7,455.1c-13.2,0-24.6-10.2-26.6-23.8L226,93.4c-1.1-7.2,0.8-14.5,5.1-20c4.1-5.2,10.1-8.5,16.7-9
				l82.3-7.3c0.7-0.1,1.5-0.1,2.2-0.1c13.2,0,24.6,10.2,26.6,23.8L409,418.6c1.1,7.2-0.8,14.5-5.1,20c-4.1,5.2-10.1,8.5-16.7,9.1
				l-82.3,7.3C304.2,455.1,303.4,455.1,302.7,455.1z"/>
			<path class="st16" d="M306.3,454.7c-13.2,0-24.6-10.2-26.6-23.8L229.5,93c-1.1-7.2,0.8-14.5,5.1-20c4.1-5.2,10.1-8.5,16.7-9
				l82.3-7.3c0.7-0.1,1.5-0.1,2.2-0.1c13.2,0,24.6,10.2,26.6,23.8l50.1,337.9c1.1,7.2-0.8,14.5-5.1,20c-4.1,5.2-10.1,8.5-16.7,9.1
				l-82.3,7.3C307.7,454.7,307,454.7,306.3,454.7z"/>
			<path class="st17" d="M307.8,447.5c-10.1,0.9-19.6-7-21.2-17.6L236.5,92c-1.6-10.6,5.3-20,15.4-20.9l82.3-7.3
				c10.1-0.9,19.6,7,21.2,17.6l50.1,337.9c1.6,10.6-5.3,20-15.4,20.9L307.8,447.5z"/>
			<g>
				<path class="st18" d="M390.1,314.9l-109.6,73.5l6.1,41.4c0.6,4.2,2.5,7.9,5.1,10.9L398,368L390.1,314.9z"/>
				<path class="st18" d="M256.8,228.3L356.1,86l-0.7-4.6c-1.6-10.6-11.1-18.5-21.2-17.6l-33.3,3l-56.3,80.2L256.8,228.3z"/>
			</g>
			<g>
				<path class="st15" d="M408.2,418.1c-0.6,0-1.1-0.4-1.2-1L356.9,79.2c-1.5-10-10.4-17.5-19.9-16.6c-0.7,0.1-1.2-0.4-1.3-1.1
					c-0.1-0.7,0.4-1.2,1.1-1.3c10.7-0.9,20.8,7.4,22.4,18.6l50.1,337.9c0.1,0.6-0.4,1.2-1,1.3C408.3,418.1,408.3,418.1,408.2,418.1z
					"/>
			</g>
		</g>
		<g>
			<path class="st1" d="M368,107c6.5,5.3,6.1,8.2,6.7,17.5c0.6,9.3,11.7,10.8,7.5,24.9c-4.1,14.1-9.3,11.9-15.9,25.6
				c-6.6,13.7-32.7,11.6-37.4,14.3c-4.7,2.7-10.5,4.1-16.8-0.1c-6.2-4.2-13.3-9.7-21.6-10.7c13.8-20,41.1-65.3,44.2-68.4
				C337.8,106.8,359.4,101.2,368,107z"/>
			<path class="st2" d="M362.5,98.3c16.9,5.5,9.3,20.7,14.5,28.7c5.2,8,13.2,13.8,7.8,25.4c-5.4,11.6-12.7,15.2-12.7,15.2l-5.9,0.6
				c6.8-13.5,12.7-23.2,4.1-35.5c-8.6-12.2-3-27.3-3-27.3L362.5,98.3z"/>
			<g>
				<path class="st1" d="M373.7,161c-0.2,0-0.3-0.1-0.4-0.2c-0.2-0.2-0.2-0.6,0-0.8c8.3-8.1,5.5-15,2.3-23.1
					c-2-5.1-4.1-10.3-3.5-16.3c1-9.3-1.8-14-3.5-14.4c-0.3-0.1-0.5-0.4-0.4-0.7c0.1-0.3,0.4-0.5,0.7-0.4c2.4,0.6,5.4,5.9,4.4,15.7
					c-0.6,5.7,1.5,10.8,3.4,15.7c3.2,8.1,6.3,15.7-2.6,24.3C374,161,373.8,161,373.7,161z"/>
			</g>
			<path class="st3" d="M359.5,176c8.7-7.7,17.3-15.3,26-23c4.8-4.2,9.6-8.5,14.4-12.7c0.4-0.4,2.2-1.5,2.3-2.1
				c0.4-2.8,2.9-7.9,4.1-9.7c2.6-3.9,7.6-2.7,10.8-1.8c3.3,1,11.5,4.1,10.2,8.9c-1,3.9-1.2,4.2-2.7,9.1c-1.1,3.5-2.2,5.9-4.8,8.4
				c-5.7,5.6-11.4,11.2-17.1,16.9c-7,6.9-14.1,13.8-21.1,20.8c-1.4,1.4-2.9,2.8-4.3,4.2c-5,4.9-13.3,5-18.3,0.1
				C353.7,189.8,353.9,180.9,359.5,176z"/>
			<g>
				<path class="st4" d="M433.2,60.3c-0.1-8.4-5.2-5.8-6.5-5.3c-1.3,0.5-2,8.3-4.3,20.2c-5.3,26.7-12.8,50-14,54.1
					c-1.3,4.3,14.7,10.6,16.5,6.1c3.9-14.8,9.6-55.2,9.7-57.3C434.7,74.2,436.4,59.8,433.2,60.3z"/>
				<g>
					<path class="st5" d="M427.8,67.2c0,0-0.1,0-0.1,0c-0.3-0.1-0.5-0.4-0.5-0.7c1.6-8.6,0.8-10.4,0.4-10.7c-0.1-0.1-0.2-0.1-0.5,0
						c-0.3,0.1-0.6-0.1-0.7-0.4c-0.1-0.3,0.1-0.6,0.4-0.7c0.6-0.2,1.2-0.1,1.6,0.3c0.8,0.7,1.7,2.7,0,11.8
						C428.3,67,428.1,67.2,427.8,67.2z"/>
				</g>
				<g>
					<path class="st5" d="M430,69.1c0,0-0.1,0-0.1,0c-0.3-0.1-0.5-0.4-0.5-0.7c2-10.1,0.8-12.8,0.3-13.4c-0.1-0.1-0.2-0.2-0.3-0.2
						c-0.3,0-0.6-0.3-0.5-0.6c0-0.3,0.3-0.6,0.6-0.5c0.3,0,0.7,0.2,1.2,0.7c1.4,1.8,1.3,6.9-0.1,14.3
						C430.5,68.9,430.3,69.1,430,69.1z"/>
				</g>
				<g>
					<path class="st5" d="M430.2,80.9c-0.3,0-0.5-0.2-0.6-0.5c-0.1-0.7-0.7-2.8-1.7-3.3l-0.4-0.2l0.1-0.4c0.2-1.1,0.5-2.1,0.8-3.1
						c0.9-3.4,1.4-5.5,0-5.9c-0.2-0.1-0.4,0-0.5,0c-0.7,0.4-1.1,2.2-1.5,3.6c-0.4,1.6-0.7,2.9-1.4,3.3c-0.3,0.2-0.6,0.1-0.8-0.2
						c-0.2-0.3-0.1-0.6,0.2-0.8c0.3-0.2,0.7-1.7,0.9-2.6c0.4-1.8,0.9-3.7,2-4.4c0.4-0.2,0.9-0.3,1.4-0.1c2.5,0.8,1.7,4,0.8,7.4
						c-0.2,0.9-0.5,1.8-0.7,2.7c1.4,1.1,1.8,3.6,1.9,3.9C430.8,80.6,430.6,80.9,430.2,80.9C430.3,80.9,430.2,80.9,430.2,80.9z"/>
				</g>
				<g>
					<path class="st5" d="M433.4,74c-0.1,0-0.1,0-0.2,0l-3.8-1.2c-0.3-0.1-0.5-0.4-0.4-0.7c0.1-0.3,0.4-0.5,0.7-0.4l3.8,1.2
						c0.3,0.1,0.5,0.4,0.4,0.7C433.9,73.9,433.7,74,433.4,74z"/>
				</g>
				<g>
					<path class="st5" d="M432.1,73.5C432.1,73.5,432,73.5,432.1,73.5c-0.4-0.1-0.6-0.3-0.6-0.7c0-0.1,1.3-9.3,1.3-11.6
						c0-0.3,0.3-0.6,0.6-0.6c0,0,0,0,0,0c0.3,0,0.6,0.3,0.6,0.6c0,2.4-1.2,11.4-1.3,11.8C432.6,73.3,432.4,73.5,432.1,73.5z"/>
				</g>
			</g>
			<path class="st3" d="M383.3,155c-11.7,7.3-19.2,9.9-24.4,9.7c-6.2-0.2,13.7,24,13.7,24S380.2,169.5,383.3,155z"/>
			<path class="st4" d="M377.8,428.1c0.2,12.5-0.7,28.5,0.5,38c0.2,4.1,19.7,5.7,19.4,8.9c-0.3,3.2-35.9,4.9-37,2.2
				c-0.4-8,0.3-26-2.2-47.4L377.8,428.1z"/>
			<path class="st4" d="M280.6,412.9c0,0.3,0,0.6,0,0.9c4.5-3.3,8.7-6.4,12.1-9.2c-6.1-5.2-10.4-8-15.8-13.6
				C278.4,398.3,280.5,405.3,280.6,412.9z"/>
			<path class="st3" d="M377.3,175.5c-0.5-4.2-22.2-16.1-41.3-12.7c-27.5,4.9-25.6,10.7-29,28.4c-2.1,10.7-1.8,23.6-3,31
				c-2,11.6-14.6,28.5,4.5,29.6c16,1,57.1,6,68.5-4.7c8.8-8.2-4-13.1,1.5-54.3C380.2,181.6,377.3,175.5,377.3,175.5z"/>
			<path class="st4" d="M273.6,252.4c-0.2,3.4-1.6,27.1,1.8,34.3c3.5,7.2,6.2,15.3,5.5,20.3c-0.7,5-2.6,3.6-3.3,2.9
				c-0.8,4.4-3.2,2.6-3.5,1c-1.8,1.6-3.4-0.7-3.4-2.8c-2.7,2.8-3.6-0.1-3.7-3.8c-0.2-3.8-0.5-6.2-3.9-13.6
				c-4.1-9.1-2.3-33.5-2.2-38.1C261.1,247.8,273.8,249,273.6,252.4z"/>
			<g>
				<path class="st5" d="M270.5,309.1c-0.1,0-0.3,0-0.4-0.1c-0.3-0.2-0.3-0.6-0.1-0.8c1.4-1.8-0.7-9.3-1.9-13.3l-0.2-0.7
					c-0.1-0.3,0.1-0.6,0.4-0.7c0.3-0.1,0.6,0.1,0.7,0.4l0.2,0.7c1.8,6.4,3.4,12.3,1.7,14.4C270.8,309,270.6,309.1,270.5,309.1z"/>
			</g>
			<g>
				<path class="st5" d="M274.2,311.4c-0.1,0-0.2,0-0.3-0.1c-0.3-0.2-0.3-0.6-0.1-0.8c1.6-2.4-0.9-14.2-2.3-17.1
					c-0.1-0.3,0-0.6,0.3-0.8c0.3-0.1,0.6,0,0.8,0.3c1.2,2.5,4.3,15.2,2.2,18.3C274.6,311.3,274.4,311.4,274.2,311.4z"/>
			</g>
			<g>
				<path class="st5" d="M277.6,310.5c-0.1,0-0.1,0-0.2,0c-0.3-0.1-0.5-0.5-0.3-0.8c1.5-3.8-0.9-12.2-2-16.3l-0.2-0.8
					c-0.1-0.3,0.1-0.6,0.4-0.7c0.3-0.1,0.6,0.1,0.7,0.4l0.2,0.8c1.3,4.5,3.6,12.8,2,17C278.1,310.4,277.9,310.5,277.6,310.5z"/>
			</g>
			<path class="st3" d="M269.2,257c7.2,0.3,8.1,0.1,9.1-9.4c0.4-4.1,0.9-8.2,1.6-12.3c2.9-2.8,6-5.5,9-8.1
				c7.3-6.4,14.6-12.8,21.9-19.1c6.5-5.6,12.9-11.1,19.4-16.7c4.3-3.7,7.5-8.3,6.1-14.4c-1.7-7.6-10-12-17.3-9.3
				c-5.1,1.9-9.5,7.5-13.3,11.1c-14.4,13.5-29.3,26.7-42.9,41.1c-7.4,7.9-6.2,19.9-6.7,30.1C255.8,255,259.4,256.6,269.2,257z"/>
			<path class="st6" d="M351,159.8c2.7,0.6,8.8,2.9,9.4,4.7c1.2,3.6,0.9,14.1-0.3,15.3c-1.5,1.7-6.5-1.8-9.1-5.1
				c-2,9.8-4.5,7.5-8.4,5.8c-6.1-2.6-14.3-12.4-13.8-15.4c0.6-3.5,7.7-5.5,7.7-5.5L351,159.8z"/>
			<polyline class="st4" points="340.5,143.5 335,162.5 355.7,167 357.6,148.6 			"/>
			<path class="st4" d="M371.7,134.7c0.8,9.7-6.5,18.2-16.2,19l0,0c-9.7,0.8-18.2-6.5-19-16.2l-1.5-18.6c-0.8-9.7,6.5-18.2,16.2-19
				l0,0c9.7-0.8,18.2,6.5,19,16.2L371.7,134.7z"/>
			<path class="st5" d="M356.6,158.2l0.5-4.6c-1.3,0.1-3.1,0.1-4.2,0.1c-4.8-0.4-9-2.6-12-6C342.5,151.3,347.6,157.3,356.6,158.2z"
				/>
			<g>
				<path class="st2" d="M346.4,118.9c-0.2,0-0.4-0.1-0.5-0.2c-0.4-0.3-0.6-0.9-0.3-1.3c1.5-2.3,4.6-3.9,7.2-3.9c0.5,0,1,0.4,1,1
					c0,0.5-0.4,1-1,1c0,0,0,0,0,0c-2.4,0-4.6,1.5-5.6,3C347,118.7,346.7,118.9,346.4,118.9z"/>
			</g>
			<g>
				<path class="st2" d="M368.4,117.8c-0.4,0-0.7-0.2-0.9-0.5c-0.6-1.1-2.6-2.1-3.9-2c-0.5,0.1-1-0.3-1.1-0.9
					c-0.1-0.5,0.3-1,0.9-1.1c2.1-0.2,4.9,1.2,5.9,3.1c0.2,0.5,0.1,1.1-0.4,1.3C368.7,117.8,368.6,117.8,368.4,117.8z"/>
			</g>
			<g>
				<path class="st5" d="M358.8,133c-0.1,0-0.3,0-0.4-0.1c-0.2-0.2-0.3-0.6-0.1-0.8l2.5-2.8l-2.9-1.2c-0.3-0.1-0.4-0.5-0.3-0.8
					c0.1-0.3,0.5-0.4,0.8-0.3l3.7,1.5c0.2,0.1,0.3,0.2,0.4,0.4c0,0.2,0,0.4-0.1,0.5l-3,3.4C359.2,133,359,133,358.8,133z"/>
			</g>
			<path class="st7" d="M353.7,135.1c-0.2,10.2,8.1,9.2,8.3,1.6L353.7,135.1z"/>
			<path class="st8" d="M354.3,127.2c-0.3,1.2-1.4,1.9-2.6,1.6c-1.2-0.3-1.9-1.4-1.6-2.6c0.3-1.2,1.4-1.9,2.6-1.6
				C353.9,124.9,354.6,126,354.3,127.2z"/>
			<path class="st8" d="M367.1,126.4c-0.3,1.2-1.4,1.9-2.6,1.6c-1.2-0.3-1.9-1.4-1.6-2.6c0.3-1.2,1.4-1.9,2.6-1.6
				C366.7,124.1,367.4,125.2,367.1,126.4z"/>
			<g>
				<path class="st8" d="M366.4,126.1c-0.2,0-0.4-0.1-0.5-0.2c-0.2-0.3-0.2-0.7,0.1-0.9l1.9-1.5c0.3-0.2,0.7-0.2,0.9,0.1
					c0.2,0.3,0.2,0.7-0.1,0.9l-1.9,1.5C366.7,126,366.6,126.1,366.4,126.1z"/>
			</g>
			<g>
				<path class="st8" d="M351.3,127.2c-0.1,0-0.2,0-0.3-0.1l-2.4-1.2c-0.3-0.2-0.4-0.6-0.3-0.9c0.2-0.3,0.6-0.4,0.9-0.3l2.4,1.2
					c0.3,0.2,0.4,0.6,0.3,0.9C351.7,127.1,351.5,127.2,351.3,127.2z"/>
			</g>
			<path class="st9" d="M354,138.3c2.6-0.1,5.5,0.5,7.1,2.1C359.2,143.6,355.1,143.5,354,138.3z"/>
			<path class="st2" d="M289.4,158.8c6.6-3.3,14.3,0.3,13.5-10.8c-0.8-11.1,14.1-9.7,16.5-18.6c2.3-8.5,7-36.3,29.9-33
				c0,0,6.8-0.7,13.1,1.8c6.7,7.2,5.6,9,6.6,12.5c-1.9-3.7-4.3-4.4-4.3-4.4c-8.3-2.8-20,4.3-22.3,16.4c-2.3,12.1-1.8,25.4-12.4,30.7
				c-10.7,5.3-14.2,1.7-17.6,10.7c-3.4,9-1.8,15.1-13.5,16.7c-6.6-3.3-17.8-0.1-22.4-6.4C285.6,170.6,282.8,162.1,289.4,158.8z"/>
			<g>
				<path class="st1" d="M298.1,179.3c-0.2,0-0.4-0.1-0.5-0.3c-0.1-0.3,0-0.6,0.3-0.8c6.6-3.2,6.8-7.8,7-13.1
					c0.2-6.9,0.5-14.8,13.9-21.8c17.4-9.1,23.6-22,27.1-32.2c2.5-7.3,6.6-9.2,9.6-9.6c4.1-0.5,8,1.8,9.6,4.3
					c0.2,0.3,0.1,0.6-0.2,0.8c-0.3,0.2-0.6,0.1-0.8-0.2c-1.4-2.2-4.9-4.2-8.5-3.7c-2.7,0.3-6.3,2.1-8.6,8.8
					c-3.6,10.4-9.9,23.6-27.7,32.9c-12.8,6.7-13.1,14.2-13.3,20.8c-0.2,5.5-0.4,10.7-7.7,14.2C298.3,179.3,298.2,179.3,298.1,179.3z
					"/>
			</g>
			<g>
				<path class="st1" d="M283.4,177c-0.1,0-0.3-0.1-0.4-0.2c-0.2-0.2-0.3-0.6,0-0.8c4.8-5.2,9.1-7.3,11.6-8.6
					c0.7-0.3,1.2-0.6,1.6-0.9c6.5-4,6.8-7.5,7.2-11.6c0.3-3.4,0.7-7.2,4.8-11.8c2.9-3.2,5.3-4.8,7.4-6.2c4.3-2.8,7.5-4.9,12-19.2
					c3-9.4,7.5-15.5,13.4-18.3c6.3-3,12.5-1.3,15.6,0c0.3,0.1,0.4,0.5,0.3,0.8c-0.1,0.3-0.5,0.4-0.8,0.3c-3-1.2-8.8-2.8-14.7,0
					c-5.6,2.6-9.9,8.6-12.8,17.6c-4.6,14.7-8.1,16.9-12.5,19.8c-2.1,1.3-4.4,2.9-7.2,6c-3.8,4.3-4.2,7.7-4.5,11.1
					c-0.4,4.2-0.8,8.1-7.8,12.5c-0.5,0.3-1,0.6-1.7,0.9c-2.5,1.2-6.6,3.3-11.3,8.3C283.7,176.9,283.5,177,283.4,177z"/>
			</g>
			<g>
				<path class="st1" d="M360.2,106.4c-0.1,0-0.3-0.1-0.4-0.2c-1.5-1.4-5.5-2.2-8-0.4c-0.3,0.2-0.6,0.1-0.8-0.1
					c-0.2-0.3-0.1-0.6,0.1-0.8c3-2.3,7.7-1.2,9.5,0.5c0.2,0.2,0.2,0.6,0,0.8C360.5,106.3,360.4,106.4,360.2,106.4z"/>
			</g>
			<path class="st4" d="M355.8,166.4c-0.7,6.3-5.1,6.8-8.8,6.5c-6.9-0.6-13-5.5-12-10.3C336,157.7,355.8,166.4,355.8,166.4z"/>
			<g>
				<path class="st1" d="M313.8,150.9c-0.2,0-0.3-0.1-0.4-0.2c-0.2-0.2-0.2-0.6,0-0.8c3.2-3,7.6-4.8,11.9-6.5
					c6.3-2.5,12.3-4.9,13.3-11c0.1-0.3,0.4-0.5,0.7-0.5c0.3,0.1,0.5,0.4,0.5,0.7c-1.2,6.8-7.4,9.3-14,11.9
					c-4.2,1.7-8.5,3.4-11.5,6.3C314.1,150.8,314,150.9,313.8,150.9z"/>
			</g>
			<path class="st10" d="M344.9,132.4c-0.2,1.6,1.5,3.1,3.6,3.3c2.2,0.2,4.1-0.9,4.3-2.5c0.2-1.6-1.5-3.1-3.6-3.3
				C347,129.7,345.1,130.8,344.9,132.4z"/>
			<path class="st10" d="M363.5,132.8c0.5,1.5,2.6,2.2,4.7,1.6c2.1-0.7,3.4-2.4,2.9-4c-0.5-1.5-2.6-2.2-4.7-1.6
				C364.3,129.5,363,131.3,363.5,132.8z"/>
			<path class="st11" d="M365.6,268.9c0,0,2.4-16.7,1.8-24.6c-0.3-3.4-34.7,14.2-59,5.9c-1.5,4.5-3.9,11.6-5.7,27.4
				c-3.3,28.2,1.6,42.2-4.4,73.6c-2.6,14-11.5,26.4-22,37.1c0.7,4.2,1.8,8.4,2.6,12.6c4.7,4.2,10.3,8.4,11.7,7.7
				c41.7-32.3,41.2-62.4,46.2-113.2c3.4,13.6,13.6,89.2,19.5,139.9c0.5,1.1,23.7,1.3,23.8,0C380.1,362.2,365.6,268.9,365.6,268.9z"
				/>
			<g>
				<path class="st12" d="M377.9,203.7c-0.3,0-0.6-0.3-0.6-0.6c-0.1-9.2-0.8-16.2-1.1-19.3c0-0.3,0.2-0.6,0.5-0.6
					c0.3,0,0.6,0.2,0.6,0.5c0.3,3,1,10.1,1.1,19.4C378.5,203.4,378.3,203.7,377.9,203.7C378,203.7,377.9,203.7,377.9,203.7z"/>
			</g>
			<g>
				<path class="st12" d="M298.2,218.9c-0.2,0-0.3-0.1-0.4-0.2c-0.2-0.2-0.2-0.6,0-0.8c2.7-2.4,7.7-6,12.1-9.2
					c3.7-2.7,7.3-5.2,8.2-6.2c0.2-0.2,0.6-0.3,0.8,0c0.2,0.2,0.3,0.6,0,0.8c-1,1.1-4.4,3.5-8.4,6.3c-4.4,3.1-9.4,6.7-12,9.1
					C298.5,218.8,298.3,218.9,298.2,218.9z"/>
			</g>
			<g>
				<path class="st12" d="M409.2,146.3c-0.1,0-0.2,0-0.3-0.1c-0.2-0.1-5.9-3.6-6.7-9.3c0-0.3,0.2-0.6,0.5-0.7
					c0.3-0.1,0.6,0.2,0.7,0.5c0.7,5.2,6.1,8.4,6.2,8.4c0.3,0.2,0.4,0.5,0.2,0.8C409.6,146.2,409.4,146.3,409.2,146.3z"/>
			</g>
			<g>
				<path class="st12" d="M279.8,235.9c-0.1,0-0.2,0-0.3-0.1c-3.9-1.9-9.2-3.5-9.3-3.5c-0.3-0.1-0.5-0.4-0.4-0.7
					c0.1-0.3,0.4-0.5,0.7-0.4c0.2,0.1,5.5,1.6,9.4,3.6c0.3,0.1,0.4,0.5,0.3,0.8C280.2,235.8,280,235.9,279.8,235.9z"/>
			</g>
			<g>
				<path class="st12" d="M277.7,236.2C277.7,236.2,277.7,236.2,277.7,236.2l-6.8-0.5c-0.3,0-0.6-0.3-0.5-0.6c0-0.3,0.3-0.6,0.6-0.5
					l6.7,0.5c0.3,0,0.6,0.3,0.5,0.6C278.3,236,278,236.2,277.7,236.2z"/>
			</g>
			<g>
				<path class="st13" d="M333.8,255.9c-7.7,0-16.3-0.7-25.3-2.5c-0.3-0.1-0.5-0.4-0.5-0.7c0.1-0.3,0.4-0.5,0.7-0.5
					c26.3,5.4,48.7,0.7,57.1-1.5l0.3-0.1c0.3-0.1,0.6,0.1,0.7,0.4c0.1,0.3-0.1,0.6-0.4,0.7l-0.3,0.1
					C360.5,253.3,348.8,255.9,333.8,255.9z"/>
			</g>
			<g>
				<path class="st13" d="M336.2,301.6C336.2,301.6,336.2,301.6,336.2,301.6c-0.4,0-0.6-0.3-0.6-0.6l1.1-18c0-0.3,0.2-0.5,0.4-0.5
					l13.5-3.7c0.3-0.1,0.6,0.1,0.7,0.4c0.1,0.3-0.1,0.6-0.4,0.7l-13.1,3.5l-1.1,17.6C336.8,301.3,336.5,301.6,336.2,301.6z"/>
			</g>
			<g>
				<path class="st13" d="M365.4,274.3C365.4,274.3,365.3,274.3,365.4,274.3c-0.1,0-6-0.6-6.1-7.1c0-2.3-0.1-11.7,0.1-14.3
					c0-0.3,0.3-0.6,0.6-0.5c0.3,0,0.6,0.3,0.5,0.6c-0.2,2.5-0.2,12-0.1,14.2c0.1,5.4,4.8,5.9,5,5.9c0.3,0,0.6,0.3,0.5,0.6
					C365.9,274.1,365.7,274.3,365.4,274.3z"/>
			</g>
			<g>
				<path class="st13" d="M311,276.8c-0.9,0-1.5,0-1.6,0c-0.3,0-0.6-0.3-0.6-0.6c0-0.3,0.3-0.6,0.6-0.6c0.1,0,8,0.4,10.6-1.8
					c2.1-1.7,3.3-10.2,4-15.2c0.2-1.4,0.4-2.7,0.5-3.6c0.1-0.3,0.4-0.5,0.7-0.5c0.3,0.1,0.5,0.4,0.5,0.7c-0.2,0.8-0.3,2.1-0.5,3.5
					c-1,7.4-2.1,14.1-4.4,16C318.6,276.6,313.6,276.8,311,276.8z"/>
			</g>
			<g>
				<path class="st13" d="M278.3,394c-0.2,0-0.3-0.1-0.5-0.2c-0.2-0.3-0.2-0.6,0.1-0.8c25.9-20.7,26.7-38.1,28.1-66.9
					c0.1-2,0.2-4,0.3-6.1c0.3-5,0.5-9.6,0.7-13.9c1.2-24.9,1.8-38.7,5.6-53.4c0.1-0.3,0.4-0.5,0.7-0.4c0.3,0.1,0.5,0.4,0.4,0.7
					c-3.7,14.6-4.4,28.3-5.5,53.1c-0.2,4.3-0.4,8.9-0.7,14c-0.1,2.1-0.2,4.1-0.3,6.1c-1.4,29.1-2.2,46.7-28.5,67.8
					C278.6,394,278.4,394,278.3,394z"/>
			</g>
			<g>
				<path class="st13" d="M360.9,434.9c-0.3,0-0.6-0.2-0.6-0.6c-1.3-28.5-18-143-19.5-151.8c-0.1-0.3,0.2-0.6,0.5-0.7
					c0.3-0.1,0.6,0.2,0.7,0.5c1.5,8.8,18.2,123.4,19.5,151.9C361.5,434.6,361.2,434.9,360.9,434.9
					C360.9,434.9,360.9,434.9,360.9,434.9z"/>
			</g>
			<g>
				<path class="st13" d="M372,432c-4.9,0-10.7-0.2-14.2-0.4c-0.3,0-0.6-0.3-0.6-0.6c0-0.3,0.3-0.6,0.6-0.6c5.6,0.4,17.3,0.5,21,0.2
					c0.3,0,0.6,0.2,0.6,0.5c0,0.3-0.2,0.6-0.5,0.6C377.6,432,375,432,372,432z"/>
			</g>
			<g>
				<path class="st13" d="M292.1,406.1c-0.1,0-0.1,0-0.2,0c-2.5-0.9-8.9-6-13.9-11.4c-0.2-0.2-0.2-0.6,0-0.8c0.2-0.2,0.6-0.2,0.8,0
					c5.2,5.6,11.4,10.3,13.5,11.1c0.3,0.1,0.5,0.5,0.3,0.8C292.6,405.9,292.3,406.1,292.1,406.1z"/>
			</g>
			<g>
				<path class="st13" d="M341,277.9c-0.1,0-0.3-0.1-0.4-0.2c-0.1-0.1-0.2-0.3-0.2-0.5c0.7-7,2.5-27.1,2.5-27.3
					c0-0.3,0.3-0.6,0.6-0.5c0.3,0,0.6,0.3,0.5,0.6c0,0.2-1.7,18.9-2.5,26.6c2-0.4,3.4-0.9,4.1-1.1c0.3-2.4,2-16.5,2.3-22l0.5-5.1
					c0-0.3,0.3-0.6,0.6-0.5c0.3,0,0.6,0.3,0.5,0.6l-0.5,5.1c-0.4,6.1-2.3,22.2-2.3,22.4c0,0.2-0.2,0.4-0.4,0.5
					C346.4,276.5,344.3,277.4,341,277.9C341.1,277.9,341.1,277.9,341,277.9z"/>
			</g>
			<g>
				<path class="st13" d="M355.2,254.2c-0.1,0-0.3,0-0.4-0.1c-0.1-0.1-0.2-0.3-0.2-0.4l-0.5-6.7c0-0.3,0.2-0.6,0.5-0.6
					c0.3,0,0.6,0.2,0.6,0.5l0.4,6.1l1.4-0.3c0.2-1.8,0.5-5.6,0.3-6.6c-0.1-0.3,0.2-0.6,0.5-0.7c0.3-0.1,0.6,0.2,0.7,0.5
					c0.3,1.4-0.3,6.8-0.3,7.4c0,0.3-0.2,0.5-0.5,0.5l-2.5,0.5C355.3,254.2,355.2,254.2,355.2,254.2z"/>
			</g>
			<g>
				<path class="st13" d="M333.7,255.5c0,0-0.1,0-0.1,0c-0.3-0.1-0.5-0.4-0.5-0.7l0.6-3.1c0.1-0.3,0.4-0.5,0.7-0.5
					c0.3,0.1,0.5,0.4,0.5,0.7l-0.6,3.1C334.2,255.3,334,255.5,333.7,255.5z"/>
			</g>
			<g>
				<path class="st13" d="M330.6,255.1C330.6,255.1,330.6,255.1,330.6,255.1c-0.4,0-0.6-0.3-0.6-0.7l0.3-2.3c0-0.3,0.3-0.6,0.7-0.5
					c0.3,0,0.6,0.3,0.5,0.7l-0.3,2.3C331.2,254.9,330.9,255.1,330.6,255.1z"/>
			</g>
			<path class="st13" d="M345.2,250.9c0,0.7,0.6,1.2,1.2,1.1c0.7,0,1.2-0.6,1.1-1.2c0-0.7-0.6-1.2-1.2-1.1
				C345.7,249.7,345.2,250.2,345.2,250.9z"/>
			<g>
				<path class="st12" d="M324.6,252.9c-5.4,0-11.5-0.6-18.4-2c-0.3-0.1-0.5-0.4-0.5-0.7c0.1-0.3,0.4-0.5,0.7-0.5
					c22.4,4.6,36.4,0,46.6-3.3c7.6-2.5,13.7-4.5,20-1.9c0.3,0.1,0.4,0.5,0.3,0.8c-0.1,0.3-0.5,0.4-0.8,0.3
					c-5.9-2.4-11.8-0.5-19.2,1.9C346.2,250,337.1,252.9,324.6,252.9z"/>
			</g>
			<path class="st2" d="M384.5,469.8c5.7,1.8,13.5,3.1,13.3,5.1c-0.3,3.2-35.9,4.9-37,2.2c-0.1-1.6-0.1-3.7-0.1-6.2
				c4.6,1.7,12.4,3.3,21.2,3.7C378.9,471.6,381.4,470.2,384.5,469.8z"/>
			<g>
				<path class="st5" d="M368.6,471.4c-0.1,0-0.2,0-0.3-0.1c-1.8-1.1-3.6-3.2-4.7-4.9c-0.2-0.3-0.1-0.6,0.2-0.8
					c0.3-0.2,0.6-0.1,0.8,0.2c1,1.6,2.6,3.6,4.3,4.5c0.3,0.2,0.4,0.5,0.2,0.8C369,471.3,368.8,471.4,368.6,471.4z"/>
			</g>
		</g>
		<g>
			<path class="st16" d="M286.7,429.9L236.5,92c-1.6-10.6,5.3-20,15.4-20.9l60.1-5.4c1.5-2.6,3.1-5.1,4.8-7.6L251.3,64
				c-6.6,0.6-12.6,3.8-16.7,9c-4.3,5.5-6.2,12.8-5.1,20l50.1,337.9c2,13.6,13.5,23.8,26.6,23.8c0.7,0,1.5,0,2.2-0.1l30.2-2.7v-7.1
				l-30.8,2.8C297.7,448.4,288.2,440.5,286.7,429.9z"/>
			<g>
				<path class="st15" d="M296,453.7c-0.2,0-0.3,0-0.5-0.1c-9.1-3.9-15.6-12.6-17.1-22.5L228.3,93.2c-0.9-6.2,0.3-12.6,3.3-17.9
					c0.3-0.6,1.1-0.8,1.6-0.4c0.6,0.3,0.8,1.1,0.4,1.6c-2.8,4.8-3.9,10.6-3,16.4l50.1,337.9c1.4,9.2,7.4,17.1,15.7,20.7
					c0.6,0.3,0.9,1,0.6,1.6C296.9,453.5,296.5,453.7,296,453.7z"/>
			</g>
		</g>
	</g>
</g>
</svg>
