<?xml version="1.0" encoding="utf-8"?>
<!-- Generator: Adobe Illustrator 27.2.0, SVG Export Plug-In . SVG Version: 6.00 Build 0)  -->
<svg version="1.1" id="Layer_1" xmlns="http://www.w3.org/2000/svg" xmlns:xlink="http://www.w3.org/1999/xlink" x="0px" y="0px"
	 viewBox="0 0 1166.6 674.9" style="enable-background:new 0 0 1166.6 674.9;" xml:space="preserve">
<style type="text/css">
	.st0{display:none;}
	.st1{display:inline;}
	.st2{clip-path:url(#SVGID_00000121264011421117478890000007853864462680573345_);}
	.st3{clip-path:url(#SVGID_00000102540276980855888540000007880812841455684739_);}
	.st4{fill:#FFFFFF;}
	.st5{fill:#A0C6F4;}
	.st6{fill:none;stroke:#2A1E17;stroke-width:1.8;stroke-linecap:round;stroke-linejoin:round;}
	.st7{fill:#2A1E17;}
	.st8{fill:#F9865F;}
	.st9{fill:#2A1E33;}
	.st10{fill:#7595EC;}
	.st11{fill:#FF8A66;}
	.st12{fill:#FFF7C9;}
	.st13{fill:none;stroke:#2A1E33;stroke-width:1.8;stroke-linecap:round;stroke-linejoin:round;}
	.st14{fill:#FF6D66;}
	.st15{fill:#FAD8B0;}
	.st16{fill:#C6CBCB;}
	.st17{fill:#FFF7DC;}
	.st18{fill:#FFE1C0;}
	.st19{fill:#91BA83;}
	.st20{fill:none;stroke:#2A1E17;stroke-width:1.21;stroke-linecap:round;stroke-linejoin:round;}
	.st21{fill:#96BD89;}
	.st22{fill:none;stroke:#FF6D66;stroke-width:1.8;stroke-linecap:round;stroke-linejoin:round;}
	.st23{fill:none;stroke:#FAD8B0;stroke-width:1.8;stroke-miterlimit:10;}
	.st24{fill:none;stroke:#A0C6F4;stroke-width:1.8;stroke-linecap:round;stroke-linejoin:round;}
	.st25{fill:#FF625F;}
	.st26{fill:#D7294F;}
	.st27{fill:#C3C0C0;}
	.st28{fill:#FF3358;}
	.st29{fill:#E1E1E1;}
	.st30{opacity:0.3;clip-path:url(#SVGID_00000039113441329816976660000013810423071565242771_);fill:#FFFFFF;}
	.st31{fill:#FFB554;}
	.st32{fill:#CFE0EC;}
	.st33{fill:#B6D4D0;}
	.st34{fill:#E7F4F2;}
	.st35{fill:#3B80C4;}
	.st36{fill:#A7CB91;}
	.st37{fill:#0A4D60;}
	.st38{fill:none;stroke:#51B480;stroke-miterlimit:10;}
	.st39{fill:#51B480;}
	.st40{fill:#BB6713;}
	.st41{fill:#F79F3F;}
	.st42{opacity:0.3;}
	.st43{fill:none;}
	.st44{clip-path:url(#SVGID_00000088121269237960300600000006362818508453055150_);}
	.st45{clip-path:url(#SVGID_00000088121269237960300600000006362818508453055150_);fill:#FF3358;}
	.st46{fill:none;stroke:#0A4D60;stroke-width:2;stroke-linecap:round;stroke-linejoin:round;stroke-miterlimit:10;}
	.st47{fill:#2965A7;}
	.st48{opacity:0.5;fill:#FFFFFF;}
	.st49{fill:#14BEA2;}
	.st50{fill:#FFB28A;}
	.st51{fill:#5D1937;}
	.st52{fill:#FF7C51;}
	.st53{fill:#00BB9A;}
	.st54{opacity:0.56;fill:#FF7C51;}
	.st55{fill:#A08480;}
	.st56{fill:#7F6461;}
	.st57{fill:#FFC33D;}
	.st58{fill:#6986E7;}
	.st59{clip-path:url(#SVGID_00000107589725264121934930000003692605013624240781_);}
	.st60{fill:#CAD6DF;}
	.st61{fill:none;stroke:#0A4D60;stroke-width:5.000000e-02;stroke-miterlimit:10;}
	.st62{clip-path:url(#SVGID_00000129895366558460531410000004250375525539560631_);}
	.st63{fill:#4086EC;}
	.st64{fill:#4DAE9E;}
	.st65{fill:#00A0F3;}
	.st66{stroke:#FFFFFF;stroke-width:5.000000e-02;stroke-miterlimit:10;}
</style>
<g id="Layer_2_00000102525450785922449990000004611221828621792899_" class="st0">
	<g id="Layer_1-2" class="st1">
		<g id="Artwork_7">
			<g>
				<defs>
					<rect id="SVGID_1_" width="1166.6" height="674.9"/>
				</defs>
				<clipPath id="SVGID_00000177459637095099626290000006522382466368262845_">
					<use xlink:href="#SVGID_1_"  style="overflow:visible;"/>
				</clipPath>
				<g style="clip-path:url(#SVGID_00000177459637095099626290000006522382466368262845_);">
					<g>
						<defs>
							<rect id="SVGID_00000005989691691125461040000013090972241455901313_" width="1166.6" height="674.9"/>
						</defs>
						<clipPath id="SVGID_00000141433766528230902040000004823124052172375728_">
							<use xlink:href="#SVGID_00000005989691691125461040000013090972241455901313_"  style="overflow:visible;"/>
						</clipPath>
						<g style="clip-path:url(#SVGID_00000141433766528230902040000004823124052172375728_);">
							<path class="st4" d="M584.4,184.5c-58.3-54.7-126.6-68.8-144.7-71.7c12.2-32.8,31-81.6,35.6-88.8c3-0.4,6.1-0.5,9.1-0.5
								c13.3,0,41.7,2.8,82.7,21.2c59,26.5,75.1,56.7,78.3,64.1L584.4,184.5z"/>
							<path class="st5" d="M484.4,27.1c13,0,40.8,2.7,81.3,20.9c53.7,24.2,71,51.1,75.6,60.3L584,179.3
								c-34.5-31.4-71.6-48.7-97.3-57.8c-13.7-4.9-27.8-8.8-42.1-11.4c13.4-36.1,28.1-73.3,33-82.6
								C479.2,27.3,481.5,27.1,484.4,27.1 M484.5,19.9c-3.7-0.1-7.3,0.2-10.9,0.8c-4.2,1.4-38.8,95.1-38.8,95.1s82,8.4,150,74
								l64.9-80.3c0,0-10.8-36.5-80.9-68C527.6,23,498.9,19.9,484.5,19.9"/>
							<path class="st6" d="M446.8,123.1c0,0,80.6,8.1,130.3,53.8"/>
							<polygon class="st5" points="516.4,119.2 546.5,60.7 577.4,121.7 							"/>
							<polygon class="st6" points="522.3,118.3 552.4,59.8 583.3,120.8 							"/>
							<path class="st6" d="M494,16.4c0,0,90.4,8.1,146.6,74.9"/>
							<path class="st7" d="M540.2,275.6c-5-3.6-8.2-6.1-8.2-6.1c1.4-1.8,23.1-25,35.7-43.7C567.8,225.8,542.3,277.1,540.2,275.6"/>
							<path class="st6" d="M231.9,106.7c2.4,4,3.5,2.4,10.5,1.9s17,4.6,20.5,13.2s2.4,10,0.5,11s-15.3,2.7-15.9,5.4"/>
							<polygon class="st8" points="413.3,544.9 407,534.3 384.8,571.4 390.6,575.9 							"/>
							<path class="st8" d="M265.5,452.9c0,0-11.5-18.8-6.5-27.9l36.8,3.9L265.5,452.9z"/>
							<path d="M265.5,452.9l2.2,5.1l-6.8,26.5c-0.9,3.3,0.3,6.9,2.9,9.1l33.6-49.7c3.2-4.7,2.5-11.1-1.7-15l-7.5-7L265.5,452.9z"/>
							<path class="st9" d="M247.5,138.1c10.5-0.2,23.9-0.9,21.2-8.9s-12.7-28-35.4-22c0,0-8,6.7,2,18.7S247.5,138.2,247.5,138.1"/>
							<path class="st10" d="M300.9,429.4c0,0-18-53.1-2.8-76.4c12.6-19.2,53.6,12,59.2,16.3l29.4-53c0,0-6.8-9.5-23.4-18.8
								s-85.4-37.2-117.7,13.8c-11.9,18.8-12.1,99.7,10.8,130.6L300.9,429.4z"/>
							<path class="st6" d="M300.9,429.4c0,0-18-53.1-2.8-76.4c12.6-19.2,53.6,12,59.2,16.3"/>
							<path class="st10" d="M386.7,316.2c-13.4,14-52.9,82.5-61.8,115.2c-11.9,43.8-7.4,80.1,58,151.2l31.6-46.1
								c0,0-22.2-33.8-18.1-65.6c6-46.1,38.8-90.7,55.4-119L386.7,316.2z"/>
							<polygon class="st7" points="391.7,322.1 444.3,363.4 460,339.5 							"/>
							<path class="st11" d="M694,278.7c8.2,1.8,14.5,4.9,18.8,9.4c4.3,4.5,2.3,6.8,0.8,8.2s-7.6-0.2-12.9-4.9S694,278.7,694,278.7"
								/>
							<path class="st8" d="M532,269.5c1.4-1.8,23.1-25,35.7-43.7c0,0,38.1,42.7,42.2,44.1c1.5,0.5,10.9,0.4,22.5,0.3
								c19.6-0.2,45.6-0.4,51.4,2.5c9.2,4.6,14.7,6.9,17,13.3s3.2,10.6-2.3,11c-6.4,0.5-10.5-7.8-10.5-7.8s-5.2,3.2-18.8,8.3
								c0,0-48.8,18.9-81.4,9.8C578.8,304.7,532,269.5,532,269.5"/>
							<path class="st8" d="M236.2,99.1c-4.2,1.6-6.7,3.5-4.3,7.5s3.5,2.4,10.5,1.9s17,4.6,20.5,13.2s2.4,10,0.5,11
								s-15.3,2.7-15.9,5.4s5.4,10.6,17.8,10.1l3-0.5c0,0,26,25.4,29.8,29.2s31.5,22.5,46.7,26.4c11.6,2.9,35.1-0.8,49.2-3.6
								c6.9-1.3,11.5-2.4,11.5-2.4s-10.6-19.1-12.8-48.4c0,0-25.4,4.1-42.2,7.8c0,0-39.3-21.9-58.4-31.6c0,0-16.7-20.5-24.5-23.2
								S241.9,97,236.2,99.1"/>
							<path class="st7" d="M394.1,199.7c6.9-1.3,11.5-2.4,11.5-2.4s-12.8-16.2-15-45.5c0,0-5.8,6.2-4,22.9
								C388.9,195.5,394.1,199.7,394.1,199.7"/>
							<path class="st12" d="M390,148.4c0,0,0.4,35.9,10,50.8l3.5-1.4c0,0-45.3,53-59.9,87.6c-2.4,5.7,94,67.2,108.2,66.4
								c0,0,47-71.7,63-92.9l17.3,13.4c0,0,33.9-34.3,35.7-46.5c0,0-32.7-39.8-59.5-51.4s-50.7-31.6-79.4-31.1
								C404,143.8,390,148.4,390,148.4"/>
							<polygon class="st7" points="532.1,272.3 514.8,258.9 517.5,251.4 							"/>
							<path class="st8" d="M558.3,130.5c-3,9.4-11.8,36.6-21.5,40s-19.9-0.9-19.9-0.9l-10.4,5.3c-1.2,3.5-9.4,6.5-19.9,6.9
								c-7.8,0.3-12.6-9.8-10.3-17c1.1-3.4,5-19.8,5-19.8s8.4-30.9,16.1-37.3s15-12.7,35.6-4.4C564.7,116.1,558.3,130.6,558.3,130.5
								"/>
							<path class="st9" d="M495.8,131.8c-1.4,5.8-7.4,17.3-11.3,15.2s-5.3-7.4-2.5-17.6s5.1-33.3,12.9-37.4s11.3,0.7,11.3,0.7
								s-3.5-16.8,6.7-19.2c0,0,3.5-1.6,2.1,9.9c0,0,3.9-10.6,16.6-9.2s17.1,19.2,17.1,19.2s0.9-4.8,6.7-4.8s14.5,8.5,12.5,18
								c0,0,14.8-4.6,22.6,7.2s6.9,24.7-12,29.8c-19.8,5.3-19.6-17.8-22.6-20.8s-6.2-6.5-17.3-2.3s-22.6-8.1-22.6-8.1
								s-1.8,14.8-3.7,16.2s-5.5,3.2-4.6-3.7s2.1-6.2,1.4-8.1s-3.8-7.7-10.4-2.5C491.1,120,495.8,131.8,495.8,131.8"/>
							<path class="st13" d="M498.9,134.4c-4.4-3.7-7.5-10.2-3.6-16.7s10.2-7.4,12.2-4.9s2.7,6.6,0.9,11.6"/>
							<path d="M390.6,575.9l2.2,5.1l-6.8,26.5c-0.9,3.3,0.3,6.9,2.9,9.1l33.6-49.7c3.2-4.7,2.5-11.1-1.7-15l-7.5-7L390.6,575.9z"/>
							<path class="st13" d="M506.1,92.8c0,0-2.6-8.4-10.3-10.6"/>
							<line class="st6" x1="342.5" y1="283" x2="435.7" y2="152.8"/>
							<path class="st6" d="M474.1,161.9c-3.4,4.4-4.9,23.1,10.6,24.4s25.4-5.6,25.4-5.6"/>
							<path class="st6" d="M267.7,101.8c0,0,10.7,14.1,12.3,19.1"/>
							<path class="st6" d="M666.7,290.9c0,0,7.1,5.9,21.3-1.7c5.2-2.8,1.5-9.2-5-7.6s-14.2-0.8-14.2-0.8"/>
							<path class="st6" d="M696.4,279.5c0,0,6.8,8,6.6,12.7"/>
							<path class="st6" d="M595.9,278.7c0,0,6.2-8.2,14.1-8.8"/>
							<path class="st6" d="M335.5,169.9c0,0,3.6-11.2,15.1-13.3"/>
							<path class="st6" d="M366.8,340.3L353,366.6c0,0-45.4,76.9-30,126.6"/>
							<path class="st6" d="M407.1,428.5l44.7-76.6c0,0,58.6-85,64.6-97l20.7-38.2"/>
							<path class="st6" d="M348.7,291.1c0,0,79.5,58,103.1,60.8"/>
							<path class="st6" d="M390,148.4c0,0-0.1,36.4,9.7,51.3"/>
							<path class="st6" d="M565.2,220.1c-2.5,15-35.7,46.5-35.7,46.5"/>
							<path class="st7" d="M322.3,402c0,2.6-2.1,4.7-4.7,4.7s-4.7-2.1-4.7-4.7s2.1-4.7,4.7-4.7C320.2,397.3,322.3,399.4,322.3,402"
								/>
							<polygon class="st6" points="760.5,503.5 757.8,485.4 773.2,495.7 765.2,497.4 							"/>
							<path class="st6" d="M249.7,195.3c-29.2-25.8-77.4,38.5,99,242.8C450.6,556,530.5,566.5,541.4,525.5
								c19.4-73.6-50.8-92.2-24.6-63.4c38,41.9,146,50.8,226.5,11.6c79.4-38.6,30.6-98.5,25.7-102"/>
							<path class="st7" d="M749.2,473.5c0,2.6-2.1,4.7-4.7,4.7c-2.6,0-4.7-2.1-4.7-4.7s2.1-4.7,4.7-4.7l0,0
								C747.1,468.7,749.2,470.9,749.2,473.5"/>
							<line class="st6" x1="675.8" y1="512" x2="815.8" y2="433.1"/>
							<path class="st7" d="M257.4,199.1c0,2.6-2.1,4.7-4.7,4.7s-4.7-2.1-4.7-4.7s2.1-4.7,4.7-4.7S257.4,196.5,257.4,199.1
								L257.4,199.1"/>
							<path class="st14" d="M383.1,101.6c0,5.6-4.5,10.1-10.1,10.1s-10.1-4.5-10.1-10.1c0-5.6,4.5-10.1,10.1-10.1c0,0,0,0,0,0
								C378.6,91.5,383.1,96,383.1,101.6"/>
							<path class="st5" d="M189.2,24.4c-2.5,0-4.4,2-4.4,4.5c0,2.5,2,4.4,4.5,4.4c2.5,0,4.4-2,4.4-4.4
								C193.7,26.4,191.7,24.4,189.2,24.4C189.2,24.4,189.2,24.4,189.2,24.4"/>
							<path class="st15" d="M790.2,572.8c0,2.5-2,4.4-4.5,4.4c-2.5,0-4.4-2-4.4-4.5c0-2.5,2-4.4,4.4-4.4
								C788.2,568.4,790.2,570.4,790.2,572.8C790.2,572.8,790.2,572.8,790.2,572.8"/>
							<path class="st9" d="M706.2,371.8l-47.9-22.5c-2.5-1.2-3.5-4.2-2.2-6.7c0.5-1,1.3-1.8,2.3-2.3l89-39.2c1.3-0.6,2.7-0.6,4,0
								l61.2,26.2L706.2,371.8z"/>
							<path class="st16" d="M703.2,298c0.1,19.8,3,73.8,3,73.8l106.4-44.5l-2.4-75.1c-0.1-3.6-3.1-6.4-6.7-6.3
								c-0.9,0-1.7,0.2-2.5,0.6l-91.6,41.7C705.7,290,703.3,293.8,703.2,298"/>
							<path class="st6" d="M706.2,371.8l106.4-44.5l-2.4-75.1c0,0-0.7-8.2-9.1-5.7"/>
							<line class="st6" x1="757.7" y1="317.8" x2="764.9" y2="300.8"/>
							<line class="st6" x1="764.9" y1="317.8" x2="772.1" y2="300.8"/>
							<path class="st14" d="M212.9,498.5c0,2.5-2,4.4-4.5,4.4s-4.4-2-4.4-4.5c0-2.5,2-4.4,4.4-4.4
								C210.9,494.1,212.9,496.1,212.9,498.5L212.9,498.5"/>
							<path class="st14" d="M590,520.6c0,3.4-2.8,6.2-6.2,6.2s-6.2-2.8-6.2-6.2s2.8-6.2,6.2-6.2S590,517.2,590,520.6L590,520.6"/>
							<path class="st17" d="M254.6,564.6c17.6,8.1,36.8,12.2,56.2,12c1.4,0,2.5,1.1,2.5,2.5c0,0.1,0,0.2,0,0.3l-3.9,30.8
								c-0.1,1.1-1,2-2,2.2c-7.9,1.5-39.6,5.8-63.4-14.3c-0.7-0.6-1-1.6-0.8-2.6l7.8-29.4c0.4-1.4,1.7-2.2,3.1-1.8
								C254.2,564.4,254.4,564.5,254.6,564.6"/>
							<path class="st6" d="M257.4,573.6c0,0,13.7,19.3,18.6,22s31.3-13,31.3-13"/>
							<line class="st6" x1="288.9" y1="593" x2="303.3" y2="607.8"/>
							<line class="st6" x1="268.9" y1="590.1" x2="252" y2="594.7"/>
							<rect x="679.9" y="199.9" class="st18" width="16.1" height="16.1"/>
							<polygon class="st5" points="682.1,417.1 686.9,425.4 691.7,433.7 682.1,433.7 672.5,433.7 677.3,425.4 							"/>
							<path class="st6" d="M295,49.8l1.2-37.6c-0.1-3.5,1.3-4.6,3.5-5.1c10.2-2.3,41.3-9.2,75.1,0.8c4.4,1.3,4.2,3.6,4.2,5.7
								l-1.2,35.9c-0.1,2.6-2.8,4.5-5.9,4.1c-9.9-1.4-23.3-1.9-36.9-1.8c-14.1,0.1-26.6,1.2-35.4,2.9
								C296.1,55.2,294.9,52.7,295,49.8z"/>
							<path class="st6" d="M306.4,44.3l19.7-23l21.8,21.5C340.3,40.3,306.4,44.3,306.4,44.3z"/>
							<polyline class="st6" points="338.1,31.9 354,19.2 367.4,28.8 367.9,43.7 347.8,42.8 							"/>
							<path class="st6" d="M314.9,19c0.2,1.8-1.4,3.4-3.5,3.5c-2,0.2-3.8-1.1-4.2-3.1c-0.2-1.8,1.4-3.4,3.5-3.5
								C312.7,15.7,314.5,17,314.9,19z"/>
							<path class="st6" d="M675.5,538.9l13.2,24.4c1.4,2.2,0.9,3.4-0.3,4.5c-5.7,5.2-22.8,21.2-48,27.4c-3.3,0.8-4-0.7-4.8-2.1
								l-12.6-23.2c-0.9-1.7,0.1-3.9,2.2-4.8c6.8-2.8,15.5-7.5,24.1-12.6c7.6-4.4,14.7-9.4,21.4-15
								C672.7,535.8,674.5,537,675.5,538.9z"/>
							<path class="st6" d="M670.3,546.6l-3.9,21.9l-21.8-5.5C650.2,561.7,670.3,546.6,670.3,546.6z"/>
							<polyline class="st6" points="654.8,566.2 649.4,580.2 637.3,579.2 631.4,569.8 644.5,563 							"/>
							<path class="st6" d="M674.3,565.9c-0.7-1.1-0.4-2.7,0.7-3.4c0.1,0,0.1-0.1,0.2-0.1c1.2-0.9,2.8-0.7,3.8,0.4
								c0.7,1.1,0.4,2.7-0.7,3.4c-0.1,0-0.1,0.1-0.2,0.1C676.9,567.1,675.3,567,674.3,565.9z"/>
							<path class="st4" d="M611.2,122.7l53.6,41c1.2,0.9,2.8,0.7,3.7-0.5c0,0,0,0,0,0l8.1-11c0.9-1.1,0.6-2.8-0.5-3.6l-52.9-42.3
								c-1.1-0.9-2.8-0.7-3.7,0.4c0,0-0.1,0.1-0.1,0.1l-8.9,12.2C609.9,120.2,610.1,121.8,611.2,122.7"/>
							<path class="st6" d="M611.2,122.7l53.6,41c1.2,0.9,2.8,0.7,3.7-0.5c0,0,0,0,0,0l8.1-11c0.9-1.1,0.6-2.8-0.5-3.6l-52.9-42.3
								c-1.1-0.9-2.8-0.7-3.7,0.4c0,0-0.1,0.1-0.1,0.1l-8.9,12.2C609.8,120.2,610.1,121.9,611.2,122.7z"/>
							<polygon class="st14" points="615.2,120.9 628.2,130 635.9,120.9 622.9,110 							"/>
							<polygon class="st15" points="633.1,133.6 646.1,143.9 653.1,135.3 640,124.7 							"/>
							<polygon class="st5" points="650.5,147.9 663.5,157 669.7,149.1 657.4,138.8 							"/>
							<path class="st4" d="M718.2,65.3L730.5,168c0.3,2.2,2.3,3.8,4.5,3.5c0,0,0,0,0.1,0l20.7-2.8c2.2-0.3,3.7-2.2,3.5-4.4
								l-10-103.2c-0.2-2.2-2.2-3.9-4.4-3.6c-0.1,0-0.1,0-0.2,0l-22.9,3.3C719.5,61.2,718,63.2,718.2,65.3"/>
							<path class="st6" d="M718.2,65.3L730.5,168c0.3,2.2,2.3,3.8,4.5,3.5c0,0,0,0,0.1,0l20.7-2.8c2.2-0.3,3.7-2.2,3.5-4.4
								l-10-103.2c-0.2-2.2-2.2-3.9-4.4-3.6c-0.1,0-0.1,0-0.2,0l-22.9,3.3C719.5,61.2,718,63.2,718.2,65.3z"/>
							<polygon class="st14" points="724.5,67.8 728.4,91.8 746.6,90.4 744.6,64.6 							"/>
							<polygon class="st19" points="729.7,100.9 732.2,126.3 749.1,124.8 746.8,99 							"/>
							<polygon class="st15" points="732.6,135.3 736.5,159.3 751.8,157.6 750,133.1 							"/>
							<path class="st4" d="M691.6,87.2l33.8,99.5c0.6,1.7,2.4,2.6,4.1,2c0,0,0,0,0.1,0l21.2-7.6c1.6-0.6,2.5-2.3,2-4L721,76.6
								c-0.5-1.7-2.4-2.6-4.1-2.1c0,0-0.1,0-0.1,0l-23.3,8.6C691.9,83.8,691,85.6,691.6,87.2"/>
							<path class="st6" d="M691.6,87.2l33.8,99.5c0.6,1.7,2.4,2.6,4.1,2c0,0,0,0,0.1,0l21.2-7.6c1.6-0.6,2.5-2.3,2-4L721,76.6
								c-0.5-1.7-2.4-2.6-4.1-2.1c0,0-0.1,0-0.1,0l-23.3,8.6C691.9,83.8,691,85.6,691.6,87.2z"/>
							<polygon class="st5" points="698.4,89 707.2,111.7 724.8,106.6 717.5,81.7 							"/>
							<polygon class="st8" points="710.4,120.4 718.2,144.7 734.4,139.7 726.8,115 							"/>
							<polygon class="st15" points="720.4,153.4 729.2,176.1 743.8,171.3 736.9,147.7 							"/>
							<path class="st10" d="M436.5,255.7H265.6c-5.5,0-9.9-4.4-9.9-9.9c0,0,0,0,0,0v-23.1c0-5.4,4.4-9.9,9.9-9.9c0,0,0,0,0,0h170.9
								c5.5,0,9.9,4.4,9.9,9.9v23.1C446.4,251.3,442,255.7,436.5,255.7C436.5,255.7,436.5,255.7,436.5,255.7"/>
							<path class="st4" d="M372.5,232h-93.2c-1.8,0-3.3-1.5-3.3-3.3c0-1.8,1.5-3.3,3.3-3.3h93.2c1.8,0,3.3,1.5,3.3,3.3
								C375.7,230.5,374.3,232,372.5,232"/>
							<line class="st6" x1="277" y1="240.5" x2="435.4" y2="240.5"/>
							<path class="st19" d="M198.6,135.2l-2.6-2.9l-9,8.1l2.7,3c1.1,1.2,3.1,1.3,4.3,0.2c0,0,0,0,0,0l4.4-4
								C199.7,138.5,199.8,136.5,198.6,135.2C198.6,135.3,198.6,135.3,198.6,135.2"/>
							<path class="st6" d="M171.8,124l8.8-8c0.7-0.7,1.8-0.6,2.5,0.1l12.7,13.9c0.7,0.7,0.6,1.8-0.1,2.5l-8.8,8
								c-0.7,0.7-1.8,0.6-2.5-0.1l-12.7-13.9C171,125.8,171.1,124.7,171.8,124z"/>
							<rect x="142.4" y="189.7" class="st14" width="16" height="14.6"/>
							<polyline class="st6" points="142.4,180.3 142.4,189.7 132.9,189.7 							"/>
							<rect x="668.5" y="25.1" class="st15" width="16" height="14.6"/>
							<polyline class="st6" points="668.5,15.7 668.5,25.1 658.9,25.1 							"/>
							<path class="st6" d="M236.3,115.2c-165.5-68.6-293,63.5,19.1,265.9c24.6,15.9,62.2,21.5,62.2,21.5"/>
							<path class="st7" d="M88.8,119.8c0,2.6-2.1,4.7-4.7,4.7c-2.6,0-4.7-2.1-4.7-4.7c0-2.6,2.1-4.7,4.7-4.7
								C86.7,115.1,88.8,117.2,88.8,119.8C88.8,119.8,88.8,119.8,88.8,119.8"/>
							<polygon class="st6" points="54,93.9 59.2,88.9 71.1,95.7 77.1,114.2 58.8,106.5 							"/>
							<polygon class="st6" points="59.2,88.9 54,93.9 51.2,90.4 56.1,85.6 							"/>
							<line class="st6" x1="77.1" y1="114.2" x2="65.2" y2="101.1"/>
							<path class="st4" d="M105.8,444.6l12.9,66.3c0.3,1.4,1.7,2.4,3.1,2.1c0,0,0,0,0.1,0l13.3-2.8c1.4-0.3,2.3-1.6,2.1-3
								l-11.5-66.8c-0.2-1.4-1.6-2.4-3-2.2c-0.1,0-0.1,0-0.2,0l-14.7,3.3C106.4,441.8,105.5,443.2,105.8,444.6"/>
							<path class="st6" d="M105.8,444.6l12.9,66.3c0.3,1.4,1.7,2.4,3.1,2.1c0,0,0,0,0.1,0l13.3-2.8c1.4-0.3,2.3-1.6,2.1-3
								l-11.5-66.8c-0.2-1.4-1.6-2.4-3-2.2c-0.1,0-0.1,0-0.2,0l-14.7,3.3C106.4,441.8,105.5,443.2,105.8,444.6z"/>
							<polygon class="st14" points="109.9,445.9 113.6,461.3 125.4,459.6 122.9,442.8 							"/>
							<polygon class="st15" points="114.9,467.2 117.8,483.6 128.7,481.8 126,465.2 							"/>
							<polygon class="st5" points="118.4,489.5 122.1,505 132,503.1 129.6,487.2 							"/>
							<polygon class="st6" points="474.2,610.8 528.6,596.2 530.6,602.1 475.6,616.4 							"/>
							<line class="st6" x1="466.6" y1="603.2" x2="468.2" y2="608.1"/>
							<line class="st6" x1="465.1" y1="606.4" x2="469.7" y2="604.8"/>
							<line class="st6" x1="464" y1="622" x2="467" y2="631.3"/>
							<line class="st6" x1="461.5" y1="627.9" x2="469.6" y2="625.3"/>
							<line class="st6" x1="451.6" y1="606.7" x2="455.4" y2="619"/>
							<line class="st6" x1="447.7" y1="614.3" x2="459.2" y2="610.7"/>
							<polygon class="st20" points="77.7,20.1 43.3,4.5 44.7,0.6 79.3,16.5 							"/>
							<line class="st20" x1="78.4" y1="27.2" x2="79.7" y2="24"/>
							<line class="st20" x1="80.6" y1="26.2" x2="77.5" y2="25.1"/>
							<line class="st20" x1="87.8" y1="18.6" x2="90.2" y2="12.5"/>
							<line class="st20" x1="91.6" y1="16.6" x2="86.2" y2="14.4"/>
							<line class="st20" x1="87.7" y1="31.8" x2="90.9" y2="23.8"/>
							<line class="st20" x1="92.9" y1="29.5" x2="85.4" y2="26.5"/>
							<path class="st15" d="M206.3,310.7c-24.2-17.5-48.1-44.6-37.6-72.5c0,0,16.7-11.1,43.2,2.8l26.5,13.9L206.3,310.7z"/>
							<path class="st4" d="M195.3,427c-10.9-5.2-57.5-29.4-65.8-70.9c-7.2-35.8,20.2-84.1,33.9-105.4
								c-0.9,28.3,27.6,52.3,41.3,62.2c13.9,10,24.1,14.9,38.2,20.2L195.3,427z"/>
							<path class="st15" d="M161.4,259.1c3,18.8,17.3,38.3,41.8,55.9c11,8.1,23.1,14.7,36,19.5l-45,88.9
								c-13.7-6.8-54.4-30-61.9-67.8C125.9,324.2,147.2,282.5,161.4,259.1 M168.7,238.2c0,0-51.6,69.7-41.8,118.5
								s69.7,73.9,69.7,73.9l50.2-99c-15.7-5.8-25.9-10.4-40.4-20.9C182.1,293.2,158.2,266.1,168.7,238.2"/>
							<path class="st6" d="M155.1,278.7c0,0,3,28,31,43"/>
							<line class="st6" x1="201.1" y1="331.7" x2="229.1" y2="346.7"/>
							<path class="st6" d="M159.1,318.7c0,0,9,20,38,33"/>
							<path class="st6" d="M136.1,321.7c0,0,1,21,15,28"/>
							<path class="st6" d="M168.1,248.7c0,0-2.6,27,38.2,62"/>
							<path class="st6" d="M183.1,253.7c0,0,13-1,32,13"/>
							<path class="st6" d="M122,339.8c-0.8,13.4,0.8,61.8,71,92.8"/>
							<path class="st19" d="M570.2,312.8l-29.8,59.7c0,0,20.2,7.4,4.4,30.6c0,0,37.3,15.5,61.8-24.7S570.2,312.8,570.2,312.8"/>
							<path class="st4" d="M502.1,495.2c-15.1,0-31-6.1-47.3-18.3l55.7-92.3l33.1,20.9l0.2,0.1c5.8,2.1,11.9,3.2,18.1,3.1
								c10.5,0.1,20.7-3.2,29.2-9.2l-40.7,69.7C550.3,469.3,532.8,495.2,502.1,495.2L502.1,495.2z"/>
							<path class="st21" d="M511.4,388.4l30.6,19.3l0.4,0.2l0.4,0.2c6.1,2.3,12.6,3.4,19.1,3.3c7.5,0,14.9-1.5,21.8-4.6l-35.5,60.8
								c-1.2,1.7-17.7,24.9-46.1,24.9c-13.9,0-28.6-5.5-43.7-16.3L511.4,388.4 M606.6,378.4c-13.8,22.7-31.7,27.6-44.7,27.6
								c-5.8,0-11.6-0.9-17.1-2.9l-35.3-22.2l-58.4,96.7c19.5,15.1,36.6,20.3,50.9,20.3c32.6,0,50.7-27.4,50.7-27.4L606.6,378.4z"/>
							<path class="st6" d="M540.5,372.5c0,0,22.2,7.8,4.4,30.6"/>
							<path class="st6" d="M508.9,378.8c0,0,30.3,27.7,47,27.5s36.4-4.2,48-24.1"/>
							<path class="st6" d="M512.6,414.6c0,0,20.8,18.4,44,12.5"/>
							<path class="st6" d="M534.4,442.2c0,0,10.9,8.2,26.1,0.4"/>
							<path class="st6" d="M484.3,453.6c0,0,25.1,25,64.7,8.5"/>
							<path class="st6" d="M498,429.2c0,0,10.2,7.3,16.7,9.7"/>
							<path class="st6" d="M575.3,330.1c0,0,23,7.5,25.7,37.8"/>
							<path class="st6" d="M586.9,367.6c0,0,10.6,16.4-7.3,32.7"/>
							<path class="st6" d="M453.4,482.1c0,0,57.6,49.4,99.4-8.4"/>
							<line class="st22" x1="37.4" y1="294.2" x2="50.8" y2="294.2"/>
							<line class="st22" x1="785.8" y1="132.6" x2="799.2" y2="132.6"/>
							<line class="st23" x1="425.5" y1="40.4" x2="438.9" y2="40.4"/>
							<line class="st23" x1="811.4" y1="202.3" x2="824.6" y2="204.7"/>
							<line class="st24" x1="283.7" y1="537.5" x2="297.1" y2="537.5"/>
							<path class="st19" d="M844.8,370c0,2.5-2,4.4-4.5,4.4s-4.5-2-4.5-4.5c0-2.5,2-4.4,4.5-4.4C842.8,365.6,844.8,367.5,844.8,370
								"/>
							<path class="st19" d="M8.9,156.5c0,2.5-2,4.4-4.4,4.4S0,159,0,156.5c0-2.5,2-4.4,4.4-4.4c0,0,0,0,0,0
								C6.9,152.1,8.9,154.1,8.9,156.5"/>
							<path class="st6" d="M1162.1,495.6c0,0,37.1-110.4-128.6-45.2C861.2,518,792.4,659.9,820.7,671.1s70.3-14.1,70.3-14.1"/>
						</g>
					</g>
				</g>
			</g>
		</g>
	</g>
</g>
<g>
	<g>
		<g>
			<g>
				<path class="st25" d="M664.4,542.9c-11.7-3.9-21.7-12.7-26.7-25.1c-4.4-10.8-4.3-22.7,0.3-33.5c4.6-10.8,13-19.1,23.9-23.5
					l41.2-16.7l7.7,19.1l-41.2,16.7c-5.7,2.3-10.2,6.7-12.6,12.4c-2.4,5.7-2.5,12-0.1,17.7c4.8,11.8,18.3,17.6,30.2,12.8l41.2-16.7
					l7.7,19.1L694.7,542C684.7,546,674,546.1,664.4,542.9z"/>
			</g>
			<g>
				<g>
					<path class="st26" d="M664.4,542.9c-11.7-3.9-21.7-12.7-26.7-25.1c-4.4-10.8-4.3-22.7,0.3-33.5c4.6-10.8,13-19.1,23.9-23.5
						l41.2-16.7l7.7,19.1l-41.2,16.7c-5.7,2.3-10.2,6.7-12.6,12.4c-2.4,5.7-2.5,12-0.1,17.7c4.8,11.8,18.3,17.6,30.2,12.8l41.2-16.7
						l7.7,19.1L694.7,542C684.7,546,674,546.1,664.4,542.9z"/>
				</g>
			</g>
			
				<rect x="689.1" y="446.8" transform="matrix(0.9325 -0.3611 0.3611 0.9325 -117.9507 283.0295)" class="st27" width="18.7" height="20.8"/>
			<polygon class="st27" points="710.7,513.3 718.3,532.5 735.9,525.3 728.2,506.2 			"/>
			<g>
				<g>
					<path class="st28" d="M661.4,535.1c-11.7-3.9-21.7-12.7-26.7-25.1c-4.4-10.8-4.3-22.7,0.3-33.5c4.6-10.8,13-19.1,23.9-23.5
						l41.2-16.7l7.7,19.1l-41.2,16.7c-5.7,2.3-10.2,6.7-12.6,12.4c-2.4,5.7-2.5,12-0.1,17.7c4.8,11.8,18.3,17.6,30.2,12.8l41.2-16.7
						l7.7,19.1l-41.2,16.7C681.7,538.2,671,538.3,661.4,535.1z"/>
				</g>
			</g>
			<polygon class="st29" points="683.1,443.3 690.5,462.5 708,455.7 700.4,436.3 			"/>
			<polygon class="st29" points="707.7,505.5 715.3,524.8 732.9,517.5 725.2,498.4 			"/>
			<g>
				<defs>
					<path id="SVGID_00000145743074703917419230000012459031497231974077_" d="M732.9,517.5l-7.7-19.1L684,515.1
						c-10.7,4.3-22.7,0.1-28.5-9.4c-0.8-4.4-0.4-9,1.4-13.3c2.4-5.7,6.9-10.1,12.6-12.4l23.9-9.7l17.4-6.8l-3-7.8l-4.5-11.7l-3-7.8
						l-0.3,0.1l0,0l-41.2,16.7c-10.8,4.4-19.3,12.7-23.9,23.5c-4.6,10.8-4.7,22.6-0.3,33.5c0.4,1,0.9,2,1.4,3c0.4,1.6,1,3.2,1.6,4.8
						c5,12.3,15,21.1,26.7,25.1c9.5,3.2,20.2,3.1,30.3-0.9l41.2-16.7l-3.1-7.7L732.9,517.5z"/>
				</defs>
				<clipPath id="SVGID_00000145748693180573855080000016578413430249642631_">
					<use xlink:href="#SVGID_00000145743074703917419230000012459031497231974077_"  style="overflow:visible;"/>
				</clipPath>
				<path style="opacity:0.3;clip-path:url(#SVGID_00000145748693180573855080000016578413430249642631_);fill:#FFFFFF;" d="
					M671,447.7l-2.9,89.1c0,0,6.7,1.6,11.7,0.3l1.4-93L671,447.7z"/>
				
					<polygon style="opacity:0.3;clip-path:url(#SVGID_00000145748693180573855080000016578413430249642631_);fill:#FFFFFF;" points="
					666.5,450 663.4,535.7 657.1,532.9 661.7,451.9 				"/>
			</g>
		</g>
		<path class="st31" d="M717.5,491.2l19.4-14.8c0.2-0.1,0.4,0,0.5,0.2l1.3,5.4c0,0.2,0.2,0.3,0.4,0.2l15.1-3
			c0.3-0.1,0.5,0.4,0.2,0.6l-20.2,12.3c-0.2,0.1-0.4,0-0.5-0.2l-1.4-4.4c-0.1-0.2-0.2-0.3-0.4-0.2l-14.3,4.3
			C717.4,491.9,717.2,491.4,717.5,491.2z"/>
		<path class="st31" d="M723.5,468.7l27.7-21.1c0.3-0.2,0.6-0.1,0.7,0.2l1.9,7.8c0.1,0.2,0.3,0.4,0.5,0.3l21.6-4.2
			c0.5-0.1,0.7,0.6,0.3,0.8l-28.8,17.6c-0.2,0.2-0.6,0-0.7-0.2l-2-6.3c-0.1-0.2-0.3-0.4-0.6-0.3l-20.3,6.1
			C723.4,469.6,723.1,469,723.5,468.7z"/>
	</g>
	<g>
		<path class="st32" d="M712.9,73.2c-1.4,5.5-7.1,8.9-12.6,7.4c-5.5-1.4-8.9-7.1-7.4-12.6c1.4-5.5,7.1-8.9,12.6-7.4
			C711,62,714.3,67.7,712.9,73.2z"/>
		<path class="st32" d="M680.2,90.7c0,0,5.5-16.3,20.5-12.4c15.7,4.1,12.2,20.9,12.2,20.9L680.2,90.7z"/>
	</g>
	<g>
		<path class="st33" d="M151.4,313l15.8,73.2c0.9,4.2,4.4,7.2,8.5,7.2l107.9,0.2c3.9,0,10.4-7.1,9.5-11.1l-20.4-69
			c-0.6-2.8-3-4.8-5.7-4.8l-108.9-4.6C151.3,304.1,150.9,310.8,151.4,313z"/>
		<path class="st34" d="M154.9,308.3l15.8,73.2c0.9,4.2,4.4,7.2,8.5,7.2l107.9,0.2c3.9,0,6.7-3.9,5.8-7.8l-16.7-72.3
			c-0.6-2.8-3-4.8-5.7-4.8l-112.4,0.1C156,304.1,154.4,306.2,154.9,308.3z"/>
		<path class="st35" d="M157.2,318.9l-2.2-10.5c-0.5-2.2,1.1-4.3,3.2-4.3l112.3-0.1c2.7,0,5.1,2,5.8,4.8l2.1,9L157.2,318.9z"/>
		<path class="st25" d="M170.6,311.6c0,1.7-1.4,3.2-3.2,3.2c-1.7,0-3.2-1.4-3.2-3.2c0-1.7,1.4-3.2,3.2-3.2
			C169.2,308.4,170.6,309.8,170.6,311.6z"/>
		<path class="st31" d="M178.9,311.6c0,1.7-1.4,3.2-3.2,3.2c-1.7,0-3.2-1.4-3.2-3.2c0-1.7,1.4-3.2,3.2-3.2
			C177.5,308.4,178.9,309.8,178.9,311.6z"/>
		<path class="st36" d="M187.2,311.6c0,1.7-1.4,3.2-3.2,3.2c-1.7,0-3.2-1.4-3.2-3.2c0-1.7,1.4-3.2,3.2-3.2
			C185.8,308.4,187.2,309.8,187.2,311.6z"/>
		<g>
			<g>
				<g>
					<path class="st37" d="M217.3,335.3c0,0.1-10,0.3-22.3,0.3c-12.3,0-22.3-0.1-22.3-0.3c0-0.1,10-0.3,22.3-0.3
						C207.3,335,217.3,335.1,217.3,335.3z"/>
				</g>
			</g>
		</g>
		<g>
			<g>
				<g>
					<path class="st37" d="M223.9,357.4c0,0.1-10,0.3-22.3,0.3c-12.3,0-22.3-0.1-22.3-0.3c0-0.1,10-0.3,22.3-0.3
						C213.9,357.2,223.9,357.3,223.9,357.4z"/>
				</g>
			</g>
		</g>
		<g>
			<g>
				<g>
					<path class="st37" d="M227.7,369.6c0,0.1-10,0.3-22.3,0.3c-12.3,0-22.3-0.1-22.3-0.3c0-0.1,10-0.3,22.3-0.3
						C217.7,369.3,227.7,369.4,227.7,369.6z"/>
				</g>
			</g>
		</g>
		<g>
			<g>
				<g>
					<path class="st37" d="M220.4,346.5c0,0.1-10,0.3-22.3,0.3c-12.3,0-22.3-0.1-22.3-0.3c0-0.1,10-0.3,22.3-0.3
						C210.4,346.2,220.4,346.4,220.4,346.5z"/>
				</g>
			</g>
		</g>
		<g>
			<path class="st38" d="M270.5,373.4h-23.4c-5.1,0-10.1-4.2-11-9.5l-4.2-22.4c-1-5.2,2.5-9.5,7.7-9.5h24c5.2,0,10.2,4.2,11,9.5
				l3.6,22.4C279.1,369.2,275.6,373.4,270.5,373.4z"/>
			<g>
				<path class="st39" d="M276.2,349c-3.5-2.5-8.7-3.7-12.5-3.2c-3.9,0.5-5.7,2.5-7.4,6.2c-1,2.2-1.9,7.4-4.2,8.2
					c-1.9,0.7-5.2-2.5-7.7-3.3c-3.6-1.1-7,1-8.7,3.8l1.1,5.9c0.7,3.7,4.2,6.8,7.9,6.8h28.6c3.7,0,6.2-3.1,5.5-6.9L276.2,349z"/>
			</g>
			<path class="st39" d="M248.4,343.1c0.5,2.9-1.4,5.3-4.3,5.3c-2.9,0-5.6-2.4-6.2-5.3c-0.5-2.9,1.4-5.3,4.3-5.3
				C245.1,337.8,247.9,340.2,248.4,343.1z"/>
		</g>
	</g>
	<g>
		<polygon class="st25" points="169.9,421 189.3,491.1 211.9,491.1 215.8,488.5 191.1,418.7 173.8,418.4 		"/>
		<polygon class="st25" points="204,442.2 218.2,491.4 238.8,491.4 244.7,488 223.5,441.8 207.8,438.4 		"/>
		<polygon class="st25" points="236.6,465.5 244.7,491.9 267.3,491.9 272,488.5 261.1,465.5 241.3,462.1 		"/>
		<polygon class="st40" points="169.9,421 189.3,491.1 211.9,491.1 215.8,488.5 191.1,418.7 173.8,418.4 		"/>
		<polygon class="st40" points="204,442.2 218.2,491.4 238.8,491.4 244.7,488 223.5,441.8 207.8,438.4 		"/>
		<polygon class="st40" points="236.6,465.5 244.7,491.9 267.3,491.9 272,488.5 261.1,465.5 241.3,462.1 		"/>
		<polygon class="st41" points="173.8,418.4 193.2,488.5 215.8,488.5 195.4,418.4 		"/>
		<polygon class="st41" points="207.8,438.4 222.1,488 244.7,488 229.4,438.4 		"/>
		<polygon class="st41" points="241.3,462.1 249.4,488.5 272,488.5 265.8,462.1 		"/>
	</g>
	<g>
		<polyline class="st31" points="149,175.6 253.1,173.3 256.4,169.6 234.8,106.4 132.6,103.8 		"/>
	</g>
	<g class="st42">
		<polyline points="149,175.6 253.1,173.3 256.4,169.6 234.8,106.4 132.6,103.8 		"/>
	</g>
	<g>
		<polyline class="st31" points="132.6,103.8 152.3,171.9 256.4,169.6 238.1,102.7 132.6,103.8 		"/>
	</g>
	<g>
		<g>
			<g>
				<path d="M238.1,102.7c0,0-0.1,0.1-0.2,0.2c-0.1,0.2-0.3,0.4-0.5,0.7c-0.5,0.6-1.2,1.5-2.1,2.6c-1.9,2.3-4.6,5.5-7.9,9.6
					c-6.8,8.1-16.2,19.4-27,32.2l-0.1,0.2L200,148c-2.9-1.9-6-3.9-9.1-5.9c-16.1-10.5-30.7-20.1-41.3-27c-5.2-3.5-9.5-6.3-12.5-8.2
					c-1.4-1-2.6-1.7-3.4-2.3c-0.4-0.3-0.7-0.4-0.9-0.6c-0.2-0.1-0.3-0.2-0.3-0.2c0,0,0.1,0.1,0.3,0.2c0.2,0.1,0.5,0.3,0.9,0.6
					c0.8,0.5,2,1.2,3.4,2.2c3,1.9,7.3,4.7,12.6,8.1c10.6,6.9,25.2,16.4,41.4,26.9c3.1,2,6.2,4,9.1,5.9l-0.3,0
					c10.8-12.7,20.3-24,27.1-32.1c3.4-4,6.1-7.2,8.1-9.5c0.9-1.1,1.7-1.9,2.2-2.5c0.2-0.3,0.4-0.5,0.6-0.6
					C238,102.8,238.1,102.7,238.1,102.7z"/>
			</g>
		</g>
	</g>
	<g>
		<g>
			<g>
				<path d="M178.7,133.8c0.1,0.1-5.7,8.7-13,19.2c-7.3,10.5-13.3,19-13.4,18.9c-0.1-0.1,5.7-8.7,13-19.2
					C172.6,142.2,178.6,133.7,178.7,133.8z"/>
			</g>
		</g>
	</g>
	<g>
		<g>
			<g>
				<path d="M215.6,129.4c0.1-0.1,9.3,8.8,20.6,19.9c11.3,11.1,20.3,20.2,20.2,20.3c-0.1,0.1-9.3-8.8-20.6-19.9
					C224.6,138.6,215.5,129.5,215.6,129.4z"/>
			</g>
		</g>
	</g>
	<polyline class="st43" points="132.6,103.8 152.3,171.9 256.4,169.6 238.1,102.7 132.6,103.8 	"/>
	<g>
		<g>
			<circle class="st25" cx="507.2" cy="83.4" r="83.4"/>
			<circle class="st26" cx="507.2" cy="83.4" r="83.4"/>
		</g>
		<circle class="st25" cx="518.5" cy="83.4" r="83.4"/>
		<g>
			<defs>
				<circle id="SVGID_00000085967273624855715970000000912810507179546278_" cx="518.5" cy="83.4" r="83.4"/>
			</defs>
			<clipPath id="SVGID_00000016061999108092045200000012861784874281270956_">
				<use xlink:href="#SVGID_00000085967273624855715970000000912810507179546278_"  style="overflow:visible;"/>
			</clipPath>
			<g style="clip-path:url(#SVGID_00000016061999108092045200000012861784874281270956_);">
				<circle class="st25" cx="507.2" cy="83.4" r="83.4"/>
				<circle class="st42" cx="507.2" cy="83.4" r="83.4"/>
			</g>
			
				<circle style="clip-path:url(#SVGID_00000016061999108092045200000012861784874281270956_);fill:#FF3358;" cx="518.5" cy="83.4" r="83.4"/>
		</g>
		<circle class="st4" cx="518.5" cy="83.4" r="60.6"/>
		<circle class="st28" cx="518.5" cy="83.4" r="39.3"/>
		<ellipse transform="matrix(0.2287 -0.9735 0.9735 0.2287 318.6812 569.0748)" class="st4" cx="518.5" cy="83.4" rx="18" ry="18"/>
		<line class="st46" x1="518.5" y1="83.4" x2="624.4" y2="16.1"/>
		<polygon class="st37" points="600.4,32.4 601.9,14 618.1,1.4 617.3,21.8 		"/>
		<polygon class="st37" points="635.7,26 618.1,20.7 600.4,31.1 619.7,37.9 		"/>
		<g>
			<g>
				<g>
					<path d="M528.7,87.9c0,0-0.3,0.2-0.9,0.3c-0.6,0.1-1.4,0.3-2.4,0.3c-2.1,0-5.1-0.8-7.4-3.1c-2.3-2.3-3-5.4-3-7.4
						c0-1,0.1-1.9,0.3-2.4c0.2-0.6,0.3-0.9,0.3-0.8c0.1,0-0.3,1.2-0.2,3.3c0.1,2,0.9,4.9,3,7.1c2.2,2.2,5,3,7,3.1
						C527.4,88.2,528.6,87.8,528.7,87.9z"/>
				</g>
			</g>
		</g>
	</g>
	<g>
		<path class="st47" d="M229.7,154.3l128.6,457.1c6.6,23.5,27.3,35.7,51.7,34.2l211.2-11.5c16.6-1,27.9-17.2,23.3-33.1L507.1,129.1
			c-3.3-11.3-13.7-18.9-25.5-18.6l-223,5.3C241.8,116.2,225.4,138.1,229.7,154.3z"/>
		<g>
			<g>
				<g>
					<path class="st4" d="M640.4,623.6c0,0-0.7,0.1-2,0.1c-1.3,0.1-3.3,0.2-5.9,0.4c-5.2,0.3-12.9,0.8-22.7,1.4
						c-19.7,1.2-48.3,3-83.6,5.2c-17.6,1.1-37,2.3-57.7,3.5c-10.4,0.6-21.1,1.3-32.1,2c-5.5,0.3-11.1,0.7-16.8,1
						c-5.7,0.4-11.5,0.6-17.3-0.1c-5.8-0.7-11.6-2.3-17-4.9c-0.7-0.3-1.3-0.7-2-1c-0.6-0.4-1.3-0.8-1.9-1.2
						c-0.6-0.5-1.2-0.9-1.8-1.4l-1.7-1.5c-2.2-2.1-4.1-4.6-5.7-7.2c-3.3-5.2-5.6-11-7.4-17c-1.8-6-3.4-12.1-5.1-18.2
						c-6.8-24.5-13.7-49.9-20.9-75.9c-28.6-104-54.5-198.2-73.3-266.4c-9.4-34.1-16.9-61.7-22.2-80.7c-2.6-9.5-4.6-16.9-6-22
						c-0.7-2.5-1.2-4.4-1.5-5.7c-0.3-1.3-0.5-2-0.5-2s0.2,0.7,0.6,1.9c0.4,1.3,0.9,3.2,1.6,5.7c1.4,5,3.4,12.4,6.1,21.9
						c5.3,19.1,12.9,46.6,22.3,80.7c18.8,68.2,44.8,162.3,73.4,266.3c7.2,26,14.1,51.4,20.9,75.9c1.7,6.1,3.3,12.2,5.1,18.2
						c1.9,5.9,4.2,11.7,7.4,16.9c1.6,2.6,3.5,5,5.6,7.1l1.7,1.5c0.6,0.5,1.2,0.9,1.8,1.3c0.6,0.4,1.3,0.8,1.9,1.2
						c0.7,0.4,1.3,0.7,2,1c5.4,2.6,11.1,4.2,16.9,4.9c5.8,0.7,11.6,0.5,17.2,0.1c5.7-0.3,11.3-0.7,16.8-1c11-0.7,21.8-1.3,32.1-1.9
						c20.7-1.2,40.1-2.4,57.7-3.5c35.3-2.1,63.8-3.8,83.6-5c9.9-0.6,17.5-1,22.7-1.3c2.6-0.1,4.6-0.3,5.9-0.3
						C639.7,623.7,640.4,623.6,640.4,623.6z"/>
				</g>
			</g>
		</g>
		<path class="st4" d="M414.3,129l-79.8,2.3c-1.5,0-2.7-1.1-2.8-2.6l0,0c0-1.5,1.1-2.7,2.6-2.8l79.8-2.3c1.5,0,2.7,1.1,2.8,2.6l0,0
			C417,127.7,415.8,129,414.3,129z"/>
		<g>
			<path class="st34" d="M484.6,139.1L267.8,142c-3.9,0.1-6.7,3.8-5.7,7.6L380.7,575c3,10.8,13.1,18.2,24.3,17.8l204-7.6
				c9.6-0.4,16.4-9.7,13.7-18.9L505.2,154.4C502.6,145.3,494.1,139,484.6,139.1z"/>
		</g>
		<polygon class="st48" points="371.9,140.6 288.9,244.1 296.4,271.4 397.4,140.4 		"/>
		<polygon class="st48" points="358.5,140.8 284.4,229.4 281.9,220.3 351.1,140.9 		"/>
		<polygon class="st42" points="506.4,640.4 506.4,475.7 422.3,490.8 421.4,452.3 534.4,443.4 526.7,639.3 		"/>
	</g>
	<g>
		<g>
			<path class="st49" d="M528.4,231.7c-5.5-2.9-8.5-6.3-11.2-11.9c6.4,3.6,13.9,5.2,21.2,4.5c0.5-4.9,0.4-3.7,0.8-8.6
				c-8.6-2.4-17.4-4.8-24.9-9.8c-7.5-5-17.5-13.4-19.3-22.2c-1.3-6.6,5.4-9.4,9.1-19.7c3.2-8.7,1.7-16.8-3.4-25.1
				c-2.5-4-5.5-7.5-8.8-10.9c-6.2-6.4-15.6-9.8-24.4-7.5c-9.1-8.8-34.1-5.8-44.6-1c-10.4,4.9-15,6.1-21.7,15.5
				c-11.1,15.8-21.3,42.7-18.9,61.9c2.4,19.2,14.3,37.6,31.9,45.6c8.9,4,18.7,5.4,28.3,7c9.6,1.6,19.4,3.4,27.8,8.3
				c8.4,4.9,15.4,13.3,15.9,23.1c21.3-8.7,39.8-25.3,50.6-46.3C536.8,234.5,535.4,235.3,528.4,231.7z"/>
		</g>
		<g>
			<g>
				<path class="st50" d="M406.9,224.1L406.9,224.1l7.6-44.2l10.3-36.2l40.1-18.3l5.3,2.5c12.3,5.8,22.9,17.4,19.8,31.9l0,0.2
					c0,0-6.8,34.3-13.1,44.9c-7.9,13.2-18.2,11.3-22.1,16.3c-2.2,2.9-3.3,7.1-3.8,10.9c-0.9,6.8-6,12.4-12.8,13.6
					C429.3,247.3,417,244.5,406.9,224.1z"/>
				<path class="st51" d="M485.5,156.3c-0.3-0.7-0.9-1.1-1.5-1.4c-0.6-0.3-1.2-0.5-1.9-0.6c-0.1,0-0.1,0-0.2,0
					c-0.3-0.1-0.7-0.1-1-0.1c-0.4,0-0.8,0-1.2,0c0,0-0.1,0-0.1,0c-0.4,0.1-0.9,0.2-1.3,0.3c0,0-0.1,0-0.1,0l0,0
					c-0.1,0-0.1,0-0.2,0.1c-0.8,0.3-1.6,0.7-2.1,1.4c-0.5,0.7-0.7,1.9-0.2,2.5c0.3,0.4,0.8,0.6,1.3,0.8c0.7,0.2,1.4,0.4,2.1,0.7
					c0.9,0.3,1.9,0.6,2.8,0.6c1,0,2-0.3,2.8-1.1C485.5,158.7,485.9,157.4,485.5,156.3z"/>
				<path class="st51" d="M458.8,152.3c-0.3-0.7-0.9-1.1-1.5-1.4c-0.6-0.3-1.2-0.5-1.9-0.6c-0.1,0-0.1,0-0.2,0
					c-0.3-0.1-0.7-0.1-1-0.1c-0.4,0-0.8,0-1.2,0c0,0-0.1,0-0.1,0c-0.4,0.1-0.9,0.2-1.3,0.3c0,0-0.1,0-0.1,0l0,0
					c-0.1,0-0.1,0-0.2,0.1c-0.8,0.3-1.6,0.7-2.1,1.4c-0.5,0.7-0.7,1.9-0.2,2.5c0.3,0.4,0.8,0.6,1.3,0.8c0.7,0.2,1.4,0.4,2.1,0.7
					c0.9,0.3,1.9,0.6,2.8,0.6c1,0,2-0.3,2.8-1.1C458.9,154.7,459.3,153.3,458.8,152.3z"/>
				<path d="M448,165.6c0.3-1.2,0.4-2.6,1.4-3.5l0.2-0.1c0.9-0.2,1.9-0.2,2.6,0.4c0.6,0.5,0.8,1.5,0.8,2.3c-0.1,1.2-0.6,2.3-1,3.3
					c-0.3,0.6-0.5,1.1-0.9,1.6c-0.4,0.5-0.9,0.8-1.5,0.8c-1,0-1.7-0.9-1.9-1.9C447.5,167.6,447.8,166.6,448,165.6z"/>
				<path d="M473.1,172.2c0.3-1.2,0.4-2.6,1.4-3.5l0.2-0.1c0.9-0.2,1.9-0.2,2.6,0.4c0.6,0.5,0.8,1.5,0.8,2.3c-0.1,1.2-0.6,2.3-1,3.3
					c-0.3,0.6-0.5,1.1-0.9,1.6c-0.4,0.5-0.9,0.8-1.5,0.8c-1,0-1.7-0.9-1.9-1.9C472.5,174.2,472.8,173.1,473.1,172.2z"/>
				<path class="st52" d="M463.7,216.5l-4.9,2.4c-2.4,1-4.3,2.9-5.5,5.1l0,0.1c-9.3-3.7-16.4-7.1-21.8-15.6
					C442.3,214.8,449.8,217.8,463.7,216.5z"/>
				<g>
					<g>
						<g>
							<path d="M457.7,183.9c0-0.1,1.5-0.2,3.6-1.2c1.1-0.5,2.2-1.4,3.3-2.5c0.5-0.6,1-1.2,1.4-2c0.2-0.4,0.5-0.8,0.4-1
								c-0.1-0.2-0.6-0.3-1-0.2c-1.9,0-3.7,0-5.4-0.1l-0.3,0l0.1-0.3c0.4-2.3,0.8-4.2,1.1-5.6s0.5-2.2,0.5-2.1c0.1,0,0,0.8-0.2,2.2
								s-0.5,3.3-0.9,5.6l-0.2-0.3c1.7,0,3.5,0,5.4,0c0.2,0,0.5,0,0.7,0c0.2,0,0.6,0.2,0.7,0.5c0.2,0.3,0,0.7-0.1,0.9
								c-0.1,0.2-0.2,0.4-0.3,0.6c-0.4,0.8-1,1.5-1.5,2.1c-1.1,1.2-2.4,2-3.5,2.5c-1.1,0.5-2.1,0.7-2.8,0.8
								C458.1,184,457.7,184,457.7,183.9z"/>
						</g>
					</g>
				</g>
				<path class="st53" d="M400.3,136.5c-13.1,20.4-5,34.6,12.7,51.2l7.6-20.8c22.9-7.4,39.5-25.6,48.4-46.4
					C442,103.3,413.4,116.1,400.3,136.5z"/>
				<g>
					<g>
						<path class="st50" d="M421.6,190.7c-4.9-0.5-10.7-4.6-12.5-7.4c-2.5-3.9-3.2-7.7-2.2-12.3c1-4.5,4.3-8.7,8.7-10
							c4.4-1.4,9.9,0.6,11.8,4.8"/>
					</g>
					<path class="st52" d="M417.6,167.4c-1-0.5-2.2-0.2-3.1,0.5c-0.9,0.6-1.5,1.6-2,2.6c-1.2,2.5-1.9,5.5-1,8.1
						c0.8,2.7,3.4,4.9,6.2,4.7c0.5,0,1.1-0.2,1.4-0.7c0.4-0.6,0-1.4-0.2-2.1c-0.6-1.5-0.7-3.2-0.3-4.7c0.2-0.7,0.4-1.3,0.9-1.8
						c0.5-0.5,1.2-0.7,1.9-0.4c0.4,0.2,0.8,0.6,1.3,0.4c0.6-0.2,0.5-1.1,0.2-1.7C421.7,170.2,419.8,168.4,417.6,167.4"/>
					<g>
						<g>
							<g>
								<path d="M420.4,182.6c0,0-0.1,0-0.3-0.1c-0.2-0.1-0.5-0.2-0.8-0.5c-0.6-0.6-1.2-1.7-1.2-3.2c0-0.7,0-1.5,0.2-2.4
									c0.2-0.8,0.4-1.8,1.1-2.5c0.3-0.4,0.8-0.7,1.4-0.8c0.5-0.1,1.1,0,1.6,0.2c1,0.4,1.8,1.4,2.2,2.4c0.2,0.5,0.4,1,0.6,1.5
									l-0.5,0.1c-0.7-3.9-3-6.8-5-8.3c-2-1.6-3.5-2-3.5-2.1c0,0,0.4,0.1,1,0.3c0.7,0.3,1.6,0.7,2.6,1.5c2.1,1.5,4.5,4.5,5.2,8.5
									l-0.5,0.1c-0.2-0.5-0.4-1-0.6-1.5c-0.4-1-1.1-1.8-2-2.2c-0.9-0.4-1.9-0.2-2.4,0.4c-0.6,0.6-0.9,1.5-1.1,2.3
									c-0.2,0.8-0.2,1.6-0.2,2.3c0,1.4,0.5,2.5,1,3C420,182.5,420.5,182.6,420.4,182.6z"/>
							</g>
						</g>
					</g>
				</g>
			</g>
			<g>
				<path class="st52" d="M450.9,185.3c-0.8-0.5-1.7-0.9-2.6-0.6c-0.8,0.3-1.2,1.2-1.4,2c-0.3,1.7,0.1,3.6,1.2,5
					c1.1,1.4,2.8,2.3,4.6,2.5l0.1,0c2.5-0.6,4.5-2.4,5.1-4.9l0,0C455.5,188,453.2,186.6,450.9,185.3z"/>
			</g>
			<g>
				<g>
					<g>
						<path d="M452.7,194.2c0,0-0.3,0.1-1,0c-0.6-0.1-1.5-0.4-2.4-1c-0.9-0.6-1.9-1.7-2.4-3.1c-0.2-0.7-0.4-1.5-0.4-2.3
							c0-0.8,0.1-1.7,0.6-2.5c0.2-0.4,0.6-0.7,1.1-0.9c0.4-0.2,0.9-0.1,1.3,0c0.8,0.2,1.5,0.7,2.1,1c1.2,0.7,2.3,1.4,3.3,1.9
							c1.9,1.1,3,1.8,3,1.9c0,0.1-1.2-0.5-3.2-1.6c-1-0.5-2.1-1.2-3.3-1.8c-0.6-0.3-1.3-0.8-2-0.9c-0.7-0.2-1.4,0-1.8,0.7
							c-0.4,0.6-0.5,1.4-0.5,2.2c0,0.8,0.1,1.5,0.3,2.1c0.4,1.3,1.3,2.3,2.1,2.9C451.2,194.1,452.7,194.1,452.7,194.2z"/>
					</g>
				</g>
			</g>
			<path class="st54" d="M446.7,179.1c-1.5,2.6-6,2.8-10,0.5c-4-2.3-6.1-6.3-4.6-8.9c1.5-2.6,6-2.8,10-0.5
				C446.1,172.5,448.2,176.5,446.7,179.1z"/>
			<path class="st54" d="M479.2,182.5c-4.5-1.1-8.8,0.4-9.5,3.3s2.4,6.2,6.9,7.3c1.9,0.5,3.7,0.5,5.3,0.1l2.4-8.1
				C483.1,184.2,480.8,182.9,479.2,182.5z"/>
		</g>
	</g>
	<g>
		<g>
			<path class="st55" d="M529.8,286.5l-6.3,14.4l-31.9-44.1c-6.4-7.1-14.4-12.7-23.3-16.3l-17.3-7.3c-15.6,9.5-30.7,6-44.3-9.1
				l-28.5-2l-2.8-0.2c-4.5,0-8.8,1.4-12.3,3.2c-6.1,3.1-11,8-14.5,13.9c-4.9,8.2-34.3,60.1-41.4,72.9l12.9,45.6
				c7.7,0.4,17.8-2.1,23.2-12.1l17.5-44.4l-8,58.4l86.2,19.9l19.8-35.7c0,0,9.9-13.4,12.2-22.2c1.8-7,2.3-11.9,2.2-14.9
				c6.3,7.5,21.5,26.2,34.9,39c7.3,7,23.1,17.1,33.8,5.1c12-13.5,19.2-41.8,19.2-41.8L529.8,286.5z"/>
		</g>
		<g>
			<g>
				<g>
					<path d="M368,251.2c0,0,0,0.1,0,0.3c0,0.2-0.1,0.5-0.1,0.8c-0.1,0.7-0.3,1.8-0.5,3.1c-0.4,2.7-0.9,6.6-1.6,11.3
						c-1.3,9.6-3,22.9-5,37.5c-1.9,14.6-3.7,27.9-5,37.5c-0.7,4.8-1.2,8.7-1.7,11.3c-0.2,1.3-0.4,2.3-0.5,3.1
						c-0.1,0.3-0.1,0.6-0.1,0.8c0,0.2-0.1,0.3-0.1,0.3c0.4-2.8,3.1-24.1,6.9-53c1.9-14.6,3.7-27.9,5.1-37.5
						c0.7-4.8,1.3-8.7,1.8-11.3c0.2-1.3,0.4-2.3,0.5-3.1c0.1-0.3,0.1-0.6,0.2-0.8C368,251.3,368,251.2,368,251.2z"/>
				</g>
			</g>
		</g>
		<g>
			<g>
				<g>
					<path class="st56" d="M529.6,323.9c-0.1,0-0.3-1.3-0.7-3.5c-0.4-2.1-1-5.1-1.8-8.3c-0.8-3.2-1.6-6.1-2.2-8.2
						c-0.6-2.1-1-3.4-0.9-3.4c0,0,0.2,0.3,0.4,0.9c0.2,0.6,0.5,1.4,0.9,2.4c0.7,2.1,1.6,5,2.4,8.2c0.8,3.2,1.3,6.2,1.6,8.4
						c0.2,1.1,0.3,2,0.3,2.6C529.6,323.6,529.7,323.9,529.6,323.9z"/>
				</g>
			</g>
		</g>
		<g>
			<path class="st56" d="M477.7,284.7l-5.1-11.4c2,11.7,2.1,21.5,1,33.3l8,8.7C481.5,315.2,482.7,297.2,477.7,284.7z"/>
		</g>
	</g>
	<g>
		<g>
			<path class="st57" d="M649.8,184.2c-2.1,8.1-10.4,13.1-18.5,11c-8.1-2.1-13.1-10.4-11-18.5c2.1-8.1,10.4-13.1,18.5-11
				C647,167.8,651.9,176.1,649.8,184.2z"/>
		</g>
		<g>
			<path class="st50" d="M583.5,225c-0.8-3.5-4.3-3.4-6.5-2.9c-0.8,0.2-10.3,2.8-17.8,5c0.1-0.9,1.6-11.9-0.5-14.8
				c-2.2-3-4.6-1.3-4.7,3.4c-0.1,4.7-3,8.4-5,13.3c-2,4.9,0.5,19.5,0.5,19.5l-0.4,3.2l-15.5,37.1l23.6,18.7l14.1-48.5
				c0,0,12.6-6.7,13.9-10c1.2-3.2-1.3-4.8-1.3-4.8s2.3-0.4,2.7-3.2c0.5-2.7-1.5-3.8-1.5-3.8s1.5-1.7,1.3-3.9
				c-0.3-2.7-3.7-3.9-3.7-3.9S584.2,228.3,583.5,225z"/>
		</g>
		<g>
			<path class="st58" d="M573.4,207l-6.6-29.9l-16.6,4.9c-6.3,1.5-9.7,10.2-8.3,16.4c1.4,6.4,7.9,10.4,14.2,8.8l1.1-0.1l7.6,46
				c0.5,2.8,3.2,4.7,6,4c5.6-1.4,14.3-3,14.3-3C585.7,254.7,574,209.6,573.4,207z"/>
		</g>
		<g>
			<g>
				<g>
					<path class="st52" d="M560.1,254c-0.1-0.1,1-1.3,1.6-3.8c0.6-2.5,0.8-6.1-0.3-9.9c-0.4-1.8-0.8-3.4-1.4-4.9
						c-0.6-1.5-1.3-2.7-2-3.7l-0.1-0.1l0-0.1c0.5-1.4,0.6-2.6,0.9-3.4c0.2-0.8,0.4-1.3,0.4-1.2c0,0-0.1,0.5-0.2,1.3
						c-0.2,0.8-0.3,2-0.7,3.5l0-0.2c0.7,1,1.5,2.3,2.1,3.8c0.7,1.5,1.1,3.2,1.5,5c1,3.8,0.8,7.6,0.1,10.1c-0.4,1.3-0.8,2.2-1.2,2.8
						c-0.2,0.3-0.4,0.5-0.5,0.7C560.2,253.9,560.1,254,560.1,254z"/>
				</g>
			</g>
		</g>
		<g>
			<path class="st50" d="M582.7,229.5c0,0-8.5,2.3-13.5,3.9c-1.3,0.4-2.6,0.9-3.9,0.8c-1.3,0-2.8-1.3-3.1-2.5c-0.7-2.4,1.5-5.3,4-6
				l13.6-3.8"/>
		</g>
		<g>
			<path class="st50" d="M585.4,237.2c0,0-8.5,2.3-13.5,3.9c-1.3,0.4-2.6,0.9-3.9,0.8c-1.3,0-2.8-1.3-3.1-2.5c-0.7-2.4,1.5-5.3,4-6
				l13.6-3.8"/>
		</g>
		<g>
			<path class="st50" d="M584.7,250.1c-1.4,1-4.1,1.5-7.9,2.6c-1,0.3-2.4,0.6-3.5,0.5c-1.1,0-2.4-0.5-2.7-1.5
				c-0.7-2.1,1.2-3.3,2.3-3.6l12.1-3.5C584.9,244.5,588,247.8,584.7,250.1z"/>
		</g>
		<g>
			<path class="st50" d="M584.8,244.1c-1.8,1.2-5,1.9-9.8,3.2c-1.3,0.4-3,0.7-4.4,0.7s-2.9-0.6-3.3-1.9c-0.8-2.6,1.5-4.2,2.8-4.5
				l15.1-4.4C585.1,237.3,589,241.3,584.8,244.1z"/>
		</g>
		<g>
			<g>
				<g>
					<path class="st52" d="M583,229.4c0,0.1-3.3,1.2-7.3,2.4c-4.1,1.2-7.5,2-7.5,1.9c0-0.1,3.2-1.2,7.3-2.4
						C579.6,230.1,582.9,229.3,583,229.4z"/>
				</g>
			</g>
		</g>
		<g>
			<g>
				<g>
					<path class="st52" d="M585.2,237.3c0,0.1-3.5,1.2-7.9,2.4c-4.4,1.2-8,2.1-8,1.9c0-0.1,3.5-1.2,7.9-2.4
						C581.6,238,585.2,237.1,585.2,237.3z"/>
				</g>
			</g>
		</g>
		<g>
			<g>
				<g>
					<path class="st52" d="M584.5,244.1c0,0.1-2.5,1.1-5.8,2.1c-3.2,1-5.9,1.7-5.9,1.6c0-0.1,2.5-1.1,5.8-2.1
						C581.8,244.7,584.5,244,584.5,244.1z"/>
				</g>
			</g>
		</g>
		<g>
			<defs>
				<path id="SVGID_00000050651847679650901030000013350929983672428431_" d="M626.5,145.1c-17.5,23.5-59.7,32-59.7,32l6,27.5
					c28-4.6,71.4,12.2,71.4,12.2L626.5,145.1z"/>
			</defs>
			<clipPath id="SVGID_00000111887417941099522500000017933930878634826650_">
				<use xlink:href="#SVGID_00000050651847679650901030000013350929983672428431_"  style="overflow:visible;"/>
			</clipPath>
			<g style="clip-path:url(#SVGID_00000111887417941099522500000017933930878634826650_);">
				<path class="st60" d="M626.5,145.1c-17.5,23.5-59.7,32-59.7,32l6,27.5c28-4.6,71.4,12.2,71.4,12.2L626.5,145.1z"/>
			</g>
		</g>
		<g>
			<path class="st58" d="M644.2,220.9L644.2,220.9c-2.2,0.5-4.4-0.9-4.9-3.1L622.8,145c-0.5-2.2,0.9-4.4,3.1-4.9l0,0
				c2.2-0.5,4.4,0.9,4.9,3.1l16.5,72.8C647.9,218.2,646.5,220.4,644.2,220.9z"/>
		</g>
	</g>
	<path class="st4" d="M527.1,613.7c0-10.5,0-21,0-31.5h48.9l-2,46.2l-32.3,12.3l-14.5-17.4V613.7z"/>
	<path class="st28" d="M517.4,677.7c-0.3-20,2.5-32.5,2.2-52.4c-0.1-3.6,0.2-7.9,3.2-9.9c2.7-1.8,6.5-0.9,9.1,1.1
		c2.6,2,4.5,4.7,6.9,7c5.7,5.3,14.3,7.2,21.6,4.8c7.4-2.4,13.2-9,14.7-16.6c22.7,13.7,45.4,27.3,68.1,41c4.7,2.8,9.5,5.7,12.5,10.3
		c3,4.5,3.7,11.1,0.1,15.1"/>
	<path class="st37" d="M655.9,678.1c0,0,5-5.3,2.5-10.2c0,0-95.2-0.6-140.9-0.9l-0.1,10.7"/>
	<g>
		<path class="st4" d="M588.2,633.1c0,1.1-0.9,2-2,2c-1.1,0-2-0.9-2-2s0.9-2,2-2C587.3,631.1,588.2,632,588.2,633.1z"/>
		<path class="st4" d="M599.2,639.4c0,1.1-0.9,2-2,2c-1.1,0-2-0.9-2-2c0-1.1,0.9-2,2-2C598.3,637.4,599.2,638.3,599.2,639.4z"/>
		<path class="st4" d="M610.6,645.6c0,1.1-0.9,2-2,2c-1.1,0-2-0.9-2-2c0-1.1,0.9-2,2-2C609.7,643.6,610.6,644.5,610.6,645.6z"/>
		<g>
			<g>
				<g>
					<path class="st4" d="M608.6,646c-0.1,0,0-0.7,0.3-1.8c0.3-1.1,0.9-2.5,2-3.9c1.1-1.4,2.3-2.4,3.3-2.9c1-0.6,1.7-0.8,1.7-0.7
						c0.1,0.1-2.5,1.3-4.6,4C609.2,643.3,608.8,646.1,608.6,646z"/>
				</g>
			</g>
		</g>
		<g>
			<g>
				<g>
					<path class="st4" d="M597.7,639.1c-0.1,0,0-0.7,0.3-1.8c0.3-1.1,0.9-2.5,2-3.9c1.1-1.4,2.3-2.4,3.3-2.9c1-0.6,1.7-0.8,1.7-0.7
						c0.1,0.1-2.5,1.3-4.6,4C598.3,636.3,597.9,639.1,597.7,639.1z"/>
				</g>
			</g>
		</g>
		<g>
			<g>
				<g>
					<path class="st4" d="M586.8,633c-0.1,0,0-0.7,0.3-1.8c0.3-1.1,0.9-2.5,2-3.9c1.1-1.4,2.3-2.4,3.3-2.9c1-0.6,1.7-0.8,1.7-0.7
						c0.1,0.1-2.5,1.3-4.6,4C587.4,630.2,587,633,586.8,633z"/>
				</g>
			</g>
		</g>
	</g>
	<polygon points="527.1,599.9 575.1,600.4 574.8,609 527.1,604.7 	"/>
	<path class="st61" d="M518.3,667.1c47.3,0,92.8,0.8,140.1,0.8"/>
	<g>
		<g>
			<defs>
				<path id="SVGID_00000054970023484319952520000005599549344948696496_" d="M560.2,367.7c-20-7-84.5-0.1-129.4,5.9l-0.7-12.6
					l-47.7,18.5l-15.5,103.8l151.8-28.8l-3.5,145.3l69.5,0.6c0,0,9-146.9,11.5-169.9C598.7,407.6,591.2,378.7,560.2,367.7z"/>
			</defs>
			<clipPath id="SVGID_00000110470345452488619320000010735209090560312715_">
				<use xlink:href="#SVGID_00000054970023484319952520000005599549344948696496_"  style="overflow:visible;"/>
			</clipPath>
			<g style="clip-path:url(#SVGID_00000110470345452488619320000010735209090560312715_);">
				<g>
					<path class="st63" d="M560.2,367.7c-20-7-84.5-0.1-129.4,5.9l-0.7-12.6l-47.7,18.5l-15.5,103.8l151.8-28.8l-3.5,145.3l69.5,0.6
						c0,0,9-146.9,11.5-169.9C598.7,407.6,591.2,378.7,560.2,367.7z"/>
				</g>
			</g>
		</g>
		<g>
			<path class="st63" d="M381.7,271.9c0,0-24.3,86.3-23.8,86.5l-4.4-1.1c0,0-24.4,15.5-28.2,18.8c0,0,3.9,15.2,9.7,36.3
				c3.4,12.4,8,25.5,12,41.7l23.5,84.4l9.9,35.6c0,0,1.8,6,4.7,9.5c5.8,7,14.5,13.6,21.8,1.7c12.3-19.8,24.6-178.4,24.6-178.4
				l9.4-11.9c12.9-32.2,26-76.6,26.4-101.3L381.7,271.9z"/>
			<polygon class="st63" points="380.6,276.8 382.3,222 391.7,222.7 391.1,277.1 			"/>
			<polygon class="st63" points="456.3,295 462.5,236.9 471.8,241.7 465,297.2 			"/>
			<g>
				<path class="st4" d="M390.7,284c-0.5,2-2.6,3.3-4.6,2.7c-2-0.5-3.3-2.6-2.7-4.6c0.5-2,2.6-3.3,4.6-2.7
					C389.9,279.9,391.2,281.9,390.7,284z"/>
				<path class="st64" d="M386.4,282.7c-0.1,0.3-0.4,0.5-0.7,0.4c-0.3-0.1-0.5-0.4-0.4-0.7c0.1-0.3,0.4-0.5,0.7-0.4
					C386.2,282.1,386.4,282.4,386.4,282.7z"/>
				<path class="st64" d="M388.4,283.7c-0.1,0.3-0.4,0.5-0.7,0.4c-0.3-0.1-0.5-0.4-0.4-0.7c0.1-0.3,0.4-0.5,0.7-0.4
					C388.3,283,388.5,283.3,388.4,283.7z"/>
			</g>
			<g>
				<path class="st4" d="M459.5,301.5c-0.5,2-2.6,3.3-4.6,2.7c-2-0.5-3.3-2.6-2.7-4.6c0.5-2,2.6-3.3,4.6-2.7
					C458.8,297.4,460.1,299.5,459.5,301.5z"/>
				<path class="st64" d="M455.2,300.3c-0.1,0.3-0.4,0.5-0.7,0.4c-0.3-0.1-0.5-0.4-0.4-0.7c0.1-0.3,0.4-0.5,0.7-0.4
					C455.1,299.6,455.3,300,455.2,300.3z"/>
				<path class="st64" d="M457.3,301.2c-0.1,0.3-0.4,0.5-0.7,0.4c-0.3-0.1-0.5-0.4-0.4-0.7c0.1-0.3,0.4-0.5,0.7-0.4
					C457.2,300.6,457.4,300.9,457.3,301.2z"/>
			</g>
			<g>
				<g>
					<g>
						<path d="M437.7,393.6c0,0,0,0.1,0,0.3c0,0.2,0,0.5-0.1,0.9c-0.1,0.8-0.2,1.9-0.4,3.3c-0.4,2.9-0.9,7.1-1.6,12.2
							c-1.4,10.3-3.5,24.5-5.8,40.2c-2.4,15.7-4.6,29.9-6.3,40.1c-0.8,5.1-1.5,9.3-2.1,12.1c-0.2,1.4-0.5,2.5-0.6,3.3
							c-0.1,0.4-0.1,0.6-0.2,0.9c0,0.2-0.1,0.3-0.1,0.3c0.4-2.8,3.9-25.8,8.7-56.8C433.8,419.4,437.3,396.4,437.7,393.6z"/>
					</g>
				</g>
			</g>
			<g>
				<g>
					<g>
						<path d="M537.9,422.1c0,0-0.3,0.5-0.9,1.3c-0.6,0.8-1.5,1.9-2.5,3.4c-2.1,2.8-4.8,6.9-7.4,11.6c-2.7,4.7-4.7,9.1-6.1,12.3
							c-0.7,1.6-1.2,2.9-1.6,3.8c-0.4,0.9-0.6,1.4-0.6,1.4c0,0,0.1-0.5,0.4-1.5c0.3-0.9,0.8-2.3,1.5-3.9c1.3-3.3,3.3-7.7,6-12.4
							c2.7-4.7,5.5-8.7,7.6-11.5c1.1-1.4,2-2.5,2.6-3.3C537.5,422.4,537.8,422,537.9,422.1z"/>
					</g>
				</g>
			</g>
			<g>
				<g>
					<g>
						<path d="M547,435.5c0.1,0.1-6.2,4.6-14.1,10c-7.8,5.4-14.3,9.7-14.4,9.5c-0.1-0.1,6.2-4.6,14.1-10
							C540.5,439.6,546.9,435.4,547,435.5z"/>
					</g>
				</g>
			</g>
			<g>
				<g>
					<g>
						<path d="M377.1,381.1c0,0-0.4,0.4-1.1,1.2c-0.4,0.4-0.8,0.8-1.4,1.3c-0.6,0.5-1.2,1.1-1.9,1.6c-0.7,0.6-1.6,1.2-2.5,1.8
							c-0.9,0.6-1.9,1.2-3,1.8c-2.2,1.1-4.7,2.2-7.4,3.1c-2.7,0.8-5.4,1.4-7.8,1.7c-1.2,0.1-2.4,0.2-3.5,0.3c-1.1,0.1-2.1,0-3,0
							c-0.9,0-1.8-0.1-2.5-0.2c-0.7-0.1-1.4-0.2-1.9-0.3c-1-0.2-1.6-0.3-1.6-0.3c0,0,0.6,0,1.6,0.1c0.5,0.1,1.1,0.1,1.9,0.2
							c0.7,0,1.6,0.1,2.5,0.1c0.9,0,1.9,0,3-0.1c1.1,0,2.2-0.2,3.4-0.3c2.4-0.3,5-0.9,7.7-1.7c2.7-0.9,5.1-1.9,7.3-3
							c1.1-0.6,2.1-1.1,3-1.7c0.9-0.6,1.7-1.1,2.5-1.7c0.8-0.5,1.4-1.1,2-1.5c0.6-0.4,1.1-0.9,1.4-1.2
							C376.6,381.4,377.1,381.1,377.1,381.1z"/>
					</g>
				</g>
			</g>
		</g>
	</g>
	<g>
		<g>
			<path class="st50" d="M312.2,275.3c-3-1-8.2,1.1-12.3,5.1l-3.1,2.9c-2.5,2.4-3.6,4.7-4.1,6.8c-0.6,2.9,1.8,5.9,4.7,6.7
				c2.9,0.8,6,0,8.7-1.1c2.9-1.2,5.1-3.3,7.1-5.7c2.1-2.3,4-5,3.7-8.1C316.8,278.7,315.1,276.3,312.2,275.3z"/>
		</g>
		<g>
			<path class="st50" d="M317.1,288.8c-3-1-8.2,1.1-12.3,5.1l-3.1,2.9c-2.5,2.4-3.6,4.7-4.1,6.8c-0.6,2.9,1.8,5.9,4.7,6.7
				c2.9,0.8,6,0,8.7-1.1c2.9-1.2,5.1-3.3,7.1-5.7c2.1-2.3,4-5,3.7-8.1S320,289.8,317.1,288.8z"/>
		</g>
		<g>
			<path class="st50" d="M322.5,301.4c-3-1-8.2,1.1-12.3,5.1l-3.1,2.9c-2.5,2.4-3.6,4.7-4.1,6.8c-0.6,2.9,1.8,5.9,4.7,6.7
				c2.9,0.8,6,0,8.7-1.1c2.9-1.2,5.1-3.3,7.1-5.7c2.1-2.3,4-5,3.7-8.1C327,304.9,325.4,302.5,322.5,301.4z"/>
		</g>
		<g>
			<g>
				<g>
					<path class="st52" d="M315.1,287.3c0.1,0.1-3.3,2.7-7.6,5.7c-4.3,3-7.8,5.4-7.9,5.3c-0.1-0.1,3.3-2.7,7.6-5.7
						C311.5,289.6,315.1,287.2,315.1,287.3z"/>
				</g>
			</g>
		</g>
		<g>
			<g>
				<g>
					<path class="st52" d="M318.6,301.4c0,0.1-0.6,0.7-1.7,1.8c-1.1,1-2.7,2.4-4.6,3.8c-1.8,1.4-3.6,2.6-4.9,3.4
						c-1.3,0.8-2.1,1.3-2.2,1.2c0-0.1,0.7-0.6,1.9-1.5c1.2-0.9,2.9-2.1,4.8-3.5c1.8-1.4,3.5-2.7,4.6-3.7
						C317.8,301.9,318.5,301.4,318.6,301.4z"/>
				</g>
			</g>
		</g>
	</g>
	<g>
		<path class="st33" d="M595.7,293.8l20.9,96.8c1.2,5.5,5.8,9.5,11.2,9.5l142.8,0.3c5.1,0,13.8-9.4,12.5-14.7l-26.9-91.3
			c-0.9-3.7-4-6.3-7.6-6.3l-144.1-6C595.7,282.1,595.1,290.9,595.7,293.8z"/>
		<path class="st34" d="M600.3,287.7l20.9,96.8c1.2,5.5,5.8,9.5,11.2,9.5l142.8,0.3c5.1,0,8.9-5.1,7.7-10.4l-22.1-95.6
			c-0.9-3.7-4-6.3-7.6-6.3l-148.7,0.1C601.8,282.1,599.7,284.8,600.3,287.7z"/>
		<path class="st47" d="M603.4,301.6l-2.9-13.9c-0.7-2.9,1.4-5.7,4.2-5.7l148.6-0.1c3.6,0,6.8,2.6,7.6,6.4l2.8,11.9L603.4,301.6z"/>
		<path class="st25" d="M621.2,291.9c0,2.3-1.9,4.2-4.2,4.2c-2.3,0-4.2-1.9-4.2-4.2s1.9-4.2,4.2-4.2
			C619.3,287.7,621.2,289.6,621.2,291.9z"/>
		<path class="st31" d="M632.2,291.9c0,2.3-1.9,4.2-4.2,4.2c-2.3,0-4.2-1.9-4.2-4.2s1.9-4.2,4.2-4.2
			C630.3,287.7,632.2,289.6,632.2,291.9z"/>
		<path class="st36" d="M643.2,291.9c0,2.3-1.9,4.2-4.2,4.2s-4.2-1.9-4.2-4.2s1.9-4.2,4.2-4.2S643.2,289.6,643.2,291.9z"/>
		<g>
			<g>
				<g>
					<path class="st37" d="M682.9,323.3c0,0.1-13.2,0.3-29.5,0.3c-16.3,0-29.6-0.1-29.6-0.3c0-0.1,13.2-0.3,29.6-0.3
						C669.7,323.1,682.9,323.2,682.9,323.3z"/>
				</g>
			</g>
		</g>
		<g>
			<g>
				<g>
					<path class="st37" d="M691.6,352.6c0,0.1-13.2,0.3-29.5,0.3c-16.3,0-29.6-0.1-29.6-0.3c0-0.1,13.2-0.3,29.6-0.3
						C678.4,352.4,691.6,352.5,691.6,352.6z"/>
				</g>
			</g>
		</g>
		<g>
			<g>
				<g>
					<path class="st37" d="M696.7,368.6c0,0.1-13.2,0.3-29.5,0.3c-16.3,0-29.6-0.1-29.6-0.3c0-0.1,13.2-0.3,29.6-0.3
						C683.5,368.4,696.7,368.5,696.7,368.6z"/>
				</g>
			</g>
		</g>
		<g>
			<g>
				<g>
					<path class="st37" d="M687.1,338.1c0,0.1-13.2,0.3-29.5,0.3c-16.3,0-29.6-0.1-29.6-0.3c0-0.1,13.2-0.3,29.6-0.3
						C673.9,337.9,687.1,338,687.1,338.1z"/>
				</g>
			</g>
		</g>
		<g>
			<path class="st38" d="M753.4,373.7h-31c-6.8,0-13.3-5.6-14.6-12.6l-5.5-29.7c-1.3-6.9,3.3-12.6,10.2-12.6h31.7
				c6.9,0,13.5,5.6,14.6,12.6l4.8,29.7C764.7,368.1,760.1,373.7,753.4,373.7z"/>
			<g>
				<g>
					<path class="st39" d="M760.8,341.4c-4.6-3.4-11.5-4.9-16.6-4.2c-5.1,0.7-7.5,3.4-9.8,8.2c-1.3,2.9-2.6,9.8-5.6,10.9
						c-2.5,0.9-6.9-3.3-10.2-4.4c-4.7-1.5-9.3,1.3-11.6,5l1.5,7.8c0.9,5,5.6,9,10.4,9h37.8c4.9,0,8.2-4.1,7.3-9.2L760.8,341.4z"/>
				</g>
			</g>
			<path class="st39" d="M724.1,333.6c0.7,3.8-1.9,6.9-5.7,6.9c-3.8,0-7.5-3.1-8.2-6.9c-0.7-3.8,1.8-7,5.7-7
				C719.7,326.7,723.4,329.8,724.1,333.6z"/>
		</g>
	</g>
	<g>
		<g>
			<g>
				<g>
					<g>
						<g>
							<path d="M347.6,116.9c-0.1,0.1-0.7-0.7-2.1-1.5c-0.7-0.4-1.6-0.8-2.6-0.7c-1,0-2.1,0.8-2.2,1.9l-0.5,0c0-0.3,0-0.5,0-0.8
								c0-2.7,0-5.1,0-6.8s0.1-2.8,0.1-2.8c0.1,0,0.2,1.1,0.2,2.8c0.1,1.8,0.1,4.2,0.2,6.8c0,0.3,0,0.5,0,0.8l-0.5,0
								c0.2-1.4,1.6-2.2,2.7-2.3c1.2-0.1,2.1,0.4,2.8,0.9c0.7,0.5,1.1,0.9,1.4,1.3C347.5,116.7,347.7,116.9,347.6,116.9z"/>
						</g>
					</g>
				</g>
				<g>
					<g>
						<g>
							<path d="M344.8,120.9c-0.1,0-0.2-0.4-0.4-1c-0.2-0.6-0.5-1.5-1.1-2.2c-0.6-0.7-1.4-1-2-1.1c-0.6,0-1,0.1-1,0.1
								c0,0,0.3-0.4,1-0.4c0.7-0.1,1.7,0.3,2.4,1.1c0.7,0.8,0.9,1.8,1,2.5C344.9,120.5,344.9,120.9,344.8,120.9z"/>
						</g>
					</g>
				</g>
			</g>
			<g>
				<g>
					<g>
						<g>
							<path d="M362.4,114.9c-0.1,0.1-0.7-0.7-2.1-1.5c-0.7-0.4-1.6-0.8-2.6-0.7c-1,0-2.1,0.8-2.2,1.9l-0.5,0c0-0.3,0-0.5,0-0.8
								c0-2.7,0-5.1,0-6.8c0-1.8,0.1-2.8,0.1-2.8c0.1,0,0.2,1.1,0.2,2.8s0.1,4.2,0.2,6.8c0,0.3,0,0.5,0,0.8l-0.5,0
								c0.2-1.4,1.6-2.2,2.7-2.3c1.2-0.1,2.1,0.4,2.8,0.8c0.7,0.5,1.1,0.9,1.4,1.3C362.3,114.7,362.5,114.9,362.4,114.9z"/>
						</g>
					</g>
				</g>
				<g>
					<g>
						<g>
							<path d="M359.6,118.9c-0.1,0-0.2-0.4-0.4-1c-0.2-0.6-0.5-1.5-1.1-2.2c-0.6-0.7-1.4-1-2-1.1c-0.6,0-1,0.1-1,0.1
								c0,0,0.3-0.4,1-0.4c0.7-0.1,1.7,0.3,2.4,1.1c0.7,0.8,0.9,1.8,1,2.5C359.7,118.5,359.7,118.9,359.6,118.9z"/>
						</g>
					</g>
				</g>
			</g>
			<g>
				<path class="st65" d="M367.9,65.3c0.3-0.2,4.2-3,4.2-3s-5.6-1.2-6.1-1.3c1.8-2.5,2.4-3.7,3.1-5.8l-6.7,2.4
					c-3-4.6-8.9-5.9-14.2-5c-4.5,0.8-9.8,5.8-11.7,9.9c-0.6,1.3-4.1,8.8-4.2,10.3l3,6.5l-26.1,10.2l0,0c8,8.3,16.3,11.5,20.1,13.5
					c6.1,3.2,14.6,4.4,17.9,4c7.1-0.9,15.1-4.2,19.8-10.9c3.9-5.6,4.6-10.7,4.6-18.5C371.6,73.8,370,67.8,367.9,65.3z"/>
			</g>
			<g>
				<path class="st65" d="M339.5,70.9c-12.1,1-24.2,1.9-36.3,2.9c-0.9,0.1-1.9,0.2-2.5,0.8c-1.2,1-1,2.9-0.5,4.3
					c2.8,8.8,11.3,15.5,20.5,16.2c9.2,0.7,25.8-3.2,29.3-18.1"/>
				<g>
					<g>
						<path class="st37" d="M349.9,76.9c0,0,0,0.1-0.1,0.3c-0.1,0.2-0.1,0.5-0.2,0.8c-0.1,0.4-0.2,0.8-0.4,1.3
							c-0.1,0.5-0.4,1.1-0.7,1.7c-1.1,2.5-3.3,6-7.5,8.9c-4.1,2.8-9.8,4.9-16.3,5.4c-3.3,0.2-6.8,0-10.2-1.3
							c-3.4-1.2-6.6-3.2-9.2-5.9c-1.3-1.4-2.5-2.9-3.4-4.4c-1-1.6-1.7-3.3-2.2-5c-0.2-0.9-0.4-1.8-0.2-2.7c0.2-0.9,0.9-1.8,1.8-2.1
							c0.9-0.3,1.7-0.3,2.6-0.4c0.8-0.1,1.7-0.1,2.5-0.2c6.5-0.5,12.3-0.9,17.2-1.3c4.9-0.4,8.8-0.6,11.6-0.8
							c1.3-0.1,2.4-0.2,3.2-0.2c0.3,0,0.6,0,0.8,0c0.2,0,0.3,0,0.3,0c0,0-0.1,0-0.3,0c-0.2,0-0.5,0.1-0.8,0.1
							c-0.8,0.1-1.8,0.2-3.2,0.3c-2.8,0.2-6.7,0.6-11.6,1c-4.9,0.4-10.8,0.9-17.2,1.4c-0.8,0.1-1.6,0.1-2.5,0.2
							c-0.8,0.1-1.7,0.1-2.4,0.4c-0.8,0.2-1.3,0.9-1.4,1.7c-0.1,0.8,0,1.7,0.2,2.5c0.5,1.7,1.2,3.3,2.2,4.9c0.9,1.5,2.1,3,3.4,4.3
							c2.6,2.6,5.7,4.7,9,5.8c3.3,1.2,6.7,1.5,10,1.3c6.5-0.4,12.1-2.4,16.2-5.2c4.1-2.7,6.3-6.2,7.5-8.6c0.3-0.6,0.6-1.2,0.7-1.7
							c0.2-0.5,0.3-0.9,0.4-1.3c0.1-0.3,0.2-0.6,0.3-0.8C349.9,77,349.9,76.9,349.9,76.9z"/>
					</g>
				</g>
			</g>
			<path d="M356.6,65.1c-1.1-0.3-1.7-1.5-1.4-2.6c0.3-1.1,1.5-1.7,2.6-1.4c1.1,0.3,1.7,1.5,1.4,2.6
				C358.8,64.8,357.7,65.5,356.6,65.1z"/>
		</g>
		<polygon class="st52" points="362.4,57.6 367.9,65.3 372.1,62.3 366,61.1 369.1,55.3 		"/>
	</g>
	<g>
		<g>
			<g>
				<g>
					<g>
						<g>
							<path d="M680.2,286c0,0,0.1-0.8,0.8-1.8c0.3-0.5,0.9-1.1,1.7-1.4c0.8-0.3,2-0.1,2.6,0.9l-0.5,0.2c-0.1-0.2-0.1-0.4-0.2-0.6
								c-0.7-1.9-1.4-3.6-1.8-4.9s-0.7-2.1-0.6-2.1c0.1,0,0.4,0.7,0.9,2c0.5,1.2,1.2,2.9,1.9,4.8c0.1,0.2,0.1,0.4,0.2,0.6l-0.5,0.2
								c-0.4-0.7-1.4-0.9-2-0.7c-0.7,0.2-1.2,0.7-1.6,1.2C680.5,285.3,680.2,286,680.2,286z"/>
						</g>
					</g>
				</g>
				<g>
					<g>
						<g>
							<path d="M683.3,288c-0.1,0-0.2-0.3-0.4-0.8c-0.1-0.5-0.3-1.2,0-2.1c0.3-0.8,0.9-1.4,1.5-1.5c0.5-0.2,0.9,0,0.9,0.1
								c0,0.1-0.3,0.1-0.7,0.3c-0.4,0.2-0.9,0.7-1.1,1.3c-0.2,0.7-0.2,1.3-0.1,1.8C683.3,287.7,683.4,288,683.3,288z"/>
						</g>
					</g>
				</g>
			</g>
			<g>
				<g>
					<g>
						<g>
							<path d="M666.5,286.6c0,0,0.1-0.8,0.8-1.8c0.3-0.5,0.9-1.1,1.7-1.4c0.8-0.3,2-0.1,2.6,0.9l-0.5,0.2c-0.1-0.2-0.1-0.4-0.2-0.6
								c-0.7-1.9-1.4-3.6-1.8-4.9c-0.4-1.3-0.7-2.1-0.6-2.1c0.1,0,0.4,0.7,0.9,2c0.5,1.2,1.2,2.9,1.9,4.8c0.1,0.2,0.1,0.4,0.2,0.6
								l-0.5,0.2c-0.4-0.7-1.4-0.9-2-0.7c-0.7,0.2-1.2,0.7-1.6,1.2C666.8,285.9,666.6,286.6,666.5,286.6z"/>
						</g>
					</g>
				</g>
				<g>
					<g>
						<g>
							<path d="M669.6,288.6c-0.1,0-0.2-0.3-0.4-0.8c-0.1-0.5-0.3-1.2,0-2.1c0.3-0.8,0.9-1.4,1.5-1.5c0.5-0.2,0.9,0,0.9,0.1
								c0,0.1-0.3,0.1-0.7,0.3c-0.4,0.2-0.9,0.7-1.1,1.3c-0.2,0.7-0.2,1.3-0.1,1.8C669.7,288.3,669.7,288.6,669.6,288.6z"/>
						</g>
					</g>
				</g>
			</g>
			<g>
				<path class="st65" d="M656.9,245.3c-0.2-0.2-2.8-2.8-2.8-2.8s4.4-0.2,4.7-0.2c-1.1-2.1-1.3-3.1-1.6-4.8l4.8,2.6
					c2.8-3.1,7.4-3.4,11.3-2c3.3,1.1,6.6,5.5,7.6,8.9c0.3,1.1,2,7.2,1.9,8.3l-3.1,4.5l18.4,10.9l0,0c-7.1,5.3-13.7,6.6-16.8,7.7
					c-5,1.7-11.6,1.5-13.9,0.8c-5.2-1.5-10.9-5-13.6-10.6c-2.2-4.7-2.1-8.6-1.2-14.5C653.1,251.2,655.3,247.4,656.9,245.3z"/>
			</g>
			<g>
				<path class="st65" d="M675.1,255.4c7.7-5.2,15.4-10.3,23.1-15.5c0.6-0.4,1.2-0.8,1.9-0.8c1.2,0,1.9,1.3,2.3,2.4
					c2.5,6.6,0.5,14.6-4.7,19.4c-5.2,4.8-17,10.3-26.1,3"/>
				<g>
					<g>
						<path class="st37" d="M671.7,264c0,0,0.3,0.1,0.7,0.4c0.5,0.3,1.1,0.8,2.1,1.2c1.8,0.9,4.8,1.9,8.5,1.6
							c3.7-0.3,8-1.7,12.1-4.5c2-1.4,4-3.2,5.3-5.4c1.4-2.3,2.3-4.9,2.7-7.7c0.1-1.4,0.1-2.8,0-4.2c-0.2-1.4-0.5-2.7-1-3.9
							c-0.2-0.6-0.6-1.2-1-1.6c-0.5-0.4-1-0.5-1.6-0.3c-0.6,0.2-1.1,0.6-1.6,0.9c-0.5,0.4-1.1,0.7-1.6,1c-4.1,2.7-7.9,5.2-11,7.3
							c-3.1,2-5.6,3.7-7.4,4.9c-0.9,0.5-1.5,1-2,1.3c-0.5,0.3-0.7,0.4-0.7,0.4c0,0,0.2-0.2,0.7-0.5c0.5-0.3,1.2-0.8,2-1.4
							c1.8-1.2,4.3-2.9,7.3-5c3.1-2.1,6.8-4.6,10.9-7.4c0.5-0.3,1-0.7,1.6-1.1c0.5-0.3,1-0.8,1.7-1c0.7-0.3,1.5-0.1,2.1,0.4
							c0.6,0.5,0.9,1.1,1.2,1.8c0.5,1.3,0.9,2.6,1,4c0.2,1.4,0.2,2.8,0,4.3c-0.3,2.9-1.3,5.6-2.7,7.9c-1.4,2.4-3.4,4.2-5.5,5.6
							c-4.1,2.8-8.6,4.3-12.4,4.5c-3.8,0.3-6.8-0.8-8.7-1.8c-1-0.5-1.6-1-2-1.3C671.9,264.2,671.7,264,671.7,264z"/>
					</g>
				</g>
			</g>
			<path class="st66" d="M665.5,246.5c0.9-0.1,1.5-0.9,1.3-1.8c-0.1-0.9-0.9-1.5-1.8-1.3c-0.9,0.1-1.5,0.9-1.3,1.8
				C663.8,246.1,664.6,246.7,665.5,246.5z"/>
		</g>
		<polygon class="st52" points="662.2,240.3 656.9,245.3 654.1,242.5 658.9,242.3 657.3,237.6 		"/>
	</g>
	<g>
		<g>
			<g>
				<path class="st32" d="M706.5,157.8c6.7-7.9,16-10.1,26.4-10.6c7.9-0.4,16.2,0.4,22.9,4.7c9.5,6.1,13.6,18.9,10.4,29.7
					c-3.2,10.8-13,19.9-24,22.2h-0.9c1.7,6.3,5.5,12,10.6,16c-8.6,0.5-17-6.3-18.3-14.8c-11.1,2-22.5-3.1-29.7-11.9
					C696.8,184.2,696,170.2,706.5,157.8z"/>
			</g>
			<g>
				<path class="st34" d="M737.7,167.9c-2.6,0.4-4.6,3.1-4.8,5.4c-0.3-2.3-1.8-4.3-4.5-5.3c-3.3-1.3-7.2,2-7.5,5.9
					c-0.2,3.1,1.4,6,3.1,8.5c2.6,4,9.6,8.7,9.6,8.7c-0.6,0,5.9-4.7,8.5-8.7c1.6-2.5,3.3-5.4,3.1-8.5
					C744.7,170,741.2,167.3,737.7,167.9z"/>
			</g>
		</g>
		<g>
			<g>
				<g>
					<path class="st28" d="M737.7,167.9c-2.6,0.4-4.6,3.1-4.8,5.4c-0.3-2.3-1.8-4.3-4.5-5.3c-3.3-1.3-7.2,2-7.5,5.9
						c-0.2,3.1,1.4,6,3.1,8.5c2.6,4,9.6,8.7,9.6,8.7c-0.6,0,5.9-4.7,8.5-8.7c1.6-2.5,3.3-5.4,3.1-8.5
						C744.7,170,741.2,167.3,737.7,167.9z"/>
				</g>
			</g>
		</g>
	</g>
	<g>
		<g>
			<g>
				<path class="st32" d="M275.1,527.5c-9.4-9.4-21.5-11.2-34.8-10.8c-10.1,0.3-20.7,2.1-28.8,8.3c-11.5,8.7-15.4,25.5-10.2,39
					c5.2,13.4,18.6,24.1,32.9,25.9l1.2-0.1c-1.5,8.2-5.8,15.9-12,21.4c11-0.2,21.1-9.8,21.8-20.8c14.4,1.4,28.4-6.2,36.6-18.2
					C290.1,560.2,289.7,542.2,275.1,527.5z"/>
			</g>
		</g>
	</g>
	<g>
		<path class="st4" d="M321.2,673.8c-11.3-2.6-30.8-6.9-41.7-10.9c-2.5-0.9-5.2-2-6.8-4.1c-1.7-2.1-1.8-5.6,0.4-7.2
			c-2.7-1.4-4.4-4.3-4.4-7.3c0-3,1.8-5.9,4.5-7.3c-3.1-4.1-1-10.9,3.8-12.6c-2.7-5,2.2-11.3,7.8-12.2c5.6-0.9,11,1.8,16.1,4.4
			c0.6-5,1.8-11.8,5-15.7c3.2-3.8,9-4.9,12.3-1.1c3,3.5-0.4,8.1-1,12.6c-1.1,8.3,11.5,13.7,15.5,16L321.2,673.8"/>
		<g>
			<g>
				<path class="st37" d="M321.2,673.8c0,0,0-0.3,0.2-0.8c0.1-0.6,0.3-1.3,0.6-2.4c0.5-2.1,1.3-5.2,2.2-9.1c2-7.9,4.8-19.2,8.2-33
					l0.1,0.2c-2-1.1-4.2-2.2-6.3-3.5c-2.1-1.3-4.3-2.7-6.1-4.7c-0.4-0.5-0.9-1-1.3-1.5c-0.2-0.3-0.4-0.5-0.6-0.8l-0.5-0.9
					c-0.6-1.2-1-2.6-0.9-4c0.1-2.8,1.4-5.4,2-8.1c0.3-1.3,0.4-2.8-0.3-4.1c-0.6-1.2-1.7-2.2-3-2.8c-2.6-1.2-5.9-0.4-8.2,1.4
					c-1.2,0.9-2.1,2.1-2.8,3.5c-0.7,1.3-1.3,2.8-1.8,4.2c-0.9,3-1.5,6.1-1.8,9.2l0,0.4l-0.3-0.2c-1.6-0.8-3.4-1.8-5.2-2.5
					c-2.2-0.9-4.5-1.7-6.8-1.9c-2.3-0.2-4.7-0.1-6.7,1c-1,0.5-1.9,1.2-2.7,2c-0.8,0.8-1.5,1.7-2,2.7c-1.1,2-1.2,4.3-0.1,6.2l0.1,0.3
					l-0.3,0.1c-2.4,0.8-4.1,3-4.7,5.3c-0.7,2.3-0.4,5,1.1,6.9l0.2,0.2l-0.3,0.1c-2.7,1.4-4.5,4.4-4.4,7.3c0.1,2.9,1.8,5.6,4.3,6.9
					l0.3,0.2l-0.3,0.2c-0.9,0.6-1.4,1.6-1.5,2.6c-0.1,1,0,2.1,0.4,3c0.8,1.9,2.6,3.1,4.4,4c1.8,0.9,3.7,1.5,5.5,2.1
					c1.8,0.6,3.6,1.2,5.3,1.7c6.9,2,13,3.5,18,4.7c5,1.2,9,2.1,11.7,2.8c1.3,0.3,2.4,0.6,3.1,0.7c0.3,0.1,0.6,0.1,0.8,0.2
					C321.1,673.8,321.2,673.8,321.2,673.8c0,0-0.1,0-0.3,0c-0.2,0-0.5-0.1-0.8-0.2c-0.7-0.2-1.7-0.4-3.1-0.7
					c-2.7-0.6-6.7-1.5-11.7-2.7c-5-1.2-11.1-2.7-18.1-4.7c-1.7-0.5-3.5-1-5.3-1.6c-1.8-0.6-3.7-1.2-5.5-2.1
					c-1.8-0.9-3.7-2.1-4.6-4.2c-0.4-1-0.6-2.1-0.5-3.3c0.1-1.1,0.7-2.2,1.7-2.9l0,0.4c-2.6-1.3-4.5-4.2-4.6-7.3
					c-0.1-3.1,1.7-6.3,4.6-7.7l-0.1,0.4c-1.6-2-1.9-4.8-1.2-7.3c0.7-2.5,2.5-4.8,5.1-5.7l-0.1,0.4c-1.1-2.1-1-4.7,0.1-6.7
					c1.1-2.1,2.8-3.8,4.9-4.9c2.1-1.1,4.6-1.3,7-1c2.4,0.3,4.7,1,6.9,2c1.8,0.8,3.6,1.7,5.3,2.5l-0.4,0.2c0.4-3.2,0.9-6.3,1.8-9.3
					c0.5-1.5,1-3,1.8-4.3c0.8-1.4,1.7-2.7,2.9-3.6c1.2-1,2.6-1.7,4.2-1.9c1.5-0.3,3.1-0.2,4.5,0.4c1.4,0.6,2.6,1.7,3.3,3
					c0.7,1.4,0.6,3,0.3,4.4c-0.6,2.8-1.9,5.4-2,8c-0.1,1.3,0.3,2.6,0.8,3.8l0.5,0.9c0.2,0.3,0.4,0.5,0.6,0.8c0.4,0.5,0.8,1,1.2,1.5
					c1.8,1.9,3.9,3.3,6,4.6c2.1,1.3,4.3,2.4,6.3,3.5l0.1,0.1l0,0.2c-3.5,13.8-6.4,25.1-8.4,32.9c-1,3.9-1.8,7-2.3,9.1
					c-0.3,1-0.5,1.8-0.6,2.4C321.2,673.5,321.2,673.8,321.2,673.8z"/>
			</g>
		</g>
	</g>
	<path class="st47" d="M342.6,681.4l13-51.5c0.3-1.2-0.4-2.5-1.7-2.8l-15-3.8c-1.2-0.3-2.5,0.4-2.8,1.7l-13,51.5"/>
	<path class="st4" d="M341.2,634.4c-0.5,1.8,0.6,3.6,2.4,4.1c1.8,0.5,3.6-0.6,4.1-2.4c0.5-1.8-0.6-3.6-2.4-4.1
		C343.5,631.6,341.7,632.6,341.2,634.4z"/>
	<g>
		<g>
			<g>
				<path class="st37" d="M276.2,625.2c0-0.1,0.7-0.4,2-0.7c1.3-0.3,3.1-0.4,5.1,0c2,0.4,3.7,1.1,4.8,1.8c1.1,0.7,1.7,1.3,1.7,1.3
					c-0.1,0.2-2.7-1.9-6.6-2.6C279.4,624.4,276.2,625.4,276.2,625.2z"/>
			</g>
		</g>
	</g>
	<g>
		<g>
			<g>
				<path class="st37" d="M272.5,637.3c0-0.1,2.4-0.4,5.2,0.4c2.8,0.8,4.7,2.3,4.6,2.4c-0.1,0.1-2-1.2-4.8-1.9
					C274.8,637.4,272.5,637.4,272.5,637.3z"/>
			</g>
		</g>
	</g>
	<g>
		<g>
			<g>
				<path class="st37" d="M270.7,651.1c0-0.1,2.2-0.7,4.9,0c2.7,0.7,4.4,2.3,4.3,2.3c-0.1,0.1-1.9-1.2-4.4-1.8
					C272.9,651,270.7,651.2,270.7,651.1z"/>
			</g>
		</g>
	</g>
	<g>
		<path class="st28" d="M203.3,204.1c-4.6,0.8-8,5.4-8.3,9.4c-0.5-4-3.1-7.4-7.8-9.2c-5.7-2.2-12.6,3.4-13.1,10.3
			c-0.4,5.4,2.4,10.4,5.3,14.8c4.5,6.9,16.6,15,16.6,15c-1,0,10.2-8.1,14.7-15c2.9-4.4,5.7-9.4,5.3-14.8
			C215.4,207.7,209.2,203,203.3,204.1z"/>
	</g>
</g>
</svg>
