<?xml version="1.0" encoding="utf-8"?>
<!-- Generator: Adobe Illustrator 27.2.0, SVG Export Plug-In . SVG Version: 6.00 Build 0)  -->
<svg version="1.1" id="Layer_1" xmlns="http://www.w3.org/2000/svg" xmlns:xlink="http://www.w3.org/1999/xlink" x="0px" y="0px"
	 viewBox="0 0 689.4 674.9" style="enable-background:new 0 0 689.4 674.9;" xml:space="preserve">
<style type="text/css">
	.st0{display:none;}
	.st1{display:inline;}
	.st2{clip-path:url(#SVGID_00000129202325124120074330000009719430433362012863_);}
	.st3{clip-path:url(#SVGID_00000160149143802546477810000011623114719038694304_);}
	.st4{fill:#FFFFFF;}
	.st5{fill:#A0C6F4;}
	.st6{fill:none;stroke:#2A1E17;stroke-width:1.8;stroke-linecap:round;stroke-linejoin:round;}
	.st7{fill:#2A1E17;}
	.st8{fill:#F9865F;}
	.st9{fill:#2A1E33;}
	.st10{fill:#7595EC;}
	.st11{fill:#FF8A66;}
	.st12{fill:#FFF7C9;}
	.st13{fill:none;stroke:#2A1E33;stroke-width:1.8;stroke-linecap:round;stroke-linejoin:round;}
	.st14{fill:#FF6D66;}
	.st15{fill:#FAD8B0;}
	.st16{fill:#C6CBCB;}
	.st17{fill:#FFF7DC;}
	.st18{fill:#FFE1C0;}
	.st19{fill:#91BA83;}
	.st20{fill:none;stroke:#2A1E17;stroke-width:1.21;stroke-linecap:round;stroke-linejoin:round;}
	.st21{fill:#96BD89;}
	.st22{fill:none;stroke:#FF6D66;stroke-width:1.8;stroke-linecap:round;stroke-linejoin:round;}
	.st23{fill:none;stroke:#FAD8B0;stroke-width:1.8;stroke-miterlimit:10;}
	.st24{fill:none;stroke:#A0C6F4;stroke-width:1.8;stroke-linecap:round;stroke-linejoin:round;}
	.st25{fill:#FF625F;}
	.st26{fill:#D7294F;}
	.st27{fill:#C3C0C0;}
	.st28{fill:#FF3358;}
	.st29{fill:#E1E1E1;}
	.st30{opacity:0.3;clip-path:url(#SVGID_00000139982860168942769670000001090985855833776810_);fill:#FFFFFF;}
	.st31{fill:#FFB554;}
	.st32{fill:#CFE0EC;}
	.st33{fill:#B6D4D0;}
	.st34{fill:#E7F4F2;}
	.st35{fill:#3B80C4;}
	.st36{fill:#A7CB91;}
	.st37{fill:#0A4D60;}
	.st38{fill:none;stroke:#51B480;stroke-miterlimit:10;}
	.st39{fill:#51B480;}
	.st40{fill:#BB6713;}
	.st41{fill:#F79F3F;}
	.st42{opacity:0.3;}
	.st43{fill:#FFC43D;}
	.st44{fill:none;}
	.st45{clip-path:url(#SVGID_00000132768920858650049710000017683624563982674833_);}
	.st46{clip-path:url(#SVGID_00000132768920858650049710000017683624563982674833_);fill:#FF3358;}
	.st47{fill:none;stroke:#0A4D60;stroke-width:2;stroke-linecap:round;stroke-linejoin:round;stroke-miterlimit:10;}
	.st48{fill:#2965A7;}
	.st49{opacity:0.5;fill:#FFFFFF;}
	.st50{fill:#14BEA2;}
	.st51{fill:#FFB28A;}
	.st52{fill:#5D1937;}
	.st53{fill:#FF7C51;}
	.st54{fill:#00BB9A;}
	.st55{opacity:0.56;fill:#FF7C51;}
	.st56{fill:#A08480;}
	.st57{fill:#7F6461;}
	.st58{fill:#FFC33D;}
	.st59{fill:#6986E7;}
	.st60{clip-path:url(#SVGID_00000062903635560483480490000005591744828265177521_);}
	.st61{fill:#CAD6DF;}
	.st62{fill:none;stroke:#0A4D60;stroke-width:5.000000e-02;stroke-miterlimit:10;}
	.st63{clip-path:url(#SVGID_00000121988171964276076790000013944270284360583329_);}
	.st64{fill:#4187ED;}
	.st65{fill:#4DAE9E;}
	.st66{fill:#00A0F3;}
	.st67{stroke:#FFFFFF;stroke-width:5.000000e-02;stroke-miterlimit:10;}
	.st68{fill:#F72586;}
</style>
<g id="Layer_2_00000102525450785922449990000004611221828621792899_" class="st0">
	<g id="Layer_1-2" class="st1">
		<g id="Artwork_7">
			<g>
				<defs>
					<rect id="SVGID_1_" x="-108.7" width="1166.6" height="674.9"/>
				</defs>
				<clipPath id="SVGID_00000042005577672090427740000002677985741608479398_">
					<use xlink:href="#SVGID_1_"  style="overflow:visible;"/>
				</clipPath>
				<g style="clip-path:url(#SVGID_00000042005577672090427740000002677985741608479398_);">
					<g>
						<defs>
							<rect id="SVGID_00000090282800225243218660000012444412121501374624_" x="-108.7" width="1166.6" height="674.9"/>
						</defs>
						<clipPath id="SVGID_00000041979374436294896540000013502903083432841857_">
							<use xlink:href="#SVGID_00000090282800225243218660000012444412121501374624_"  style="overflow:visible;"/>
						</clipPath>
						<g style="clip-path:url(#SVGID_00000041979374436294896540000013502903083432841857_);">
							<path class="st4" d="M475.7,184.5C417.4,129.9,349,115.8,331,112.9c12.2-32.8,31-81.6,35.6-88.8c3-0.4,6.1-0.5,9.1-0.5
								c13.3,0,41.7,2.8,82.7,21.2c59,26.5,75.1,56.7,78.3,64.1L475.7,184.5z"/>
							<path class="st5" d="M375.7,27.1c13,0,40.8,2.7,81.3,20.9c53.7,24.2,71,51.1,75.6,60.3l-57.3,70.9
								c-34.5-31.4-71.6-48.7-97.3-57.8c-13.7-4.9-27.8-8.8-42.1-11.4c13.4-36.1,28.1-73.3,33-82.6
								C370.5,27.3,372.8,27.1,375.7,27.1 M375.8,19.9c-3.7-0.1-7.3,0.2-10.9,0.8c-4.2,1.4-38.8,95.1-38.8,95.1s82,8.4,150,74
								l64.9-80.3c0,0-10.8-36.5-80.9-68C418.9,23,390.2,19.9,375.8,19.9"/>
							<path class="st6" d="M338.1,123.1c0,0,80.6,8.1,130.3,53.8"/>
							<polygon class="st5" points="407.7,119.2 437.8,60.7 468.7,121.7 							"/>
							<polygon class="st6" points="413.6,118.3 443.7,59.8 474.6,120.8 							"/>
							<path class="st6" d="M385.3,16.4c0,0,90.4,8.1,146.6,74.9"/>
							<path class="st7" d="M431.5,275.6c-5-3.6-8.2-6.1-8.2-6.1c1.4-1.8,23.1-25,35.7-43.7C459,225.8,433.6,277.1,431.5,275.6"/>
							<path class="st6" d="M123.2,106.7c2.4,4,3.5,2.4,10.5,1.9c7-0.5,17,4.6,20.5,13.2s2.4,10,0.5,11s-15.3,2.7-15.9,5.4"/>
							<polygon class="st8" points="304.6,544.9 298.3,534.3 276.1,571.4 281.9,575.9 							"/>
							<path class="st8" d="M156.8,452.9c0,0-11.5-18.8-6.5-27.9l36.8,3.9L156.8,452.9z"/>
							<path d="M156.8,452.9l2.2,5.1l-6.8,26.5c-0.9,3.3,0.3,6.9,2.9,9.1l33.6-49.7c3.2-4.7,2.5-11.1-1.7-15l-7.5-7L156.8,452.9z"/>
							<path class="st9" d="M138.8,138.1c10.5-0.2,23.9-0.9,21.2-8.9s-12.7-28-35.4-22c0,0-8,6.7,2,18.7S138.8,138.2,138.8,138.1"/>
							<path class="st10" d="M192.2,429.4c0,0-18-53.1-2.8-76.4c12.6-19.2,53.6,12,59.2,16.3l29.4-53c0,0-6.8-9.5-23.4-18.8
								s-85.4-37.2-117.7,13.8c-11.9,18.8-12.1,99.7,10.8,130.6L192.2,429.4z"/>
							<path class="st6" d="M192.2,429.4c0,0-18-53.1-2.8-76.4c12.6-19.2,53.6,12,59.2,16.3"/>
							<path class="st10" d="M278,316.2c-13.4,14-52.9,82.5-61.8,115.2c-11.9,43.8-7.4,80.1,58,151.2l31.6-46.1
								c0,0-22.2-33.8-18.1-65.6c6-46.1,38.8-90.7,55.4-119L278,316.2z"/>
							<polygon class="st7" points="283,322.1 335.6,363.4 351.3,339.5 							"/>
							<path class="st11" d="M585.3,278.7c8.2,1.8,14.5,4.9,18.8,9.4c4.3,4.5,2.3,6.8,0.8,8.2s-7.6-0.2-12.9-4.9
								S585.3,278.7,585.3,278.7"/>
							<path class="st8" d="M423.3,269.5c1.4-1.8,23.1-25,35.7-43.7c0,0,38.1,42.7,42.2,44.1c1.5,0.5,10.9,0.4,22.5,0.3
								c19.6-0.2,45.6-0.4,51.4,2.5c9.2,4.6,14.7,6.9,17,13.3s3.2,10.6-2.3,11c-6.4,0.5-10.5-7.8-10.5-7.8s-5.2,3.2-18.8,8.3
								c0,0-48.8,18.9-81.4,9.8C470.1,304.7,423.3,269.5,423.3,269.5"/>
							<path class="st8" d="M127.5,99.1c-4.2,1.6-6.7,3.5-4.3,7.5s3.5,2.4,10.5,1.9c7-0.5,17,4.6,20.5,13.2s2.4,10,0.5,11
								s-15.3,2.7-15.9,5.4s5.4,10.6,17.8,10.1l3-0.5c0,0,26,25.4,29.8,29.2s31.5,22.5,46.7,26.4c11.6,2.9,35.1-0.8,49.2-3.6
								c6.9-1.3,11.5-2.4,11.5-2.4s-10.6-19.1-12.8-48.4c0,0-25.4,4.1-42.2,7.8c0,0-39.3-21.9-58.4-31.6c0,0-16.7-20.5-24.5-23.2
								S133.2,97,127.5,99.1"/>
							<path class="st7" d="M285.4,199.7c6.9-1.3,11.5-2.4,11.5-2.4s-12.8-16.2-15-45.5c0,0-5.8,6.2-4,22.9
								C280.2,195.5,285.4,199.7,285.4,199.7"/>
							<path class="st12" d="M281.3,148.4c0,0,0.4,35.9,10,50.8l3.5-1.4c0,0-45.3,53-59.9,87.6c-2.4,5.7,94,67.2,108.3,66.4
								c0,0,47-71.7,63-92.9l17.3,13.4c0,0,33.9-34.3,35.7-46.5c0,0-32.7-39.8-59.5-51.4s-50.7-31.6-79.4-31.1
								C295.3,143.8,281.3,148.4,281.3,148.4"/>
							<polygon class="st7" points="423.4,272.3 406.1,258.9 408.8,251.4 							"/>
							<path class="st8" d="M449.6,130.5c-3,9.4-11.8,36.6-21.5,40s-19.9-0.9-19.9-0.9l-10.4,5.3c-1.2,3.5-9.4,6.5-19.9,6.9
								c-7.8,0.3-12.6-9.8-10.3-17c1.1-3.4,5-19.8,5-19.8s8.4-30.9,16.1-37.3s15-12.7,35.6-4.4C456,116.1,449.6,130.6,449.6,130.5"
								/>
							<path class="st9" d="M387,131.8c-1.4,5.8-7.4,17.3-11.3,15.2s-5.3-7.4-2.5-17.6s5.1-33.3,12.9-37.4s11.3,0.7,11.3,0.7
								s-3.5-16.8,6.7-19.2c0,0,3.5-1.6,2.1,9.9c0,0,3.9-10.6,16.6-9.2s17.1,19.2,17.1,19.2s0.9-4.8,6.7-4.8s14.5,8.5,12.5,18
								c0,0,14.8-4.6,22.6,7.2s6.9,24.7-12,29.8c-19.8,5.3-19.6-17.8-22.6-20.8s-6.2-6.5-17.3-2.3s-22.6-8.1-22.6-8.1
								s-1.8,14.8-3.7,16.2s-5.5,3.2-4.6-3.7s2.1-6.2,1.4-8.1s-3.8-7.7-10.4-2.5C382.4,120,387.1,131.8,387,131.8"/>
							<path class="st13" d="M390.2,134.4c-4.4-3.7-7.5-10.2-3.6-16.7s10.2-7.4,12.2-4.9s2.7,6.6,0.9,11.6"/>
							<path d="M281.9,575.9l2.2,5.1l-6.8,26.5c-0.9,3.3,0.3,6.9,2.9,9.1l33.6-49.7c3.2-4.7,2.5-11.1-1.7-15l-7.5-7L281.9,575.9z"/>
							<path class="st13" d="M397.4,92.8c0,0-2.6-8.4-10.3-10.6"/>
							<line class="st6" x1="233.7" y1="283" x2="327" y2="152.8"/>
							<path class="st6" d="M365.4,161.9c-3.4,4.4-4.9,23.1,10.6,24.4s25.4-5.6,25.4-5.6"/>
							<path class="st6" d="M159,101.8c0,0,10.7,14.1,12.3,19.1"/>
							<path class="st6" d="M557.9,290.9c0,0,7.1,5.9,21.3-1.7c5.2-2.8,1.5-9.2-5-7.6s-14.2-0.8-14.2-0.8"/>
							<path class="st6" d="M587.7,279.5c0,0,6.8,8,6.6,12.7"/>
							<path class="st6" d="M487.2,278.7c0,0,6.2-8.2,14.1-8.8"/>
							<path class="st6" d="M226.8,169.9c0,0,3.6-11.2,15.1-13.3"/>
							<path class="st6" d="M258.1,340.3l-13.8,26.4c0,0-45.4,76.9-30,126.6"/>
							<path class="st6" d="M298.4,428.5l44.7-76.6c0,0,58.6-85,64.6-97l20.7-38.2"/>
							<path class="st6" d="M240,291.1c0,0,79.5,58,103.1,60.8"/>
							<path class="st6" d="M281.3,148.4c0,0-0.1,36.4,9.7,51.3"/>
							<path class="st6" d="M456.5,220.1c-2.5,15-35.7,46.5-35.7,46.5"/>
							<path class="st7" d="M213.6,402c0,2.6-2.1,4.7-4.7,4.7s-4.7-2.1-4.7-4.7s2.1-4.7,4.7-4.7C211.5,397.3,213.6,399.4,213.6,402"
								/>
							<polygon class="st6" points="651.8,503.5 649.1,485.4 664.5,495.7 656.5,497.4 							"/>
							<path class="st6" d="M141,195.3c-29.2-25.8-77.4,38.5,99,242.8C341.9,556,421.8,566.5,432.7,525.5
								c19.4-73.6-50.8-92.2-24.6-63.4c38,41.9,146,50.8,226.5,11.6c79.4-38.6,30.6-98.5,25.7-102"/>
							<path class="st7" d="M640.5,473.5c0,2.6-2.1,4.7-4.7,4.7c-2.6,0-4.7-2.1-4.7-4.7s2.1-4.7,4.7-4.7l0,0
								C638.4,468.7,640.5,470.9,640.5,473.5"/>
							<line class="st6" x1="567.1" y1="512" x2="707.1" y2="433.1"/>
							<path class="st7" d="M148.7,199.1c0,2.6-2.1,4.7-4.7,4.7s-4.7-2.1-4.7-4.7s2.1-4.7,4.7-4.7S148.7,196.5,148.7,199.1
								L148.7,199.1"/>
							<path class="st14" d="M274.4,101.6c0,5.6-4.5,10.1-10.1,10.1s-10.1-4.5-10.1-10.1c0-5.6,4.5-10.1,10.1-10.1c0,0,0,0,0,0
								C269.9,91.5,274.4,96,274.4,101.6"/>
							<path class="st5" d="M80.5,24.4c-2.5,0-4.4,2-4.4,4.5c0,2.5,2,4.4,4.5,4.4c2.5,0,4.4-2,4.4-4.4C85,26.4,83,24.4,80.5,24.4
								C80.5,24.4,80.5,24.4,80.5,24.4"/>
							<path class="st15" d="M681.5,572.8c0,2.5-2,4.4-4.5,4.4c-2.5,0-4.4-2-4.4-4.5c0-2.5,2-4.4,4.4-4.4
								C679.5,568.4,681.5,570.4,681.5,572.8C681.5,572.8,681.5,572.8,681.5,572.8"/>
							<path class="st9" d="M597.5,371.8l-47.9-22.5c-2.5-1.2-3.5-4.2-2.2-6.7c0.5-1,1.3-1.8,2.3-2.3l89-39.2c1.3-0.6,2.7-0.6,4,0
								l61.2,26.2L597.5,371.8z"/>
							<path class="st16" d="M594.5,298c0.1,19.8,3,73.8,3,73.8l106.4-44.5l-2.4-75.1c-0.1-3.6-3.1-6.4-6.7-6.3
								c-0.9,0-1.7,0.2-2.5,0.6l-91.6,41.7C597,290,594.5,293.8,594.5,298"/>
							<path class="st6" d="M597.5,371.8l106.4-44.5l-2.4-75.1c0,0-0.7-8.2-9.1-5.7"/>
							<line class="st6" x1="649" y1="317.8" x2="656.2" y2="300.8"/>
							<line class="st6" x1="656.2" y1="317.8" x2="663.4" y2="300.8"/>
							<path class="st14" d="M104.2,498.5c0,2.5-2,4.4-4.5,4.4s-4.4-2-4.4-4.5c0-2.5,2-4.4,4.4-4.4
								C102.2,494.1,104.2,496.1,104.2,498.5L104.2,498.5"/>
							<path class="st14" d="M481.3,520.6c0,3.4-2.8,6.2-6.2,6.2s-6.2-2.8-6.2-6.2s2.8-6.2,6.2-6.2S481.3,517.2,481.3,520.6
								L481.3,520.6"/>
							<path class="st17" d="M145.9,564.6c17.6,8.1,36.8,12.2,56.2,12c1.4,0,2.5,1.1,2.5,2.5c0,0.1,0,0.2,0,0.3l-3.9,30.8
								c-0.1,1.1-1,2-2,2.2c-7.9,1.5-39.6,5.8-63.4-14.3c-0.7-0.6-1-1.6-0.8-2.6l7.8-29.4c0.4-1.4,1.7-2.2,3.1-1.8
								C145.5,564.4,145.7,564.5,145.9,564.6"/>
							<path class="st6" d="M148.6,573.6c0,0,13.7,19.3,18.6,22s31.3-13,31.3-13"/>
							<line class="st6" x1="180.2" y1="593" x2="194.6" y2="607.8"/>
							<line class="st6" x1="160.2" y1="590.1" x2="143.3" y2="594.7"/>
							<rect x="571.2" y="199.9" class="st18" width="16.1" height="16.1"/>
							<polygon class="st5" points="573.4,417.1 578.2,425.4 582.9,433.7 573.4,433.7 563.8,433.7 568.6,425.4 							"/>
							<path class="st6" d="M186.3,49.8l1.2-37.6c-0.1-3.5,1.3-4.6,3.5-5.1c10.2-2.3,41.3-9.2,75.1,0.8c4.4,1.3,4.2,3.6,4.2,5.7
								l-1.2,35.9c-0.1,2.6-2.8,4.5-5.9,4.1c-9.9-1.4-23.3-1.9-36.9-1.8c-14.1,0.1-26.6,1.2-35.4,2.9
								C187.4,55.2,186.2,52.7,186.3,49.8z"/>
							<path class="st6" d="M197.7,44.3l19.7-23l21.8,21.5C231.6,40.3,197.7,44.3,197.7,44.3z"/>
							<polyline class="st6" points="229.4,31.9 245.3,19.2 258.7,28.8 259.2,43.7 239.1,42.8 							"/>
							<path class="st6" d="M206.2,19c0.2,1.8-1.4,3.4-3.5,3.5c-2,0.2-3.8-1.1-4.2-3.1c-0.2-1.8,1.4-3.4,3.5-3.5
								C204,15.7,205.8,17,206.2,19z"/>
							<path class="st6" d="M566.8,538.9l13.2,24.4c1.4,2.2,0.9,3.4-0.3,4.5c-5.7,5.2-22.8,21.2-48,27.4c-3.3,0.8-4-0.7-4.8-2.1
								l-12.6-23.2c-0.9-1.7,0.1-3.9,2.2-4.8c6.8-2.8,15.5-7.5,24.1-12.6c7.6-4.4,14.7-9.4,21.4-15C564,535.8,565.8,537,566.8,538.9
								z"/>
							<path class="st6" d="M561.6,546.6l-3.9,21.9l-21.8-5.5C541.5,561.7,561.6,546.6,561.6,546.6z"/>
							<polyline class="st6" points="546,566.2 540.7,580.2 528.6,579.2 522.7,569.8 535.8,563 							"/>
							<path class="st6" d="M565.6,565.9c-0.7-1.1-0.4-2.7,0.7-3.4c0.1,0,0.1-0.1,0.2-0.1c1.2-0.9,2.8-0.7,3.8,0.4
								c0.7,1.1,0.4,2.7-0.7,3.4c-0.1,0-0.1,0.1-0.2,0.1C568.2,567.1,566.6,567,565.6,565.9z"/>
							<path class="st4" d="M502.5,122.7l53.6,41c1.2,0.9,2.8,0.7,3.7-0.5c0,0,0,0,0,0l8.1-11c0.9-1.1,0.6-2.8-0.5-3.6l-52.9-42.3
								c-1.1-0.9-2.8-0.7-3.7,0.4c0,0-0.1,0.1-0.1,0.1l-8.9,12.2C501.1,120.2,501.4,121.8,502.5,122.7"/>
							<path class="st6" d="M502.5,122.7l53.6,41c1.2,0.9,2.8,0.7,3.7-0.5c0,0,0,0,0,0l8.1-11c0.9-1.1,0.6-2.8-0.5-3.6l-52.9-42.3
								c-1.1-0.9-2.8-0.7-3.7,0.4c0,0-0.1,0.1-0.1,0.1l-8.9,12.2C501.1,120.2,501.4,121.9,502.5,122.7z"/>
							<polygon class="st14" points="506.5,120.9 519.5,130 527.2,120.9 514.2,110 							"/>
							<polygon class="st15" points="524.4,133.6 537.4,143.9 544.4,135.3 531.3,124.7 							"/>
							<polygon class="st5" points="541.8,147.9 554.8,157 561,149.1 548.7,138.8 							"/>
							<path class="st4" d="M609.5,65.3L621.8,168c0.3,2.2,2.3,3.8,4.5,3.5c0,0,0,0,0.1,0l20.7-2.8c2.2-0.3,3.7-2.2,3.5-4.4
								l-10-103.2c-0.2-2.2-2.2-3.9-4.4-3.6c-0.1,0-0.1,0-0.2,0L613,60.9C610.8,61.2,609.3,63.2,609.5,65.3"/>
							<path class="st6" d="M609.5,65.3L621.8,168c0.3,2.2,2.3,3.8,4.5,3.5c0,0,0,0,0.1,0l20.7-2.8c2.2-0.3,3.7-2.2,3.5-4.4
								l-10-103.2c-0.2-2.2-2.2-3.9-4.4-3.6c-0.1,0-0.1,0-0.2,0L613,60.9C610.8,61.2,609.3,63.2,609.5,65.3z"/>
							<polygon class="st14" points="615.8,67.8 619.7,91.8 637.9,90.4 635.9,64.6 							"/>
							<polygon class="st19" points="621,100.9 623.5,126.3 640.4,124.8 638.1,99 							"/>
							<polygon class="st15" points="623.9,135.3 627.7,159.3 643.1,157.6 641.3,133.1 							"/>
							<path class="st4" d="M582.9,87.2l33.8,99.5c0.6,1.7,2.4,2.6,4.1,2c0,0,0,0,0.1,0l21.2-7.6c1.6-0.6,2.5-2.3,2-4L612.3,76.6
								c-0.5-1.7-2.4-2.6-4.1-2.1c0,0-0.1,0-0.1,0l-23.3,8.6C583.2,83.8,582.3,85.6,582.9,87.2"/>
							<path class="st6" d="M582.9,87.2l33.8,99.5c0.6,1.7,2.4,2.6,4.1,2c0,0,0,0,0.1,0l21.2-7.6c1.6-0.6,2.5-2.3,2-4L612.3,76.6
								c-0.5-1.7-2.4-2.6-4.1-2.1c0,0-0.1,0-0.1,0l-23.3,8.6C583.2,83.8,582.3,85.6,582.9,87.2z"/>
							<polygon class="st5" points="589.7,89 598.5,111.7 616.1,106.6 608.8,81.7 							"/>
							<polygon class="st8" points="601.7,120.4 609.5,144.7 625.7,139.7 618.1,115 							"/>
							<polygon class="st15" points="611.7,153.4 620.5,176.1 635.1,171.3 628.2,147.7 							"/>
							<path class="st10" d="M327.8,255.7H156.9c-5.5,0-9.9-4.4-9.9-9.9c0,0,0,0,0,0v-23.1c0-5.4,4.4-9.9,9.9-9.9c0,0,0,0,0,0h170.9
								c5.5,0,9.9,4.4,9.9,9.9v23.1C337.7,251.3,333.3,255.7,327.8,255.7C327.8,255.7,327.8,255.7,327.8,255.7"/>
							<path class="st4" d="M263.8,232h-93.2c-1.8,0-3.3-1.5-3.3-3.3c0-1.8,1.5-3.3,3.3-3.3h93.2c1.8,0,3.3,1.5,3.3,3.3
								C267,230.5,265.6,232,263.8,232"/>
							<line class="st6" x1="168.3" y1="240.5" x2="326.7" y2="240.5"/>
							<path class="st19" d="M89.9,135.2l-2.6-2.9l-9,8.1l2.7,3c1.1,1.2,3.1,1.3,4.3,0.2c0,0,0,0,0,0l4.4-4
								C91,138.5,91.1,136.5,89.9,135.2C89.9,135.3,89.9,135.3,89.9,135.2"/>
							<path class="st6" d="M63.1,124l8.8-8c0.7-0.7,1.8-0.6,2.5,0.1L87.1,130c0.7,0.7,0.6,1.8-0.1,2.5l-8.8,8
								c-0.7,0.7-1.8,0.6-2.5-0.1L63,126.5C62.3,125.8,62.4,124.7,63.1,124z"/>
							<rect x="33.7" y="189.7" class="st14" width="16" height="14.6"/>
							<polyline class="st6" points="33.7,180.3 33.7,189.7 24.2,189.7 							"/>
							<rect x="559.8" y="25.1" class="st15" width="16" height="14.6"/>
							<polyline class="st6" points="559.8,15.7 559.8,25.1 550.2,25.1 							"/>
							<path class="st6" d="M127.6,115.2c-165.5-68.6-293,63.5,19.1,265.9c24.6,15.9,62.2,21.5,62.2,21.5"/>
							<path class="st7" d="M-19.9,119.8c0,2.6-2.1,4.7-4.7,4.7c-2.6,0-4.7-2.1-4.7-4.7c0-2.6,2.1-4.7,4.7-4.7
								C-22,115.1-19.9,117.2-19.9,119.8C-19.9,119.8-19.9,119.8-19.9,119.8"/>
							<polygon class="st6" points="-54.7,93.9 -49.5,88.9 -37.6,95.7 -31.6,114.2 -49.9,106.5 							"/>
							<polygon class="st6" points="-49.5,88.9 -54.7,93.9 -57.6,90.4 -52.6,85.6 							"/>
							<line class="st6" x1="-31.6" y1="114.2" x2="-43.5" y2="101.1"/>
							<path class="st4" d="M-3,444.6l12.9,66.3c0.3,1.4,1.7,2.4,3.1,2.1c0,0,0,0,0.1,0l13.3-2.8c1.4-0.3,2.3-1.6,2.1-3L17,440.4
								c-0.2-1.4-1.6-2.4-3-2.2c-0.1,0-0.1,0-0.2,0l-14.7,3.3C-2.3,441.8-3.2,443.2-3,444.6"/>
							<path class="st6" d="M-3,444.6l12.9,66.3c0.3,1.4,1.7,2.4,3.1,2.1c0,0,0,0,0.1,0l13.3-2.8c1.4-0.3,2.3-1.6,2.1-3L17,440.4
								c-0.2-1.4-1.6-2.4-3-2.2c-0.1,0-0.1,0-0.2,0l-14.7,3.3C-2.3,441.8-3.2,443.2-3,444.6z"/>
							<polygon class="st14" points="1.2,445.9 4.9,461.3 16.7,459.6 14.2,442.8 							"/>
							<polygon class="st15" points="6.2,467.2 9.1,483.6 20,481.8 17.3,465.2 							"/>
							<polygon class="st5" points="9.7,489.5 13.4,505 23.3,503.1 20.9,487.2 							"/>
							<polygon class="st6" points="365.5,610.8 419.9,596.2 421.9,602.1 366.9,616.4 							"/>
							<line class="st6" x1="357.9" y1="603.2" x2="359.5" y2="608.1"/>
							<line class="st6" x1="356.4" y1="606.4" x2="361" y2="604.8"/>
							<line class="st6" x1="355.3" y1="622" x2="358.3" y2="631.3"/>
							<line class="st6" x1="352.8" y1="627.9" x2="360.9" y2="625.3"/>
							<line class="st6" x1="342.9" y1="606.7" x2="346.7" y2="619"/>
							<line class="st6" x1="339" y1="614.3" x2="350.5" y2="610.7"/>
							<polygon class="st20" points="-31,20.1 -65.4,4.5 -64,0.6 -29.4,16.5 							"/>
							<line class="st20" x1="-30.3" y1="27.2" x2="-29" y2="24"/>
							<line class="st20" x1="-28.1" y1="26.2" x2="-31.2" y2="25.1"/>
							<line class="st20" x1="-20.9" y1="18.6" x2="-18.5" y2="12.5"/>
							<line class="st20" x1="-17.1" y1="16.6" x2="-22.5" y2="14.4"/>
							<line class="st20" x1="-21" y1="31.8" x2="-17.8" y2="23.8"/>
							<line class="st20" x1="-15.8" y1="29.5" x2="-23.3" y2="26.5"/>
							<path class="st15" d="M97.6,310.7c-24.2-17.5-48.1-44.6-37.6-72.5c0,0,16.7-11.1,43.2,2.8l26.5,13.9L97.6,310.7z"/>
							<path class="st4" d="M86.6,427c-10.9-5.2-57.5-29.4-65.8-70.9C13.6,320.3,41,272,54.7,250.7C53.9,279,82.3,303,96,312.9
								c13.9,10,24.1,14.9,38.2,20.2L86.6,427z"/>
							<path class="st15" d="M52.7,259.1c3,18.8,17.3,38.3,41.8,55.9c11,8.1,23.1,14.7,36,19.5l-45,88.9c-13.7-6.8-54.4-30-62-67.8
								C17.2,324.2,38.4,282.5,52.7,259.1 M60,238.2c0,0-51.6,69.7-41.8,118.5s69.7,73.9,69.7,73.9l50.2-99
								c-15.7-5.8-25.9-10.4-40.4-20.9C73.3,293.2,49.5,266.1,60,238.2"/>
							<path class="st6" d="M46.4,278.7c0,0,3,28,31,43"/>
							<line class="st6" x1="92.4" y1="331.7" x2="120.4" y2="346.7"/>
							<path class="st6" d="M50.4,318.7c0,0,9,20,38,33"/>
							<path class="st6" d="M27.4,321.7c0,0,1,21,15,28"/>
							<path class="st6" d="M59.4,248.7c0,0-2.6,27,38.2,62"/>
							<path class="st6" d="M74.4,253.7c0,0,13-1,32,13"/>
							<path class="st6" d="M13.3,339.8c-0.8,13.4,0.8,61.8,71,92.8"/>
							<path class="st19" d="M461.5,312.8l-29.8,59.7c0,0,20.2,7.4,4.4,30.6c0,0,37.3,15.5,61.8-24.7S461.5,312.8,461.5,312.8"/>
							<path class="st4" d="M393.4,495.2c-15.1,0-31-6.1-47.3-18.3l55.7-92.3l33.1,20.9l0.2,0.1c5.8,2.1,11.9,3.2,18.1,3.1
								c10.5,0.1,20.7-3.2,29.2-9.2l-40.7,69.7C441.6,469.3,424.1,495.2,393.4,495.2L393.4,495.2z"/>
							<path class="st21" d="M402.7,388.4l30.6,19.3l0.4,0.2l0.4,0.2c6.1,2.3,12.6,3.4,19.1,3.3c7.5,0,14.9-1.5,21.8-4.6l-35.5,60.8
								c-1.2,1.7-17.7,24.9-46.1,24.9c-13.9,0-28.6-5.5-43.7-16.3L402.7,388.4 M497.9,378.4c-13.8,22.7-31.7,27.6-44.7,27.6
								c-5.8,0-11.6-0.9-17.1-2.9l-35.3-22.2l-58.4,96.7c19.5,15.1,36.6,20.3,50.9,20.3c32.6,0,50.7-27.4,50.7-27.4L497.9,378.4z"/>
							<path class="st6" d="M431.8,372.5c0,0,22.2,7.8,4.4,30.6"/>
							<path class="st6" d="M400.2,378.8c0,0,30.3,27.7,47,27.5s36.4-4.2,48-24.1"/>
							<path class="st6" d="M403.9,414.6c0,0,20.8,18.4,44,12.5"/>
							<path class="st6" d="M425.7,442.2c0,0,10.9,8.2,26.1,0.4"/>
							<path class="st6" d="M375.6,453.6c0,0,25.1,25,64.7,8.5"/>
							<path class="st6" d="M389.3,429.2c0,0,10.2,7.3,16.7,9.7"/>
							<path class="st6" d="M466.6,330.1c0,0,23,7.5,25.7,37.8"/>
							<path class="st6" d="M478.2,367.6c0,0,10.6,16.4-7.3,32.7"/>
							<path class="st6" d="M344.6,482.1c0,0,57.6,49.4,99.4-8.4"/>
							<line class="st22" x1="-71.3" y1="294.2" x2="-57.9" y2="294.2"/>
							<line class="st22" x1="677" y1="132.6" x2="690.5" y2="132.6"/>
							<line class="st23" x1="316.8" y1="40.4" x2="330.2" y2="40.4"/>
							<line class="st23" x1="702.7" y1="202.3" x2="715.9" y2="204.7"/>
							<line class="st24" x1="175" y1="537.5" x2="188.4" y2="537.5"/>
							<path class="st19" d="M736.1,370c0,2.5-2,4.4-4.5,4.4s-4.5-2-4.5-4.5c0-2.5,2-4.4,4.5-4.4C734.1,365.6,736.1,367.5,736.1,370
								"/>
							<path class="st19" d="M-99.8,156.5c0,2.5-2,4.4-4.4,4.4c-2.5,0-4.4-2-4.4-4.4c0-2.5,2-4.4,4.4-4.4c0,0,0,0,0,0
								C-101.8,152.1-99.8,154.1-99.8,156.5"/>
							<path class="st6" d="M1053.4,495.6c0,0,37.1-110.4-128.6-45.2C752.5,518,683.7,659.9,711.9,671.1s70.3-14.1,70.3-14.1"/>
						</g>
					</g>
				</g>
			</g>
		</g>
	</g>
</g>
<g>
	<g>
		<g>
			<g>
				<path class="st25" d="M542,542.9c-11.7-3.9-21.7-12.7-26.7-25.1c-4.4-10.8-4.3-22.7,0.3-33.5s13-19.1,23.9-23.5l41.2-16.7
					l7.7,19.1l-41.2,16.7c-5.7,2.3-10.2,6.7-12.6,12.4c-2.4,5.7-2.5,12-0.1,17.7c4.8,11.8,18.3,17.6,30.2,12.8l41.2-16.7l7.7,19.1
					L572.3,542C562.2,546,551.5,546.1,542,542.9z"/>
			</g>
			<g>
				<g>
					<path class="st26" d="M542,542.9c-11.7-3.9-21.7-12.7-26.7-25.1c-4.4-10.8-4.3-22.7,0.3-33.5s13-19.1,23.9-23.5l41.2-16.7
						l7.7,19.1l-41.2,16.7c-5.7,2.3-10.2,6.7-12.6,12.4c-2.4,5.7-2.5,12-0.1,17.7c4.8,11.8,18.3,17.6,30.2,12.8l41.2-16.7l7.7,19.1
						L572.3,542C562.2,546,551.5,546.1,542,542.9z"/>
				</g>
			</g>
			
				<rect x="566.7" y="446.8" transform="matrix(0.9325 -0.3611 0.3611 0.9325 -126.2106 238.8188)" class="st27" width="18.7" height="20.8"/>
			<polygon class="st27" points="588.2,513.3 595.9,532.5 613.5,525.3 605.8,506.2 			"/>
			<g>
				<g>
					<path class="st28" d="M539,535.1c-11.7-3.9-21.7-12.7-26.7-25.1c-4.4-10.8-4.3-22.7,0.3-33.5c4.6-10.8,13-19.1,23.9-23.5
						l41.2-16.7l7.7,19.1l-41.2,16.7c-5.7,2.3-10.2,6.7-12.6,12.4c-2.4,5.7-2.5,12-0.1,17.7c4.8,11.8,18.3,17.6,30.2,12.8l41.2-16.7
						l7.7,19.1l-41.2,16.7C559.2,538.2,548.5,538.3,539,535.1z"/>
				</g>
			</g>
			<polygon class="st29" points="560.6,443.3 568.1,462.5 585.5,455.7 578,436.3 			"/>
			<polygon class="st29" points="585.2,505.5 592.8,524.8 610.5,517.5 602.8,498.4 			"/>
			<g>
				<defs>
					<path id="SVGID_00000075849715068114693910000001589150076151138218_" d="M610.5,517.5l-7.7-19.1l-41.2,16.7
						c-10.7,4.3-22.7,0.1-28.5-9.4c-0.8-4.4-0.4-9,1.4-13.3c2.4-5.7,6.9-10.1,12.6-12.4l23.9-9.7l17.4-6.8l-3-7.8l-4.5-11.7l-3-7.8
						l-0.3,0.1l0,0l-41.2,16.7c-10.8,4.4-19.3,12.7-23.9,23.5c-4.6,10.8-4.7,22.6-0.3,33.5c0.4,1,0.9,2,1.4,3c0.4,1.6,1,3.2,1.6,4.8
						c5,12.3,15,21.1,26.7,25.1c9.5,3.2,20.2,3.1,30.3-0.9l41.2-16.7l-3.1-7.7L610.5,517.5z"/>
				</defs>
				<clipPath id="SVGID_00000152943871606241871820000010670731027385189284_">
					<use xlink:href="#SVGID_00000075849715068114693910000001589150076151138218_"  style="overflow:visible;"/>
				</clipPath>
				<path style="opacity:0.3;clip-path:url(#SVGID_00000152943871606241871820000010670731027385189284_);fill:#FFFFFF;" d="
					M548.6,447.7l-2.9,89.1c0,0,6.7,1.6,11.7,0.3l1.4-93L548.6,447.7z"/>
				
					<polygon style="opacity:0.3;clip-path:url(#SVGID_00000152943871606241871820000010670731027385189284_);fill:#FFFFFF;" points="
					544,450 541,535.7 534.6,532.9 539.2,451.9 				"/>
			</g>
		</g>
		<path class="st31" d="M595,491.2l19.4-14.8c0.2-0.1,0.4,0,0.5,0.2l1.3,5.4c0,0.2,0.2,0.3,0.4,0.2l15.1-3c0.3-0.1,0.5,0.4,0.2,0.6
			l-20.2,12.3c-0.2,0.1-0.4,0-0.5-0.2l-1.4-4.4c-0.1-0.2-0.2-0.3-0.4-0.2l-14.3,4.3C595,491.9,594.7,491.4,595,491.2z"/>
		<path class="st31" d="M601,468.7l27.7-21.1c0.3-0.2,0.6-0.1,0.7,0.2l1.9,7.8c0.1,0.2,0.3,0.4,0.5,0.3l21.6-4.2
			c0.5-0.1,0.7,0.6,0.3,0.8l-28.8,17.6c-0.2,0.2-0.6,0-0.7-0.2l-2-6.3c-0.1-0.2-0.3-0.4-0.6-0.3l-20.3,6.1
			C601,469.6,600.6,469,601,468.7z"/>
	</g>
	<g>
		<path class="st32" d="M590.4,73.2c-1.4,5.5-7.1,8.9-12.6,7.4c-5.5-1.4-8.9-7.1-7.4-12.6s7.1-8.9,12.6-7.4
			C588.5,62,591.9,67.7,590.4,73.2z"/>
		<path class="st32" d="M557.7,90.7c0,0,5.5-16.3,20.5-12.4c15.7,4.1,12.2,20.9,12.2,20.9L557.7,90.7z"/>
	</g>
	<g>
		<path class="st33" d="M28.9,313l15.8,73.2c0.9,4.2,4.4,7.2,8.5,7.2l107.9,0.2c3.9,0,10.4-7.1,9.5-11.1l-20.4-69
			c-0.6-2.8-3-4.8-5.7-4.8l-108.9-4.6C28.9,304.1,28.5,310.8,28.9,313z"/>
		<path class="st34" d="M32.4,308.3l15.8,73.2c0.9,4.2,4.4,7.2,8.5,7.2l107.9,0.2c3.9,0,6.7-3.9,5.8-7.8l-16.7-72.3
			c-0.6-2.8-3-4.8-5.7-4.8l-112.4,0.1C33.5,304.1,32,306.2,32.4,308.3z"/>
		<path class="st35" d="M34.7,318.9l-2.2-10.5c-0.5-2.2,1.1-4.3,3.2-4.3l112.3-0.1c2.7,0,5.1,2,5.8,4.8l2.1,9L34.7,318.9z"/>
		<path class="st25" d="M48.2,311.6c0,1.7-1.4,3.2-3.2,3.2c-1.7,0-3.2-1.4-3.2-3.2c0-1.7,1.4-3.2,3.2-3.2
			C46.8,308.4,48.2,309.8,48.2,311.6z"/>
		<path class="st31" d="M56.5,311.6c0,1.7-1.4,3.2-3.2,3.2c-1.7,0-3.2-1.4-3.2-3.2c0-1.7,1.4-3.2,3.2-3.2
			C55.1,308.4,56.5,309.8,56.5,311.6z"/>
		<path class="st36" d="M64.8,311.6c0,1.7-1.4,3.2-3.2,3.2c-1.7,0-3.2-1.4-3.2-3.2c0-1.7,1.4-3.2,3.2-3.2
			C63.4,308.4,64.8,309.8,64.8,311.6z"/>
		<g>
			<g>
				<g>
					<path class="st37" d="M94.8,335.3c0,0.1-10,0.3-22.3,0.3c-12.3,0-22.3-0.1-22.3-0.3c0-0.1,10-0.3,22.3-0.3
						C84.8,335,94.8,335.1,94.8,335.3z"/>
				</g>
			</g>
		</g>
		<g>
			<g>
				<g>
					<path class="st37" d="M101.4,357.4c0,0.1-10,0.3-22.3,0.3c-12.3,0-22.3-0.1-22.3-0.3c0-0.1,10-0.3,22.3-0.3
						C91.4,357.2,101.4,357.3,101.4,357.4z"/>
				</g>
			</g>
		</g>
		<g>
			<g>
				<g>
					<path class="st37" d="M105.2,369.6c0,0.1-10,0.3-22.3,0.3c-12.3,0-22.3-0.1-22.3-0.3c0-0.1,10-0.3,22.3-0.3
						C95.2,369.3,105.2,369.4,105.2,369.6z"/>
				</g>
			</g>
		</g>
		<g>
			<g>
				<g>
					<path class="st37" d="M98,346.5c0,0.1-10,0.3-22.3,0.3c-12.3,0-22.3-0.1-22.3-0.3c0-0.1,10-0.3,22.3-0.3
						C88,346.2,98,346.4,98,346.5z"/>
				</g>
			</g>
		</g>
		<g>
			<path class="st38" d="M148.1,373.4h-23.4c-5.1,0-10.1-4.2-11-9.5l-4.2-22.4c-1-5.2,2.5-9.5,7.7-9.5h24c5.2,0,10.2,4.2,11,9.5
				l3.6,22.4C156.7,369.2,153.2,373.4,148.1,373.4z"/>
			<g>
				<path class="st39" d="M153.7,349c-3.5-2.5-8.7-3.7-12.5-3.2c-3.9,0.5-5.7,2.5-7.4,6.2c-1,2.2-1.9,7.4-4.2,8.2
					c-1.9,0.7-5.2-2.5-7.7-3.3c-3.6-1.1-7,1-8.7,3.8l1.1,5.9c0.7,3.7,4.2,6.8,7.9,6.8h28.6c3.7,0,6.2-3.1,5.5-6.9L153.7,349z"/>
			</g>
			<path class="st39" d="M125.9,343.1c0.5,2.9-1.4,5.3-4.3,5.3c-2.9,0-5.6-2.4-6.2-5.3c-0.5-2.9,1.4-5.3,4.3-5.3
				S125.4,340.2,125.9,343.1z"/>
		</g>
	</g>
	<g>
		<polygon class="st25" points="47.4,421 66.8,491.1 89.4,491.1 93.4,488.5 68.7,418.7 51.4,418.4 		"/>
		<polygon class="st25" points="81.6,442.2 95.8,491.4 116.4,491.4 122.3,488 101,441.8 85.4,438.4 		"/>
		<polygon class="st25" points="114.2,465.5 122.2,491.9 144.8,491.9 149.5,488.5 138.6,465.5 118.9,462.1 		"/>
		<polygon class="st40" points="47.4,421 66.8,491.1 89.4,491.1 93.4,488.5 68.7,418.7 51.4,418.4 		"/>
		<polygon class="st40" points="81.6,442.2 95.8,491.4 116.4,491.4 122.3,488 101,441.8 85.4,438.4 		"/>
		<polygon class="st40" points="114.2,465.5 122.2,491.9 144.8,491.9 149.5,488.5 138.6,465.5 118.9,462.1 		"/>
		<polygon class="st41" points="51.4,418.4 70.8,488.5 93.4,488.5 72.9,418.4 		"/>
		<polygon class="st41" points="85.4,438.4 99.7,488 122.3,488 106.9,438.4 		"/>
		<polygon class="st41" points="118.9,462.1 126.9,488.5 149.5,488.5 143.4,462.1 		"/>
	</g>
	<g>
		<polyline class="st31" points="26.5,175.6 130.6,173.3 133.9,169.6 112.3,106.4 10.2,103.8 		"/>
	</g>
	<g class="st42">
		<polyline points="26.5,175.6 130.6,173.3 133.9,169.6 112.3,106.4 10.2,103.8 		"/>
	</g>
	<g>
		<polyline class="st43" points="10.2,103.8 29.8,171.9 133.9,169.6 115.6,102.7 10.2,103.8 		"/>
	</g>
	<g>
		<g>
			<g>
				<path d="M115.6,102.7c0,0-0.1,0.1-0.2,0.2c-0.1,0.2-0.3,0.4-0.5,0.7c-0.5,0.6-1.2,1.5-2.1,2.6c-1.9,2.3-4.6,5.5-7.9,9.6
					c-6.8,8.1-16.2,19.4-27,32.2l-0.1,0.2l-0.2-0.1c-2.9-1.9-6-3.9-9.1-5.9c-16.1-10.5-30.7-20.1-41.3-27c-5.2-3.5-9.5-6.3-12.5-8.2
					c-1.4-1-2.6-1.7-3.4-2.3c-0.4-0.3-0.7-0.4-0.9-0.6c-0.2-0.1-0.3-0.2-0.3-0.2c0,0,0.1,0.1,0.3,0.2c0.2,0.1,0.5,0.3,0.9,0.6
					c0.8,0.5,2,1.2,3.4,2.2c3,1.9,7.3,4.7,12.6,8.1c10.6,6.9,25.2,16.4,41.4,26.9c3.1,2,6.2,4,9.1,5.9l-0.3,0
					c10.8-12.7,20.3-24,27.1-32.1c3.4-4,6.1-7.2,8.1-9.5c0.9-1.1,1.7-1.9,2.2-2.5c0.2-0.3,0.4-0.5,0.6-0.6
					C115.5,102.8,115.6,102.7,115.6,102.7z"/>
			</g>
		</g>
	</g>
	<g>
		<g>
			<g>
				<path d="M56.2,133.8c0.1,0.1-5.7,8.7-13,19.2C36,163.5,30,172,29.8,171.9c-0.1-0.1,5.7-8.7,13-19.2
					C50.1,142.2,56.1,133.7,56.2,133.8z"/>
			</g>
		</g>
	</g>
	<g>
		<g>
			<g>
				<path d="M93.2,129.4c0.1-0.1,9.3,8.8,20.6,19.9c11.3,11.1,20.3,20.2,20.2,20.3c-0.1,0.1-9.3-8.8-20.6-19.9
					C102.1,138.6,93.1,129.5,93.2,129.4z"/>
			</g>
		</g>
	</g>
	<polyline class="st44" points="10.2,103.8 29.8,171.9 133.9,169.6 115.6,102.7 10.2,103.8 	"/>
	<g>
		<g>
			<circle class="st25" cx="384.7" cy="83.4" r="83.4"/>
			<circle class="st26" cx="384.7" cy="83.4" r="83.4"/>
		</g>
		<circle class="st25" cx="396" cy="83.4" r="83.4"/>
		<g>
			<defs>
				<circle id="SVGID_00000059307924331662140710000016318367610182572216_" cx="396" cy="83.4" r="83.4"/>
			</defs>
			<clipPath id="SVGID_00000099663612293641855810000011409352775884730258_">
				<use xlink:href="#SVGID_00000059307924331662140710000016318367610182572216_"  style="overflow:visible;"/>
			</clipPath>
			<g style="clip-path:url(#SVGID_00000099663612293641855810000011409352775884730258_);">
				<circle class="st25" cx="384.7" cy="83.4" r="83.4"/>
				<circle class="st42" cx="384.7" cy="83.4" r="83.4"/>
			</g>
			
				<circle style="clip-path:url(#SVGID_00000099663612293641855810000011409352775884730258_);fill:#FF3358;" cx="396" cy="83.4" r="83.4"/>
		</g>
		<circle class="st4" cx="396" cy="83.4" r="60.6"/>
		<circle class="st28" cx="396" cy="83.4" r="39.3"/>
		<ellipse transform="matrix(0.2287 -0.9735 0.9735 0.2287 224.2391 449.8721)" class="st4" cx="396" cy="83.4" rx="18" ry="18"/>
		<line class="st47" x1="396" y1="83.4" x2="502" y2="16.1"/>
		<polygon class="st37" points="478,32.4 479.5,14 495.6,1.4 494.8,21.8 		"/>
		<polygon class="st37" points="513.3,26 495.6,20.7 478,31.1 497.3,37.9 		"/>
		<g>
			<g>
				<g>
					<path d="M406.2,87.9c0,0-0.3,0.2-0.9,0.3c-0.6,0.1-1.4,0.3-2.4,0.3c-2.1,0-5.1-0.8-7.4-3.1c-2.3-2.3-3-5.4-3-7.4
						c0-1,0.1-1.9,0.3-2.4c0.2-0.6,0.3-0.9,0.3-0.8c0.1,0-0.3,1.2-0.2,3.3c0.1,2,0.9,4.9,3,7.1c2.2,2.2,5,3,7,3.1
						C405,88.2,406.2,87.8,406.2,87.9z"/>
				</g>
			</g>
		</g>
	</g>
	<g>
		<path class="st48" d="M107.3,154.3l128.6,457.1c6.6,23.5,27.3,35.7,51.7,34.2l211.2-11.5c16.6-1,27.9-17.2,23.3-33.1L384.6,129.1
			c-3.3-11.3-13.7-18.9-25.5-18.6l-223,5.3C119.4,116.2,103,138.1,107.3,154.3z"/>
		<g>
			<g>
				<g>
					<path class="st4" d="M518,623.6c0,0-0.7,0.1-2,0.1c-1.3,0.1-3.3,0.2-5.9,0.4c-5.2,0.3-12.9,0.8-22.7,1.4
						c-19.7,1.2-48.3,3-83.6,5.2c-17.6,1.1-37,2.3-57.7,3.5c-10.4,0.6-21.1,1.3-32.1,2c-5.5,0.3-11.1,0.7-16.8,1
						c-5.7,0.4-11.5,0.6-17.3-0.1c-5.8-0.7-11.6-2.3-17-4.9c-0.7-0.3-1.3-0.7-2-1c-0.6-0.4-1.3-0.8-1.9-1.2
						c-0.6-0.5-1.2-0.9-1.8-1.4l-1.7-1.5c-2.2-2.1-4.1-4.6-5.7-7.2c-3.3-5.2-5.6-11-7.4-17c-1.8-6-3.4-12.1-5.1-18.2
						c-6.8-24.5-13.7-49.9-20.9-75.9c-28.6-104-54.5-198.2-73.3-266.4c-9.4-34.1-16.9-61.7-22.2-80.7c-2.6-9.5-4.6-16.9-6-22
						c-0.7-2.5-1.2-4.4-1.5-5.7c-0.3-1.3-0.5-2-0.5-2s0.2,0.7,0.6,1.9c0.4,1.3,0.9,3.2,1.6,5.7c1.4,5,3.4,12.4,6.1,21.9
						c5.3,19.1,12.9,46.6,22.3,80.7c18.8,68.2,44.8,162.3,73.4,266.3c7.2,26,14.1,51.4,20.9,75.9c1.7,6.1,3.3,12.2,5.1,18.2
						c1.9,5.9,4.2,11.7,7.4,16.9c1.6,2.6,3.5,5,5.6,7.1l1.7,1.5c0.6,0.5,1.2,0.9,1.8,1.3c0.6,0.4,1.3,0.8,1.9,1.2
						c0.7,0.4,1.3,0.7,2,1c5.4,2.6,11.1,4.2,16.9,4.9c5.8,0.7,11.6,0.5,17.2,0.1c5.7-0.3,11.3-0.7,16.8-1c11-0.7,21.8-1.3,32.1-1.9
						c20.7-1.2,40.1-2.4,57.7-3.5c35.3-2.1,63.8-3.8,83.6-5c9.9-0.6,17.5-1,22.7-1.3c2.6-0.1,4.6-0.3,5.9-0.3
						C517.3,623.7,518,623.6,518,623.6z"/>
				</g>
			</g>
		</g>
		<path class="st4" d="M291.9,129l-79.8,2.3c-1.5,0-2.7-1.1-2.8-2.6l0,0c0-1.5,1.1-2.7,2.6-2.8l79.8-2.3c1.5,0,2.7,1.1,2.8,2.6l0,0
			C294.6,127.7,293.4,129,291.9,129z"/>
		<g>
			<path class="st34" d="M362.2,139.1L145.4,142c-3.9,0.1-6.7,3.8-5.7,7.6L258.2,575c3,10.8,13.1,18.2,24.3,17.8l204-7.6
				c9.6-0.4,16.4-9.7,13.7-18.9L382.7,154.4C380.1,145.3,371.7,139,362.2,139.1z"/>
		</g>
		<polygon class="st49" points="249.5,140.6 166.5,244.1 174,271.4 274.9,140.4 		"/>
		<polygon class="st49" points="236.1,140.8 162,229.4 159.4,220.3 228.7,140.9 		"/>
		<polygon class="st42" points="384,640.4 384,475.7 299.9,490.8 299,452.3 411.9,443.4 404.2,639.3 		"/>
	</g>
	<g>
		<g>
			<path class="st50" d="M406,231.7c-5.5-2.9-8.5-6.3-11.2-11.9c6.4,3.6,13.9,5.2,21.2,4.5c0.5-4.9,0.4-3.7,0.8-8.6
				c-8.6-2.4-17.4-4.8-24.9-9.8c-7.5-5-17.5-13.4-19.3-22.2c-1.3-6.6,5.4-9.4,9.1-19.7c3.2-8.7,1.7-16.8-3.4-25.1
				c-2.5-4-5.5-7.5-8.8-10.9c-6.2-6.4-15.6-9.8-24.4-7.5c-9.1-8.8-34.1-5.8-44.6-1c-10.4,4.9-15,6.1-21.7,15.5
				c-11.1,15.8-21.3,42.7-18.9,61.9c2.4,19.2,14.3,37.6,31.9,45.6c8.9,4,18.7,5.4,28.3,7c9.6,1.6,19.4,3.4,27.8,8.3
				c8.4,4.9,15.4,13.3,15.9,23.1c21.3-8.7,39.8-25.3,50.6-46.3C414.4,234.5,412.9,235.3,406,231.7z"/>
		</g>
		<g>
			<g>
				<path class="st51" d="M284.4,224.1L284.4,224.1l7.6-44.2l10.3-36.2l40.1-18.3l5.3,2.5c12.3,5.8,22.9,17.4,19.8,31.9l0,0.2
					c0,0-6.8,34.3-13.1,44.9c-7.9,13.2-18.2,11.3-22.1,16.3c-2.2,2.9-3.3,7.1-3.8,10.9c-0.9,6.8-6,12.4-12.8,13.6
					C306.9,247.3,294.6,244.5,284.4,224.1z"/>
				<path class="st52" d="M363,156.3c-0.3-0.7-0.9-1.1-1.5-1.4c-0.6-0.3-1.2-0.5-1.9-0.6c-0.1,0-0.1,0-0.2,0c-0.3-0.1-0.7-0.1-1-0.1
					c-0.4,0-0.8,0-1.2,0c0,0-0.1,0-0.1,0c-0.4,0.1-0.9,0.2-1.3,0.3c0,0-0.1,0-0.1,0l0,0c-0.1,0-0.1,0-0.2,0.1
					c-0.8,0.3-1.6,0.7-2.1,1.4c-0.5,0.7-0.7,1.9-0.2,2.5c0.3,0.4,0.8,0.6,1.3,0.8c0.7,0.2,1.4,0.4,2.1,0.7c0.9,0.3,1.9,0.6,2.8,0.6
					c1,0,2-0.3,2.8-1.1C363.1,158.7,363.5,157.4,363,156.3z"/>
				<path class="st52" d="M336.4,152.3c-0.3-0.7-0.9-1.1-1.5-1.4c-0.6-0.3-1.2-0.5-1.9-0.6c-0.1,0-0.1,0-0.2,0
					c-0.3-0.1-0.7-0.1-1-0.1c-0.4,0-0.8,0-1.2,0c0,0-0.1,0-0.1,0c-0.4,0.1-0.9,0.2-1.3,0.3c0,0-0.1,0-0.1,0l0,0
					c-0.1,0-0.1,0-0.2,0.1c-0.8,0.3-1.6,0.7-2.1,1.4c-0.5,0.7-0.7,1.9-0.2,2.5c0.3,0.4,0.8,0.6,1.3,0.8c0.7,0.2,1.4,0.4,2.1,0.7
					c0.9,0.3,1.9,0.6,2.8,0.6c1,0,2-0.3,2.8-1.1C336.4,154.7,336.8,153.3,336.4,152.3z"/>
				<path d="M325.6,165.6c0.3-1.2,0.4-2.6,1.4-3.5l0.2-0.1c0.9-0.2,1.9-0.2,2.6,0.4c0.6,0.5,0.8,1.5,0.8,2.3c-0.1,1.2-0.6,2.3-1,3.3
					c-0.3,0.6-0.5,1.1-0.9,1.6c-0.4,0.5-0.9,0.8-1.5,0.8c-1,0-1.7-0.9-1.9-1.9C325,167.6,325.3,166.6,325.6,165.6z"/>
				<path d="M350.6,172.2c0.3-1.2,0.4-2.6,1.4-3.5l0.2-0.1c0.9-0.2,1.9-0.2,2.6,0.4c0.6,0.5,0.8,1.5,0.8,2.3c-0.1,1.2-0.6,2.3-1,3.3
					c-0.3,0.6-0.5,1.1-0.9,1.6c-0.4,0.5-0.9,0.8-1.5,0.8c-1,0-1.7-0.9-1.9-1.9C350.1,174.2,350.4,173.1,350.6,172.2z"/>
				<path class="st53" d="M341.2,216.5l-4.9,2.4c-2.4,1-4.3,2.9-5.5,5.1l0,0.1c-9.3-3.7-16.4-7.1-21.8-15.6
					C319.8,214.8,327.3,217.8,341.2,216.5z"/>
				<g>
					<g>
						<g>
							<path d="M335.3,183.9c0-0.1,1.5-0.2,3.6-1.2c1.1-0.5,2.2-1.4,3.3-2.5c0.5-0.6,1-1.2,1.4-2c0.2-0.4,0.5-0.8,0.4-1
								c-0.1-0.2-0.6-0.3-1-0.2c-1.9,0-3.7,0-5.4-0.1l-0.3,0l0.1-0.3c0.4-2.3,0.8-4.2,1.1-5.6s0.5-2.2,0.5-2.1c0.1,0,0,0.8-0.2,2.2
								s-0.5,3.3-0.9,5.6l-0.2-0.3c1.7,0,3.5,0,5.4,0c0.2,0,0.5,0,0.7,0c0.2,0,0.6,0.2,0.7,0.5c0.2,0.3,0,0.7-0.1,0.9
								c-0.1,0.2-0.2,0.4-0.3,0.6c-0.4,0.8-1,1.5-1.5,2.1c-1.1,1.2-2.4,2-3.5,2.5c-1.1,0.5-2.1,0.7-2.8,0.8
								C335.7,184,335.3,184,335.3,183.9z"/>
						</g>
					</g>
				</g>
				<path class="st54" d="M277.8,136.5c-13.1,20.4-5,34.6,12.7,51.2l7.6-20.8c22.9-7.4,39.5-25.6,48.4-46.4
					C319.6,103.3,290.9,116.1,277.8,136.5z"/>
				<g>
					<g>
						<path class="st51" d="M299.2,190.7c-4.9-0.5-10.7-4.6-12.5-7.4c-2.5-3.9-3.2-7.7-2.2-12.3c1-4.5,4.3-8.7,8.7-10
							c4.4-1.4,9.9,0.6,11.8,4.8"/>
					</g>
					<path class="st53" d="M295.2,167.4c-1-0.5-2.2-0.2-3.1,0.5c-0.9,0.6-1.5,1.6-2,2.6c-1.2,2.5-1.9,5.5-1,8.1
						c0.8,2.7,3.4,4.9,6.2,4.7c0.5,0,1.1-0.2,1.4-0.7c0.4-0.6,0-1.4-0.2-2.1c-0.6-1.5-0.7-3.2-0.3-4.7c0.2-0.7,0.4-1.3,0.9-1.8
						c0.5-0.5,1.2-0.7,1.9-0.4c0.4,0.2,0.8,0.6,1.3,0.4c0.6-0.2,0.5-1.1,0.2-1.7C299.2,170.2,297.4,168.4,295.2,167.4"/>
					<g>
						<g>
							<g>
								<path d="M298,182.6c0,0-0.1,0-0.3-0.1c-0.2-0.1-0.5-0.2-0.8-0.5c-0.6-0.6-1.2-1.7-1.2-3.2c0-0.7,0-1.5,0.2-2.4
									c0.2-0.8,0.4-1.8,1.1-2.5c0.3-0.4,0.8-0.7,1.4-0.8c0.5-0.1,1.1,0,1.6,0.2c1,0.4,1.8,1.4,2.2,2.4c0.2,0.5,0.4,1,0.6,1.5
									l-0.5,0.1c-0.7-3.9-3-6.8-5-8.3c-2-1.6-3.5-2-3.5-2.1c0,0,0.4,0.1,1,0.3c0.7,0.3,1.6,0.7,2.6,1.5c2.1,1.5,4.5,4.5,5.2,8.5
									l-0.5,0.1c-0.2-0.5-0.4-1-0.6-1.5c-0.4-1-1.1-1.8-2-2.2c-0.9-0.4-1.9-0.2-2.4,0.4c-0.6,0.6-0.9,1.5-1.1,2.3
									c-0.2,0.8-0.2,1.6-0.2,2.3c0,1.4,0.5,2.5,1,3C297.6,182.5,298,182.6,298,182.6z"/>
							</g>
						</g>
					</g>
				</g>
			</g>
			<g>
				<path class="st53" d="M328.4,185.3c-0.8-0.5-1.7-0.9-2.6-0.6c-0.8,0.3-1.2,1.2-1.4,2c-0.3,1.7,0.1,3.6,1.2,5
					c1.1,1.4,2.8,2.3,4.6,2.5l0.1,0c2.5-0.6,4.5-2.4,5.1-4.9l0,0C333.1,188,330.7,186.6,328.4,185.3z"/>
			</g>
			<g>
				<g>
					<g>
						<path d="M330.2,194.2c0,0-0.3,0.1-1,0c-0.6-0.1-1.5-0.4-2.4-1c-0.9-0.6-1.9-1.7-2.4-3.1c-0.2-0.7-0.4-1.5-0.4-2.3
							c0-0.8,0.1-1.7,0.6-2.5c0.2-0.4,0.6-0.7,1.1-0.9c0.4-0.2,0.9-0.1,1.3,0c0.8,0.2,1.5,0.7,2.1,1c1.2,0.7,2.3,1.4,3.3,1.9
							c1.9,1.1,3,1.8,3,1.9c0,0.1-1.2-0.5-3.2-1.6c-1-0.5-2.1-1.2-3.3-1.8c-0.6-0.3-1.3-0.8-2-0.9c-0.7-0.2-1.4,0-1.8,0.7
							c-0.4,0.6-0.5,1.4-0.5,2.2c0,0.8,0.1,1.5,0.3,2.1c0.4,1.3,1.3,2.3,2.1,2.9C328.8,194.1,330.2,194.1,330.2,194.2z"/>
					</g>
				</g>
			</g>
			<path class="st55" d="M324.3,179.1c-1.5,2.6-6,2.8-10,0.5c-4-2.3-6.1-6.3-4.6-8.9c1.5-2.6,6-2.8,10-0.5
				C323.7,172.5,325.8,176.5,324.3,179.1z"/>
			<path class="st55" d="M356.7,182.5c-4.5-1.1-8.8,0.4-9.5,3.3s2.4,6.2,6.9,7.3c1.9,0.5,3.7,0.5,5.3,0.1l2.4-8.1
				C360.7,184.2,358.3,182.9,356.7,182.5z"/>
		</g>
	</g>
	<g>
		<g>
			<path class="st56" d="M407.4,286.5l-6.3,14.4l-31.9-44.1c-6.4-7.1-14.4-12.7-23.3-16.3l-17.3-7.3c-15.6,9.5-30.7,6-44.3-9.1
				l-28.5-2L253,222c-4.5,0-8.8,1.4-12.3,3.2c-6.1,3.1-11,8-14.5,13.9c-4.9,8.2-34.3,60.1-41.4,72.9l12.9,45.6
				c7.7,0.4,17.8-2.1,23.2-12.1l17.5-44.4l-8,58.4l86.2,19.9l19.8-35.7c0,0,9.9-13.4,12.2-22.2c1.8-7,2.3-11.9,2.2-14.9
				c6.3,7.5,21.5,26.2,34.9,39c7.3,7,23.1,17.1,33.8,5.1c12-13.5,19.2-41.8,19.2-41.8L407.4,286.5z"/>
		</g>
		<g>
			<g>
				<g>
					<path d="M245.5,251.2c0,0,0,0.1,0,0.3c0,0.2-0.1,0.5-0.1,0.8c-0.1,0.7-0.3,1.8-0.5,3.1c-0.4,2.7-0.9,6.6-1.6,11.3
						c-1.3,9.6-3,22.9-5,37.5c-1.9,14.6-3.7,27.9-5,37.5c-0.7,4.8-1.2,8.7-1.7,11.3c-0.2,1.3-0.4,2.3-0.5,3.1
						c-0.1,0.3-0.1,0.6-0.1,0.8c0,0.2-0.1,0.3-0.1,0.3c0.4-2.8,3.1-24.1,6.9-53c1.9-14.6,3.7-27.9,5.1-37.5
						c0.7-4.8,1.3-8.7,1.8-11.3c0.2-1.3,0.4-2.3,0.5-3.1c0.1-0.3,0.1-0.6,0.2-0.8C245.5,251.3,245.5,251.2,245.5,251.2z"/>
				</g>
			</g>
		</g>
		<g>
			<g>
				<g>
					<path class="st57" d="M407.2,323.9c-0.1,0-0.3-1.3-0.7-3.5c-0.4-2.1-1-5.1-1.8-8.3c-0.8-3.2-1.6-6.1-2.2-8.2
						c-0.6-2.1-1-3.4-0.9-3.4c0,0,0.2,0.3,0.4,0.9c0.2,0.6,0.5,1.4,0.9,2.4c0.7,2.1,1.6,5,2.4,8.2c0.8,3.2,1.3,6.2,1.6,8.4
						c0.2,1.1,0.3,2,0.3,2.6C407.2,323.6,407.2,323.9,407.2,323.9z"/>
				</g>
			</g>
		</g>
		<g>
			<path class="st57" d="M355.3,284.7l-5.1-11.4c2,11.7,2.1,21.5,1,33.3l8,8.7C359.1,315.2,360.3,297.2,355.3,284.7z"/>
		</g>
	</g>
	<g>
		<g>
			<path class="st58" d="M527.4,184.2c-2.1,8.1-10.4,13.1-18.5,11c-8.1-2.1-13.1-10.4-11-18.5c2.1-8.1,10.4-13.1,18.5-11
				C524.5,167.8,529.4,176.1,527.4,184.2z"/>
		</g>
		<g>
			<path class="st51" d="M461,225c-0.8-3.5-4.3-3.4-6.5-2.9c-0.8,0.2-10.3,2.8-17.8,5c0.1-0.9,1.6-11.9-0.5-14.8
				c-2.2-3-4.6-1.3-4.7,3.4c-0.1,4.7-3,8.4-5,13.3c-2,4.9,0.5,19.5,0.5,19.5l-0.4,3.2l-15.5,37.1l23.6,18.7l14.1-48.5
				c0,0,12.6-6.7,13.9-10c1.2-3.2-1.3-4.8-1.3-4.8s2.3-0.4,2.7-3.2c0.5-2.7-1.5-3.8-1.5-3.8s1.5-1.7,1.3-3.9
				c-0.3-2.7-3.7-3.9-3.7-3.9S461.8,228.3,461,225z"/>
		</g>
		<g>
			<path class="st59" d="M450.9,207l-6.6-29.9l-16.6,4.9c-6.3,1.5-9.7,10.2-8.3,16.4c1.4,6.4,7.9,10.4,14.2,8.8l1.1-0.1l7.6,46
				c0.5,2.8,3.2,4.7,6,4c5.6-1.4,14.3-3,14.3-3C463.2,254.7,451.6,209.6,450.9,207z"/>
		</g>
		<g>
			<g>
				<g>
					<path class="st53" d="M437.7,254c-0.1-0.1,1-1.3,1.6-3.8c0.6-2.5,0.8-6.1-0.3-9.9c-0.4-1.8-0.8-3.4-1.4-4.9
						c-0.6-1.5-1.3-2.7-2-3.7l-0.1-0.1l0-0.1c0.5-1.4,0.6-2.6,0.9-3.4c0.2-0.8,0.4-1.3,0.4-1.2c0,0-0.1,0.5-0.2,1.3
						c-0.2,0.8-0.3,2-0.7,3.5l0-0.2c0.7,1,1.5,2.3,2.1,3.8c0.7,1.5,1.1,3.2,1.5,5c1,3.8,0.8,7.6,0.1,10.1c-0.4,1.3-0.8,2.2-1.2,2.8
						c-0.2,0.3-0.4,0.5-0.5,0.7C437.7,253.9,437.7,254,437.7,254z"/>
				</g>
			</g>
		</g>
		<g>
			<path class="st51" d="M460.2,229.5c0,0-8.5,2.3-13.5,3.9c-1.3,0.4-2.6,0.9-3.9,0.8c-1.3,0-2.8-1.3-3.1-2.5c-0.7-2.4,1.5-5.3,4-6
				l13.6-3.8"/>
		</g>
		<g>
			<path class="st51" d="M463,237.2c0,0-8.5,2.3-13.5,3.9c-1.3,0.4-2.6,0.9-3.9,0.8c-1.3,0-2.8-1.3-3.1-2.5c-0.7-2.4,1.5-5.3,4-6
				l13.6-3.8"/>
		</g>
		<g>
			<path class="st51" d="M462.2,250.1c-1.4,1-4.1,1.5-7.9,2.6c-1,0.3-2.4,0.6-3.5,0.5c-1.1,0-2.4-0.5-2.7-1.5
				c-0.7-2.1,1.2-3.3,2.3-3.6l12.1-3.5C462.5,244.5,465.6,247.8,462.2,250.1z"/>
		</g>
		<g>
			<path class="st51" d="M462.4,244.1c-1.8,1.2-5,1.9-9.8,3.2c-1.3,0.4-3,0.7-4.4,0.7c-1.3,0-2.9-0.6-3.3-1.9
				c-0.8-2.6,1.5-4.2,2.8-4.5l15.1-4.4C462.7,237.3,466.5,241.3,462.4,244.1z"/>
		</g>
		<g>
			<g>
				<g>
					<path class="st53" d="M460.5,229.4c0,0.1-3.3,1.2-7.3,2.4c-4.1,1.2-7.5,2-7.5,1.9c0-0.1,3.2-1.2,7.3-2.4
						C457.1,230.1,460.5,229.3,460.5,229.4z"/>
				</g>
			</g>
		</g>
		<g>
			<g>
				<g>
					<path class="st53" d="M462.8,237.3c0,0.1-3.5,1.2-7.9,2.4c-4.4,1.2-8,2.1-8,1.9c0-0.1,3.5-1.2,7.9-2.4
						C459.1,238,462.7,237.1,462.8,237.3z"/>
				</g>
			</g>
		</g>
		<g>
			<g>
				<g>
					<path class="st53" d="M462,244.1c0,0.1-2.5,1.1-5.8,2.1c-3.2,1-5.9,1.7-5.9,1.6c0-0.1,2.5-1.1,5.8-2.1
						C459.3,244.7,462,244,462,244.1z"/>
				</g>
			</g>
		</g>
		<g>
			<defs>
				<path id="SVGID_00000125562244931836309120000008980205356990477489_" d="M504,145.1c-17.5,23.5-59.7,32-59.7,32l6,27.5
					c28-4.6,71.4,12.2,71.4,12.2L504,145.1z"/>
			</defs>
			<clipPath id="SVGID_00000016797531105429090730000004929131651044398764_">
				<use xlink:href="#SVGID_00000125562244931836309120000008980205356990477489_"  style="overflow:visible;"/>
			</clipPath>
			<g style="clip-path:url(#SVGID_00000016797531105429090730000004929131651044398764_);">
				<path class="st61" d="M504,145.1c-17.5,23.5-59.7,32-59.7,32l6,27.5c28-4.6,71.4,12.2,71.4,12.2L504,145.1z"/>
			</g>
		</g>
		<g>
			<path class="st59" d="M521.8,220.9L521.8,220.9c-2.2,0.5-4.4-0.9-4.9-3.1L500.4,145c-0.5-2.2,0.9-4.4,3.1-4.9l0,0
				c2.2-0.5,4.4,0.9,4.9,3.1l16.5,72.8C525.4,218.2,524,220.4,521.8,220.9z"/>
		</g>
	</g>
	<path class="st4" d="M404.6,613.7c0-10.5,0-21,0-31.5h48.9l-2,46.2l-32.3,12.3l-14.5-17.4V613.7z"/>
	<path class="st28" d="M394.9,677.7c-0.3-20,2.5-32.5,2.2-52.4c-0.1-3.6,0.2-7.9,3.2-9.9c2.7-1.8,6.5-0.9,9.1,1.1
		c2.6,2,4.5,4.7,6.9,7c5.7,5.3,14.3,7.2,21.6,4.8c7.4-2.4,13.2-9,14.7-16.6c22.7,13.7,45.4,27.3,68.1,41c4.7,2.8,9.5,5.7,12.5,10.3
		c3,4.5,3.7,11.1,0.1,15.1"/>
	<path class="st37" d="M533.5,678.1c0,0,5-5.3,2.5-10.2c0,0-95.2-0.6-140.9-0.9l-0.1,10.7"/>
	<g>
		<path class="st4" d="M465.7,633.1c0,1.1-0.9,2-2,2c-1.1,0-2-0.9-2-2s0.9-2,2-2C464.8,631.1,465.7,632,465.7,633.1z"/>
		<path class="st4" d="M476.8,639.4c0,1.1-0.9,2-2,2c-1.1,0-2-0.9-2-2c0-1.1,0.9-2,2-2C475.9,637.4,476.8,638.3,476.8,639.4z"/>
		<path class="st4" d="M488.2,645.6c0,1.1-0.9,2-2,2c-1.1,0-2-0.9-2-2c0-1.1,0.9-2,2-2C487.3,643.6,488.2,644.5,488.2,645.6z"/>
		<g>
			<g>
				<g>
					<path class="st4" d="M486.2,646c-0.1,0,0-0.7,0.3-1.8c0.3-1.1,0.9-2.5,2-3.9c1.1-1.4,2.3-2.4,3.3-2.9c1-0.6,1.7-0.8,1.7-0.7
						c0.1,0.1-2.5,1.3-4.6,4C486.8,643.3,486.4,646.1,486.2,646z"/>
				</g>
			</g>
		</g>
		<g>
			<g>
				<g>
					<path class="st4" d="M475.3,639.1c-0.1,0,0-0.7,0.3-1.8c0.3-1.1,0.9-2.5,2-3.9c1.1-1.4,2.3-2.4,3.3-2.9c1-0.6,1.7-0.8,1.7-0.7
						c0.1,0.1-2.5,1.3-4.6,4C475.9,636.3,475.4,639.1,475.3,639.1z"/>
				</g>
			</g>
		</g>
		<g>
			<g>
				<g>
					<path class="st4" d="M464.4,633c-0.1,0,0-0.7,0.3-1.8c0.3-1.1,0.9-2.5,2-3.9c1.1-1.4,2.3-2.4,3.3-2.9c1-0.6,1.7-0.8,1.7-0.7
						c0.1,0.1-2.5,1.3-4.6,4C465,630.2,464.6,633,464.4,633z"/>
				</g>
			</g>
		</g>
	</g>
	<polygon points="404.6,599.9 452.7,600.4 452.3,609 404.6,604.7 	"/>
	<path class="st62" d="M395.8,667.1c47.3,0,92.8,0.8,140.1,0.8"/>
	<g>
		<g>
			<defs>
				<path id="SVGID_00000140726584097163408290000011794472865219418554_" d="M437.7,367.7c-20-7-84.5-0.1-129.4,5.9l-0.7-12.6
					l-47.7,18.5l-15.5,103.8l151.8-28.8l-3.5,145.3l69.5,0.6c0,0,9-146.9,11.5-169.9C476.2,407.6,468.8,378.7,437.7,367.7z"/>
			</defs>
			<clipPath id="SVGID_00000060752167109961318030000008199604405243479213_">
				<use xlink:href="#SVGID_00000140726584097163408290000011794472865219418554_"  style="overflow:visible;"/>
			</clipPath>
			<g style="clip-path:url(#SVGID_00000060752167109961318030000008199604405243479213_);">
				<g>
					<path class="st64" d="M437.7,367.7c-20-7-84.5-0.1-129.4,5.9l-0.7-12.6l-47.7,18.5l-15.5,103.8l151.8-28.8l-3.5,145.3l69.5,0.6
						c0,0,9-146.9,11.5-169.9C476.2,407.6,468.8,378.7,437.7,367.7z"/>
				</g>
			</g>
		</g>
		<g>
			<path class="st64" d="M259.2,271.9c0,0-24.3,86.3-23.8,86.5l-4.4-1.1c0,0-24.4,15.5-28.2,18.8c0,0,3.9,15.2,9.7,36.3
				c3.4,12.4,8,25.5,12,41.7l23.5,84.4l9.9,35.6c0,0,1.8,6,4.7,9.5c5.8,7,14.5,13.6,21.8,1.7c12.3-19.8,24.6-178.4,24.6-178.4
				l9.4-11.9c12.9-32.2,26-76.6,26.4-101.3L259.2,271.9z"/>
			<polygon class="st64" points="258.1,276.8 259.9,222 269.3,222.7 268.7,277.1 			"/>
			<polygon class="st64" points="333.9,295 340,236.9 349.4,241.7 342.5,297.2 			"/>
			<g>
				<path class="st4" d="M268.2,284c-0.5,2-2.6,3.3-4.6,2.7c-2-0.5-3.3-2.6-2.7-4.6c0.5-2,2.6-3.3,4.6-2.7
					C267.5,279.9,268.7,281.9,268.2,284z"/>
				<path class="st65" d="M263.9,282.7c-0.1,0.3-0.4,0.5-0.7,0.4c-0.3-0.1-0.5-0.4-0.4-0.7c0.1-0.3,0.4-0.5,0.7-0.4
					C263.8,282.1,264,282.4,263.9,282.7z"/>
				<path class="st65" d="M265.9,283.7c-0.1,0.3-0.4,0.5-0.7,0.4c-0.3-0.1-0.5-0.4-0.4-0.7c0.1-0.3,0.4-0.5,0.7-0.4
					C265.8,283,266,283.3,265.9,283.7z"/>
			</g>
			<g>
				<path class="st4" d="M337.1,301.5c-0.5,2-2.6,3.3-4.6,2.7c-2-0.5-3.3-2.6-2.7-4.6c0.5-2,2.6-3.3,4.6-2.7
					C336.4,297.4,337.6,299.5,337.1,301.5z"/>
				<path class="st65" d="M332.8,300.3c-0.1,0.3-0.4,0.5-0.7,0.4c-0.3-0.1-0.5-0.4-0.4-0.7c0.1-0.3,0.4-0.5,0.7-0.4
					C332.7,299.6,332.9,300,332.8,300.3z"/>
				<path class="st65" d="M334.8,301.2c-0.1,0.3-0.4,0.5-0.7,0.4c-0.3-0.1-0.5-0.4-0.4-0.7c0.1-0.3,0.4-0.5,0.7-0.4
					C334.7,300.6,334.9,300.9,334.8,301.2z"/>
			</g>
			<g>
				<g>
					<g>
						<path d="M315.2,393.6c0,0,0,0.1,0,0.3c0,0.2,0,0.5-0.1,0.9c-0.1,0.8-0.2,1.9-0.4,3.3c-0.4,2.9-0.9,7.1-1.6,12.2
							c-1.4,10.3-3.5,24.5-5.8,40.2c-2.4,15.7-4.6,29.9-6.3,40.1c-0.8,5.1-1.5,9.3-2.1,12.1c-0.2,1.4-0.5,2.5-0.6,3.3
							c-0.1,0.4-0.1,0.6-0.2,0.9c0,0.2-0.1,0.3-0.1,0.3c0.4-2.8,3.9-25.8,8.7-56.8C311.4,419.4,314.8,396.4,315.2,393.6z"/>
					</g>
				</g>
			</g>
			<g>
				<g>
					<g>
						<path d="M415.4,422.1c0,0-0.3,0.5-0.9,1.3c-0.6,0.8-1.5,1.9-2.5,3.4c-2.1,2.8-4.8,6.9-7.4,11.6c-2.7,4.7-4.7,9.1-6.1,12.3
							c-0.7,1.6-1.2,2.9-1.6,3.8c-0.4,0.9-0.6,1.4-0.6,1.4c0,0,0.1-0.5,0.4-1.5c0.3-0.9,0.8-2.3,1.5-3.9c1.3-3.3,3.3-7.7,6-12.4
							c2.7-4.7,5.5-8.7,7.6-11.5c1.1-1.4,2-2.5,2.6-3.3C415,422.4,415.4,422,415.4,422.1z"/>
					</g>
				</g>
			</g>
			<g>
				<g>
					<g>
						<path d="M424.5,435.5c0.1,0.1-6.2,4.6-14.1,10c-7.8,5.4-14.3,9.7-14.4,9.5c-0.1-0.1,6.2-4.6,14.1-10
							C418,439.6,424.4,435.4,424.5,435.5z"/>
					</g>
				</g>
			</g>
			<g>
				<g>
					<g>
						<path d="M254.6,381.1c0,0-0.4,0.4-1.1,1.2c-0.4,0.4-0.8,0.8-1.4,1.3c-0.6,0.5-1.2,1.1-1.9,1.6c-0.7,0.6-1.6,1.2-2.5,1.8
							c-0.9,0.6-1.9,1.2-3,1.8c-2.2,1.1-4.7,2.2-7.4,3.1c-2.7,0.8-5.4,1.4-7.8,1.7c-1.2,0.1-2.4,0.2-3.5,0.3c-1.1,0.1-2.1,0-3,0
							c-0.9,0-1.8-0.1-2.5-0.2c-0.7-0.1-1.4-0.2-1.9-0.3c-1-0.2-1.6-0.3-1.6-0.3c0,0,0.6,0,1.6,0.1c0.5,0.1,1.1,0.1,1.9,0.2
							c0.7,0,1.6,0.1,2.5,0.1c0.9,0,1.9,0,3-0.1c1.1,0,2.2-0.2,3.4-0.3c2.4-0.3,5-0.9,7.7-1.7c2.7-0.9,5.1-1.9,7.3-3
							c1.1-0.6,2.1-1.1,3-1.7c0.9-0.6,1.7-1.1,2.5-1.7c0.8-0.5,1.4-1.1,2-1.5c0.6-0.4,1.1-0.9,1.4-1.2
							C254.2,381.4,254.6,381.1,254.6,381.1z"/>
					</g>
				</g>
			</g>
		</g>
	</g>
	<g>
		<g>
			<path class="st51" d="M189.7,275.3c-3-1-8.2,1.1-12.3,5.1l-3.1,2.9c-2.5,2.4-3.6,4.7-4.1,6.8c-0.6,2.9,1.8,5.9,4.7,6.7
				c2.9,0.8,6,0,8.7-1.1c2.9-1.2,5.1-3.3,7.1-5.7c2.1-2.3,4-5,3.7-8.1C194.3,278.7,192.7,276.3,189.7,275.3z"/>
		</g>
		<g>
			<path class="st51" d="M194.6,288.8c-3-1-8.2,1.1-12.3,5.1l-3.1,2.9c-2.5,2.4-3.6,4.7-4.1,6.8c-0.6,2.9,1.8,5.9,4.7,6.7
				c2.9,0.8,6,0,8.7-1.1c2.9-1.2,5.1-3.3,7.1-5.7c2.1-2.3,4-5,3.7-8.1C199.2,292.2,197.6,289.8,194.6,288.8z"/>
		</g>
		<g>
			<path class="st51" d="M200,301.4c-3-1-8.2,1.1-12.3,5.1l-3.1,2.9c-2.5,2.4-3.6,4.7-4.1,6.8c-0.6,2.9,1.8,5.9,4.7,6.7
				c2.9,0.8,6,0,8.7-1.1c2.9-1.2,5.1-3.3,7.1-5.7c2.1-2.3,4-5,3.7-8.1C204.6,304.9,203,302.5,200,301.4z"/>
		</g>
		<g>
			<g>
				<g>
					<path class="st53" d="M192.7,287.3c0.1,0.1-3.3,2.7-7.6,5.7c-4.3,3-7.8,5.4-7.9,5.3c-0.1-0.1,3.3-2.7,7.6-5.7
						C189.1,289.6,192.6,287.2,192.7,287.3z"/>
				</g>
			</g>
		</g>
		<g>
			<g>
				<g>
					<path class="st53" d="M196.1,301.4c0,0.1-0.6,0.7-1.7,1.8c-1.1,1-2.7,2.4-4.6,3.8c-1.8,1.4-3.6,2.6-4.9,3.4
						c-1.3,0.8-2.1,1.3-2.2,1.2c0-0.1,0.7-0.6,1.9-1.5c1.2-0.9,2.9-2.1,4.8-3.5c1.8-1.4,3.5-2.7,4.6-3.7
						C195.4,301.9,196.1,301.4,196.1,301.4z"/>
				</g>
			</g>
		</g>
	</g>
	<g>
		<path class="st33" d="M473.3,293.8l20.9,96.8c1.2,5.5,5.8,9.5,11.2,9.5l142.8,0.3c5.1,0,13.8-9.4,12.5-14.7l-26.9-91.3
			c-0.9-3.7-4-6.3-7.6-6.3l-144.1-6C473.2,282.1,472.7,290.9,473.3,293.8z"/>
		<path class="st34" d="M477.9,287.7l20.9,96.8c1.2,5.5,5.8,9.5,11.2,9.5l142.8,0.3c5.1,0,8.9-5.1,7.7-10.4l-22.1-95.6
			c-0.9-3.7-4-6.3-7.6-6.3l-148.7,0.1C479.3,282.1,477.3,284.8,477.9,287.7z"/>
		<path class="st48" d="M480.9,301.6l-2.9-13.9c-0.7-2.9,1.4-5.7,4.2-5.7l148.6-0.1c3.6,0,6.8,2.6,7.6,6.4l2.8,11.9L480.9,301.6z"/>
		<path class="st25" d="M498.8,291.9c0,2.3-1.9,4.2-4.2,4.2c-2.3,0-4.2-1.9-4.2-4.2s1.9-4.2,4.2-4.2
			C496.9,287.7,498.8,289.6,498.8,291.9z"/>
		<path class="st31" d="M509.7,291.9c0,2.3-1.9,4.2-4.2,4.2c-2.3,0-4.2-1.9-4.2-4.2s1.9-4.2,4.2-4.2
			C507.9,287.7,509.7,289.6,509.7,291.9z"/>
		<path class="st36" d="M520.7,291.9c0,2.3-1.9,4.2-4.2,4.2c-2.3,0-4.2-1.9-4.2-4.2s1.9-4.2,4.2-4.2
			C518.9,287.7,520.7,289.6,520.7,291.9z"/>
		<g>
			<g>
				<g>
					<path class="st37" d="M560.5,323.3c0,0.1-13.2,0.3-29.5,0.3c-16.3,0-29.6-0.1-29.6-0.3c0-0.1,13.2-0.3,29.6-0.3
						C547.2,323.1,560.5,323.2,560.5,323.3z"/>
				</g>
			</g>
		</g>
		<g>
			<g>
				<g>
					<path class="st37" d="M569.2,352.6c0,0.1-13.2,0.3-29.5,0.3c-16.3,0-29.6-0.1-29.6-0.3c0-0.1,13.2-0.3,29.6-0.3
						C556,352.4,569.2,352.5,569.2,352.6z"/>
				</g>
			</g>
		</g>
		<g>
			<g>
				<g>
					<path class="st37" d="M574.2,368.6c0,0.1-13.2,0.3-29.5,0.3c-16.3,0-29.6-0.1-29.6-0.3c0-0.1,13.2-0.3,29.6-0.3
						C561,368.4,574.2,368.5,574.2,368.6z"/>
				</g>
			</g>
		</g>
		<g>
			<g>
				<g>
					<path class="st37" d="M564.7,338.1c0,0.1-13.2,0.3-29.5,0.3c-16.3,0-29.6-0.1-29.6-0.3c0-0.1,13.2-0.3,29.6-0.3
						C551.4,337.9,564.7,338,564.7,338.1z"/>
				</g>
			</g>
		</g>
		<g>
			<path class="st38" d="M630.9,373.7h-31c-6.8,0-13.3-5.6-14.6-12.6l-5.5-29.7c-1.3-6.9,3.3-12.6,10.2-12.6h31.7
				c6.9,0,13.5,5.6,14.6,12.6l4.8,29.7C642.3,368.1,637.7,373.7,630.9,373.7z"/>
			<g>
				<g>
					<path class="st39" d="M638.4,341.4c-4.6-3.4-11.5-4.9-16.6-4.2c-5.1,0.7-7.5,3.4-9.8,8.2c-1.3,2.9-2.6,9.8-5.6,10.9
						c-2.5,0.9-6.9-3.3-10.2-4.4c-4.7-1.5-9.3,1.3-11.6,5l1.5,7.8c0.9,5,5.6,9,10.4,9h37.8c4.9,0,8.2-4.1,7.3-9.2L638.4,341.4z"/>
				</g>
			</g>
			<path class="st39" d="M601.6,333.6c0.7,3.8-1.9,6.9-5.7,6.9c-3.8,0-7.5-3.1-8.2-6.9c-0.7-3.8,1.8-7,5.7-7
				C597.3,326.7,600.9,329.8,601.6,333.6z"/>
		</g>
	</g>
	<g>
		<g>
			<g>
				<g>
					<g>
						<g>
							<path d="M225.2,116.9c-0.1,0.1-0.7-0.7-2.1-1.5c-0.7-0.4-1.6-0.8-2.6-0.7c-1,0-2.1,0.8-2.2,1.9l-0.5,0c0-0.3,0-0.5,0-0.8
								c0-2.7,0-5.1,0-6.8c0-1.8,0.1-2.8,0.1-2.8c0.1,0,0.2,1.1,0.2,2.8c0.1,1.8,0.1,4.2,0.2,6.8c0,0.3,0,0.5,0,0.8l-0.5,0
								c0.2-1.4,1.6-2.2,2.7-2.3c1.2-0.1,2.1,0.4,2.8,0.9c0.7,0.5,1.1,0.9,1.4,1.3C225.1,116.7,225.2,116.9,225.2,116.9z"/>
						</g>
					</g>
				</g>
				<g>
					<g>
						<g>
							<path d="M222.4,120.9c-0.1,0-0.2-0.4-0.4-1c-0.2-0.6-0.5-1.5-1.1-2.2c-0.6-0.7-1.4-1-2-1.1c-0.6,0-1,0.1-1,0.1
								c0,0,0.3-0.4,1-0.4c0.7-0.1,1.7,0.3,2.4,1.1c0.7,0.8,0.9,1.8,1,2.5C222.5,120.5,222.5,120.9,222.4,120.9z"/>
						</g>
					</g>
				</g>
			</g>
			<g>
				<g>
					<g>
						<g>
							<path d="M240,114.9c-0.1,0.1-0.7-0.7-2.1-1.5c-0.7-0.4-1.6-0.8-2.6-0.7c-1,0-2.1,0.8-2.2,1.9l-0.5,0c0-0.3,0-0.5,0-0.8
								c0-2.7,0-5.1,0-6.8c0-1.8,0.1-2.8,0.1-2.8c0.1,0,0.2,1.1,0.2,2.8c0.1,1.7,0.1,4.2,0.2,6.8c0,0.3,0,0.5,0,0.8l-0.5,0
								c0.2-1.4,1.6-2.2,2.7-2.3c1.2-0.1,2.1,0.4,2.8,0.8c0.7,0.5,1.1,0.9,1.4,1.3C239.9,114.7,240,114.9,240,114.9z"/>
						</g>
					</g>
				</g>
				<g>
					<g>
						<g>
							<path d="M237.2,118.9c-0.1,0-0.2-0.4-0.4-1c-0.2-0.6-0.5-1.5-1.1-2.2c-0.6-0.7-1.4-1-2-1.1c-0.6,0-1,0.1-1,0.1
								c0,0,0.3-0.4,1-0.4c0.7-0.1,1.7,0.3,2.4,1.1c0.7,0.8,0.9,1.8,1,2.5C237.3,118.5,237.2,118.9,237.2,118.9z"/>
						</g>
					</g>
				</g>
			</g>
			<g>
				<path class="st66" d="M245.4,65.3c0.3-0.2,4.2-3,4.2-3s-5.6-1.2-6.1-1.3c1.8-2.5,2.4-3.7,3.1-5.8l-6.7,2.4
					c-3-4.6-8.9-5.9-14.2-5c-4.5,0.8-9.8,5.8-11.7,9.9c-0.6,1.3-4.1,8.8-4.2,10.3l3,6.5l-26.1,10.2l0,0c8,8.3,16.3,11.5,20.1,13.5
					c6.1,3.2,14.6,4.4,17.9,4c7.1-0.9,15.1-4.2,19.8-10.9c3.9-5.6,4.6-10.7,4.6-18.5C249.1,73.8,247.5,67.8,245.4,65.3z"/>
			</g>
			<g>
				<path class="st66" d="M217,70.9c-12.1,1-24.2,1.9-36.3,2.9c-0.9,0.1-1.9,0.2-2.5,0.8c-1.2,1-1,2.9-0.5,4.3
					c2.8,8.8,11.3,15.5,20.5,16.2c9.2,0.7,25.8-3.2,29.3-18.1"/>
				<g>
					<g>
						<path class="st37" d="M227.5,76.9c0,0,0,0.1-0.1,0.3c-0.1,0.2-0.1,0.5-0.2,0.8c-0.1,0.4-0.2,0.8-0.4,1.3
							c-0.1,0.5-0.4,1.1-0.7,1.7c-1.1,2.5-3.3,6-7.5,8.9c-4.1,2.8-9.8,4.9-16.3,5.4c-3.3,0.2-6.8,0-10.2-1.3
							c-3.4-1.2-6.6-3.2-9.2-5.9c-1.3-1.4-2.5-2.9-3.4-4.4c-1-1.6-1.7-3.3-2.2-5c-0.2-0.9-0.4-1.8-0.2-2.7c0.2-0.9,0.9-1.8,1.8-2.1
							c0.9-0.3,1.7-0.3,2.6-0.4c0.8-0.1,1.7-0.1,2.5-0.2c6.5-0.5,12.3-0.9,17.2-1.3c4.9-0.4,8.8-0.6,11.6-0.8
							c1.3-0.1,2.4-0.2,3.2-0.2c0.3,0,0.6,0,0.8,0c0.2,0,0.3,0,0.3,0c0,0-0.1,0-0.3,0c-0.2,0-0.5,0.1-0.8,0.1
							c-0.8,0.1-1.8,0.2-3.2,0.3c-2.8,0.2-6.7,0.6-11.6,1c-4.9,0.4-10.8,0.9-17.2,1.4c-0.8,0.1-1.6,0.1-2.5,0.2
							c-0.8,0.1-1.7,0.1-2.4,0.4c-0.8,0.2-1.3,0.9-1.4,1.7c-0.1,0.8,0,1.7,0.2,2.5c0.5,1.7,1.2,3.3,2.2,4.9c0.9,1.5,2.1,3,3.4,4.3
							c2.6,2.6,5.7,4.7,9,5.8c3.3,1.2,6.7,1.5,10,1.3c6.5-0.4,12.1-2.4,16.2-5.2c4.1-2.7,6.3-6.2,7.5-8.6c0.3-0.6,0.6-1.2,0.7-1.7
							c0.2-0.5,0.3-0.9,0.4-1.3c0.1-0.3,0.2-0.6,0.3-0.8C227.4,77,227.5,76.9,227.5,76.9z"/>
					</g>
				</g>
			</g>
			<path d="M234.1,65.1c-1.1-0.3-1.7-1.5-1.4-2.6c0.3-1.1,1.5-1.7,2.6-1.4c1.1,0.3,1.7,1.5,1.4,2.6
				C236.4,64.8,235.2,65.5,234.1,65.1z"/>
		</g>
		<polygon class="st53" points="239.9,57.6 245.4,65.3 249.6,62.3 243.6,61.1 246.6,55.3 		"/>
	</g>
	<g>
		<g>
			<g>
				<g>
					<g>
						<g>
							<path d="M557.7,286c0,0,0.1-0.8,0.8-1.8c0.3-0.5,0.9-1.1,1.7-1.4c0.8-0.3,2-0.1,2.6,0.9l-0.5,0.2c-0.1-0.2-0.1-0.4-0.2-0.6
								c-0.7-1.9-1.4-3.6-1.8-4.9s-0.7-2.1-0.6-2.1c0.1,0,0.4,0.7,0.9,2c0.5,1.2,1.2,2.9,1.9,4.8c0.1,0.2,0.1,0.4,0.2,0.6l-0.5,0.2
								c-0.4-0.7-1.4-0.9-2-0.7c-0.7,0.2-1.2,0.7-1.6,1.2C558.1,285.3,557.8,286,557.7,286z"/>
						</g>
					</g>
				</g>
				<g>
					<g>
						<g>
							<path d="M560.8,288c-0.1,0-0.2-0.3-0.4-0.8c-0.1-0.5-0.3-1.2,0-2.1c0.3-0.8,0.9-1.4,1.5-1.5c0.5-0.2,0.9,0,0.9,0.1
								c0,0.1-0.3,0.1-0.7,0.3c-0.4,0.2-0.9,0.7-1.1,1.3c-0.2,0.7-0.2,1.3-0.1,1.8C560.9,287.7,560.9,288,560.8,288z"/>
						</g>
					</g>
				</g>
			</g>
			<g>
				<g>
					<g>
						<g>
							<path d="M544,286.6c0,0,0.1-0.8,0.8-1.8c0.3-0.5,0.9-1.1,1.7-1.4c0.8-0.3,2-0.1,2.6,0.9l-0.5,0.2c-0.1-0.2-0.1-0.4-0.2-0.6
								c-0.7-1.9-1.4-3.6-1.8-4.9c-0.4-1.3-0.7-2.1-0.6-2.1c0.1,0,0.4,0.7,0.9,2s1.2,2.9,1.9,4.8c0.1,0.2,0.1,0.4,0.2,0.6l-0.5,0.2
								c-0.4-0.7-1.4-0.9-2-0.7c-0.7,0.2-1.2,0.7-1.6,1.2C544.4,285.9,544.1,286.6,544,286.6z"/>
						</g>
					</g>
				</g>
				<g>
					<g>
						<g>
							<path d="M547.2,288.6c-0.1,0-0.2-0.3-0.4-0.8c-0.1-0.5-0.3-1.2,0-2.1c0.3-0.8,0.9-1.4,1.5-1.5c0.5-0.2,0.9,0,0.9,0.1
								c0,0.1-0.3,0.1-0.7,0.3c-0.4,0.2-0.9,0.7-1.1,1.3c-0.2,0.7-0.2,1.3-0.1,1.8C547.2,288.3,547.2,288.6,547.2,288.6z"/>
						</g>
					</g>
				</g>
			</g>
			<g>
				<path class="st66" d="M534.5,245.3c-0.2-0.2-2.8-2.8-2.8-2.8s4.4-0.2,4.7-0.2c-1.1-2.1-1.3-3.1-1.6-4.8l4.8,2.6
					c2.8-3.1,7.4-3.4,11.3-2c3.3,1.1,6.6,5.5,7.6,8.9c0.3,1.1,2,7.2,1.9,8.3l-3.1,4.5l18.4,10.9l0,0c-7.1,5.3-13.7,6.6-16.8,7.7
					c-5,1.7-11.6,1.5-13.9,0.8c-5.2-1.5-10.9-5-13.6-10.6c-2.2-4.7-2.1-8.6-1.2-14.5C530.7,251.2,532.8,247.4,534.5,245.3z"/>
			</g>
			<g>
				<path class="st66" d="M552.6,255.4c7.7-5.2,15.4-10.3,23.1-15.5c0.6-0.4,1.2-0.8,1.9-0.8c1.2,0,1.9,1.3,2.3,2.4
					c2.5,6.6,0.5,14.6-4.7,19.4c-5.2,4.8-17,10.3-26.1,3"/>
				<g>
					<g>
						<path class="st37" d="M549.2,264c0,0,0.3,0.1,0.7,0.4c0.5,0.3,1.1,0.8,2.1,1.2c1.8,0.9,4.8,1.9,8.5,1.6
							c3.7-0.3,8-1.7,12.1-4.5c2-1.4,4-3.2,5.3-5.4c1.4-2.3,2.3-4.9,2.7-7.7c0.1-1.4,0.1-2.8,0-4.2c-0.2-1.4-0.5-2.7-1-3.9
							c-0.2-0.6-0.6-1.2-1-1.6c-0.5-0.4-1-0.5-1.6-0.3c-0.6,0.2-1.1,0.6-1.6,0.9c-0.5,0.4-1.1,0.7-1.6,1c-4.1,2.7-7.9,5.2-11,7.3
							c-3.1,2-5.6,3.7-7.4,4.9c-0.9,0.5-1.5,1-2,1.3c-0.5,0.3-0.7,0.4-0.7,0.4c0,0,0.2-0.2,0.7-0.5c0.5-0.3,1.2-0.8,2-1.4
							c1.8-1.2,4.3-2.9,7.3-5c3.1-2.1,6.8-4.6,10.9-7.4c0.5-0.3,1-0.7,1.6-1.1c0.5-0.3,1-0.8,1.7-1c0.7-0.3,1.5-0.1,2.1,0.4
							c0.6,0.5,0.9,1.1,1.2,1.8c0.5,1.3,0.9,2.6,1,4c0.2,1.4,0.2,2.8,0,4.3c-0.3,2.9-1.3,5.6-2.7,7.9c-1.4,2.4-3.4,4.2-5.5,5.6
							c-4.1,2.8-8.6,4.3-12.4,4.5c-3.8,0.3-6.8-0.8-8.7-1.8c-1-0.5-1.6-1-2-1.3C549.5,264.2,549.2,264,549.2,264z"/>
					</g>
				</g>
			</g>
			<path class="st67" d="M543,246.5c0.9-0.1,1.5-0.9,1.3-1.8c-0.1-0.9-0.9-1.5-1.8-1.3c-0.9,0.1-1.5,0.9-1.3,1.8
				C541.4,246.1,542.2,246.7,543,246.5z"/>
		</g>
		<polygon class="st53" points="539.7,240.3 534.5,245.3 531.7,242.5 536.4,242.3 534.8,237.6 		"/>
	</g>
	<g>
		<g>
			<g>
				<path class="st32" d="M584,157.8c6.7-7.9,16-10.1,26.4-10.6c7.9-0.4,16.2,0.4,22.9,4.7c9.5,6.1,13.6,18.9,10.4,29.7
					c-3.2,10.8-13,19.9-24,22.2h-0.9c1.7,6.3,5.5,12,10.6,16c-8.6,0.5-17-6.3-18.3-14.8c-11.1,2-22.5-3.1-29.7-11.9
					C574.4,184.2,573.6,170.2,584,157.8z"/>
			</g>
			<g>
				<path class="st34" d="M615.3,167.9c-2.6,0.4-4.6,3.1-4.8,5.4c-0.3-2.3-1.8-4.3-4.5-5.3c-3.3-1.3-7.2,2-7.5,5.9
					c-0.2,3.1,1.4,6,3.1,8.5c2.6,4,9.6,8.7,9.6,8.7c-0.6,0,5.9-4.7,8.5-8.7c1.6-2.5,3.3-5.4,3.1-8.5
					C622.3,170,618.7,167.3,615.3,167.9z"/>
			</g>
		</g>
		<g>
			<g>
				<g>
					<path class="st68" d="M615.3,167.9c-2.6,0.4-4.6,3.1-4.8,5.4c-0.3-2.3-1.8-4.3-4.5-5.3c-3.3-1.3-7.2,2-7.5,5.9
						c-0.2,3.1,1.4,6,3.1,8.5c2.6,4,9.6,8.7,9.6,8.7c-0.6,0,5.9-4.7,8.5-8.7c1.6-2.5,3.3-5.4,3.1-8.5
						C622.3,170,618.7,167.3,615.3,167.9z"/>
				</g>
			</g>
		</g>
	</g>
	<g>
		<g>
			<g>
				<path class="st32" d="M152.7,527.5c-9.4-9.4-21.5-11.2-34.8-10.8c-10.1,0.3-20.7,2.1-28.8,8.3c-11.5,8.7-15.4,25.5-10.2,39
					c5.2,13.4,18.6,24.1,32.9,25.9l1.2-0.1c-1.5,8.2-5.8,15.9-12,21.4c11-0.2,21.1-9.8,21.8-20.8c14.4,1.4,28.4-6.2,36.6-18.2
					C167.6,560.2,167.2,542.2,152.7,527.5z"/>
			</g>
		</g>
	</g>
	<g>
		<path class="st34" d="M187.5,661.9c-11.3-2.6-30.8-6.9-41.7-10.9c-2.5-0.9-5.2-2-6.8-4.1c-1.7-2.1-1.8-5.6,0.4-7.2
			c-2.7-1.4-4.4-4.3-4.4-7.3c0-3,1.8-5.9,4.5-7.3c-3.1-4.1-1-10.9,3.8-12.6c-2.7-5,2.2-11.3,7.8-12.2c5.6-0.9,11,1.8,16.1,4.4
			c0.6-5,1.8-11.8,5-15.7c3.2-3.8,9-4.9,12.3-1.1c3,3.5-0.4,8.1-1,12.6c-1.1,8.3,11.5,13.7,15.5,16L187.5,661.9"/>
		<g>
			<g>
				<path class="st37" d="M187.5,661.9c0,0,0-0.3,0.2-0.8c0.1-0.6,0.3-1.3,0.6-2.4c0.5-2.1,1.3-5.2,2.2-9.1c2-7.9,4.8-19.2,8.2-33
					l0.1,0.2c-2-1.1-4.2-2.2-6.3-3.5c-2.1-1.3-4.3-2.7-6.1-4.7c-0.4-0.5-0.9-1-1.3-1.5c-0.2-0.3-0.4-0.5-0.6-0.8l-0.5-0.9
					c-0.6-1.2-1-2.6-0.9-4c0.1-2.8,1.4-5.4,2-8.1c0.3-1.3,0.4-2.8-0.3-4.1c-0.6-1.2-1.7-2.2-3-2.8c-2.6-1.2-5.9-0.4-8.2,1.4
					c-1.2,0.9-2.1,2.1-2.8,3.5c-0.7,1.3-1.3,2.8-1.8,4.2c-0.9,3-1.5,6.1-1.8,9.2l0,0.4l-0.3-0.2c-1.6-0.8-3.4-1.8-5.2-2.5
					c-2.2-0.9-4.5-1.7-6.8-1.9c-2.3-0.2-4.7-0.1-6.7,1c-1,0.5-1.9,1.2-2.7,2c-0.8,0.8-1.5,1.7-2,2.7c-1.1,2-1.2,4.3-0.1,6.2l0.1,0.3
					l-0.3,0.1c-2.4,0.8-4.1,3-4.7,5.3c-0.7,2.3-0.4,5,1.1,6.9l0.2,0.2l-0.3,0.1c-2.7,1.4-4.5,4.4-4.4,7.3c0.1,2.9,1.8,5.6,4.3,6.9
					l0.3,0.2l-0.3,0.2c-0.9,0.6-1.4,1.6-1.5,2.6c-0.1,1,0,2.1,0.4,3c0.8,1.9,2.6,3.1,4.4,4c1.8,0.9,3.7,1.5,5.5,2.1
					c1.8,0.6,3.6,1.2,5.3,1.7c6.9,2,13,3.5,18,4.7c5,1.2,9,2.1,11.7,2.8c1.3,0.3,2.4,0.6,3.1,0.7c0.3,0.1,0.6,0.1,0.8,0.2
					C187.4,661.9,187.5,661.9,187.5,661.9c0,0-0.1,0-0.3,0c-0.2,0-0.5-0.1-0.8-0.2c-0.7-0.2-1.7-0.4-3.1-0.7
					c-2.7-0.6-6.7-1.5-11.7-2.7c-5-1.2-11.1-2.7-18.1-4.7c-1.7-0.5-3.5-1-5.3-1.6c-1.8-0.6-3.7-1.2-5.5-2.1
					c-1.8-0.9-3.7-2.1-4.6-4.2c-0.4-1-0.6-2.1-0.5-3.3c0.1-1.1,0.7-2.2,1.7-2.9l0,0.4c-2.6-1.3-4.5-4.2-4.6-7.3
					c-0.1-3.1,1.7-6.3,4.6-7.7l-0.1,0.4c-1.6-2-1.9-4.8-1.2-7.3c0.7-2.5,2.5-4.8,5.1-5.7l-0.1,0.4c-1.1-2.1-1-4.7,0.1-6.7
					c1.1-2.1,2.8-3.8,4.9-4.9c2.1-1.1,4.6-1.3,7-1c2.4,0.3,4.7,1,6.9,2c1.8,0.8,3.6,1.7,5.3,2.5l-0.4,0.2c0.4-3.2,0.9-6.3,1.8-9.3
					c0.5-1.5,1-3,1.8-4.3c0.8-1.4,1.7-2.7,2.9-3.6c1.2-1,2.6-1.7,4.2-1.9c1.5-0.3,3.1-0.2,4.5,0.4c1.4,0.6,2.6,1.7,3.3,3
					c0.7,1.4,0.6,3,0.3,4.4c-0.6,2.8-1.9,5.4-2,8c-0.1,1.3,0.3,2.6,0.8,3.8l0.5,0.9c0.2,0.3,0.4,0.5,0.6,0.8c0.4,0.5,0.8,1,1.2,1.5
					c1.8,1.9,3.9,3.3,6,4.6c2.1,1.3,4.3,2.4,6.3,3.5l0.1,0.1l0,0.2c-3.5,13.8-6.4,25.1-8.4,32.9c-1,3.9-1.8,7-2.3,9.1
					c-0.3,1-0.5,1.8-0.6,2.4C187.6,661.7,187.5,661.9,187.5,661.9z"/>
			</g>
		</g>
	</g>
	<path class="st48" d="M209,669.6l13-51.5c0.3-1.2-0.4-2.5-1.7-2.8l-15-3.8c-1.2-0.3-2.5,0.4-2.8,1.7l-13,51.5"/>
	<path class="st4" d="M207.6,622.6c-0.5,1.8,0.6,3.6,2.4,4.1c1.8,0.5,3.6-0.6,4.1-2.4c0.5-1.8-0.6-3.6-2.4-4.1
		C209.9,619.7,208,620.8,207.6,622.6z"/>
	<g>
		<g>
			<g>
				<path class="st37" d="M142.5,613.4c0-0.1,0.7-0.4,2-0.7c1.3-0.3,3.1-0.4,5.1,0c2,0.4,3.7,1.1,4.8,1.8c1.1,0.7,1.7,1.3,1.7,1.3
					c-0.1,0.2-2.7-1.9-6.6-2.6C145.7,612.5,142.6,613.6,142.5,613.4z"/>
			</g>
		</g>
	</g>
	<g>
		<g>
			<g>
				<path class="st37" d="M138.8,625.4c0-0.1,2.4-0.4,5.2,0.4c2.8,0.8,4.7,2.3,4.6,2.4c-0.1,0.1-2-1.2-4.8-1.9
					C141.2,625.5,138.8,625.6,138.8,625.4z"/>
			</g>
		</g>
	</g>
	<g>
		<g>
			<g>
				<path class="st37" d="M137,639.2c0-0.1,2.2-0.7,4.9,0c2.7,0.7,4.4,2.3,4.3,2.3c-0.1,0.1-1.9-1.2-4.4-1.8
					C139.2,639.1,137,639.4,137,639.2z"/>
			</g>
		</g>
	</g>
	<g>
		<path class="st28" d="M80.8,204.1c-4.6,0.8-8,5.4-8.3,9.4c-0.5-4-3.1-7.4-7.8-9.2c-5.7-2.2-12.6,3.4-13.1,10.3
			c-0.4,5.4,2.4,10.4,5.3,14.8c4.5,6.9,16.6,15,16.6,15c-1,0,10.2-8.1,14.7-15c2.9-4.4,5.7-9.4,5.3-14.8
			C92.9,207.7,86.8,203,80.8,204.1z"/>
	</g>
</g>
</svg>
